<?xml version="1.0" encoding="UTF-8" ?>
<!DOCTYPE svg PUBLIC "-//W3C//DTD SVG 1.1//EN" "http://www.w3.org/Graphics/SVG/1.1/DTD/svg11.dtd">
<svg width="600pt" height="1038pt" viewBox="0 0 600 1038" version="1.1" xmlns="http://www.w3.org/2000/svg">
<g id="#222953ff">
<path fill="#222953" stroke="#222953" stroke-width="0.09375" opacity="1.00" d=" M 357.40 17.49 C 384.56 17.47 411.71 17.52 438.87 17.47 C 438.93 18.05 439.04 19.22 439.10 19.80 C 412.17 20.12 385.15 19.31 358.27 20.19 C 349.11 28.69 340.44 37.76 331.55 46.56 C 329.61 48.22 328.01 51.13 325.10 50.86 C 304.63 50.86 284.16 50.90 263.69 50.83 C 263.78 50.23 263.97 49.03 264.06 48.43 C 284.73 48.46 305.40 48.42 326.08 48.46 C 336.65 38.27 346.92 27.78 357.40 17.49 Z" />
<path fill="#222953" stroke="#222953" stroke-width="0.09375" opacity="1.00" d=" M 558.43 42.06 C 579.87 41.13 600.54 60.12 599.06 82.00 C 600.47 103.84 579.83 122.71 558.45 121.82 C 558.41 117.35 558.42 112.87 558.42 108.40 C 548.01 105.92 537.96 99.34 535.17 88.44 C 507.43 88.22 479.69 88.40 451.96 88.35 C 449.38 88.72 447.74 86.46 446.06 84.94 C 440.03 78.81 433.84 72.83 427.85 66.66 C 423.82 66.54 419.80 66.57 415.77 66.59 C 415.73 68.04 415.68 69.50 415.65 70.95 C 381.28 70.93 346.91 71.00 312.54 70.92 C 312.70 72.30 312.68 73.70 312.37 75.06 C 310.88 73.75 309.49 72.34 308.07 70.96 C 243.69 70.93 179.31 70.96 114.93 70.97 C 113.61 70.99 112.21 70.77 111.32 69.69 C 104.78 63.39 98.52 56.79 91.92 50.53 C 64.65 50.44 37.36 50.62 10.09 50.45 C 7.75 50.46 9.06 47.28 8.58 45.86 C 35.73 45.78 62.87 45.90 90.01 45.80 C 91.97 45.82 94.19 45.77 95.54 47.46 C 101.23 53.09 106.83 58.82 112.57 64.41 C 114.87 67.17 118.75 66.06 121.89 66.43 C 124.01 69.46 127.88 68.25 131.00 68.46 C 185.08 68.39 239.16 68.47 293.25 68.42 C 293.27 66.24 293.30 64.07 293.33 61.90 C 337.56 61.71 381.79 61.91 426.02 61.80 C 427.69 61.84 429.63 61.76 430.84 63.16 C 437.74 69.92 444.60 76.75 451.40 83.61 C 478.59 83.65 505.79 83.68 532.97 83.61 C 535.03 83.75 534.23 80.93 534.67 79.67 C 535.26 67.24 546.33 57.33 558.42 56.30 C 558.42 51.55 558.42 46.81 558.43 42.06 M 560.15 43.87 C 560.04 48.02 560.07 52.18 560.32 56.33 C 573.89 56.45 586.21 68.23 585.77 82.00 C 586.13 95.76 573.80 107.33 560.31 107.60 C 560.07 111.76 560.04 115.93 560.15 120.09 C 572.39 119.78 584.47 113.52 591.23 103.22 C 599.26 91.63 599.89 75.45 592.83 63.25 C 586.42 51.57 573.44 43.99 560.15 43.87 M 537.42 83.04 C 541.90 83.27 542.56 87.31 538.61 89.28 C 541.63 97.68 549.58 103.58 558.39 104.57 C 558.40 103.68 558.41 101.91 558.41 101.03 C 549.99 99.71 541.66 93.15 541.70 84.03 C 539.33 73.63 548.42 64.13 558.36 62.90 C 558.37 62.01 558.40 60.22 558.42 59.33 C 546.57 60.34 536.77 71.05 537.42 83.04 M 560.05 59.47 C 560.07 60.28 560.12 61.88 560.15 62.68 C 571.56 63.28 580.89 73.79 579.08 85.31 C 575.87 84.92 572.67 84.43 569.50 83.81 C 569.32 78.33 565.85 73.62 560.28 72.77 C 560.02 78.73 560.07 84.69 560.23 90.65 C 561.76 90.47 563.29 90.28 564.83 90.10 C 566.53 92.89 568.05 95.79 569.30 98.81 C 566.28 99.72 563.23 100.51 560.16 101.20 C 560.13 102.02 560.08 103.64 560.06 104.45 C 572.53 104.88 583.64 93.38 582.83 80.95 C 582.50 69.22 571.85 59.02 560.05 59.47 M 558.33 90.88 C 558.48 84.92 558.49 78.96 558.31 73.00 C 549.26 75.31 549.28 88.59 558.33 90.88 Z" />
<path fill="#222953" stroke="#222953" stroke-width="0.09375" opacity="1.00" d=" M 317.11 80.26 C 317.61 79.91 318.60 79.19 319.10 78.83 C 321.03 80.81 322.94 82.81 324.84 84.82 C 324.37 85.25 323.44 86.12 322.97 86.55 C 320.98 84.48 319.03 82.39 317.11 80.26 Z" />
<path fill="#222953" stroke="#222953" stroke-width="0.09375" opacity="1.00" d=" M 568.56 85.11 C 571.73 86.10 574.87 87.20 577.98 88.39 C 576.53 91.44 574.52 94.19 572.06 96.51 C 569.91 94.15 567.88 91.67 565.99 89.10 C 566.84 87.77 567.70 86.44 568.56 85.11 Z" />
<path fill="#222953" stroke="#222953" stroke-width="0.09375" opacity="1.00" d=" M 328.10 91.75 C 331.89 89.83 333.73 94.75 336.08 96.83 C 335.55 97.17 334.50 97.84 333.97 98.18 C 331.94 96.10 329.95 93.98 328.10 91.75 Z" />
<path fill="#222953" stroke="#222953" stroke-width="0.09375" opacity="1.00" d=" M 341.23 102.22 C 342.22 103.22 343.20 104.22 344.19 105.22 C 345.63 105.30 347.07 105.38 348.52 105.47 C 348.55 106.07 348.60 107.26 348.63 107.86 C 346.80 107.90 344.98 107.93 343.17 107.96 C 341.98 106.67 340.80 105.38 339.61 104.10 C 340.02 103.63 340.83 102.69 341.23 102.22 Z" />
<path fill="#222953" stroke="#222953" stroke-width="0.09375" opacity="1.00" d=" M 0.00 106.52 C 3.22 103.96 6.57 105.51 8.78 108.52 C 17.97 108.66 27.17 108.63 36.37 108.54 C 38.35 105.37 43.87 103.12 45.33 107.97 C 44.18 112.25 41.03 116.76 43.85 121.12 C 46.59 124.67 42.82 128.20 42.80 131.93 C 42.58 297.93 42.97 463.94 42.64 629.94 L 41.64 630.36 C 41.71 463.30 41.47 296.24 41.68 129.18 C 39.35 127.54 37.22 124.93 34.08 125.20 C 25.60 125.17 17.12 125.15 8.65 125.31 C 6.35 127.95 3.21 128.76 0.00 127.24 L 0.00 123.50 C 3.37 119.49 3.25 113.83 0.00 109.79 L 0.00 106.52 M 3.49 113.76 C 3.55 115.72 3.60 117.68 3.67 119.64 C 5.40 120.93 7.03 122.35 8.50 123.93 C 17.92 124.21 27.34 124.14 36.76 123.97 C 38.28 122.39 39.90 120.91 41.61 119.54 C 41.62 117.56 41.65 115.58 41.65 113.61 C 39.99 112.42 38.37 111.16 36.81 109.84 C 28.19 109.69 19.57 109.76 10.94 109.75 C 7.85 109.49 5.84 112.24 3.49 113.76 Z" />
<path fill="#222953" stroke="#222953" stroke-width="0.09375" opacity="1.00" d=" M 357.35 105.35 C 360.41 105.35 363.47 105.35 366.54 105.37 C 366.58 106.00 366.67 107.25 366.71 107.88 C 363.54 107.94 360.38 107.95 357.22 107.89 C 357.25 107.26 357.31 105.98 357.35 105.35 Z" />
<path fill="#222953" stroke="#222953" stroke-width="0.09375" opacity="1.00" d=" M 375.33 105.34 C 378.39 105.34 381.45 105.35 384.52 105.38 C 384.56 106.00 384.65 107.23 384.69 107.85 C 381.52 107.91 378.36 107.93 375.20 107.90 C 375.23 107.26 375.29 105.98 375.33 105.34 Z" />
<path fill="#222953" stroke="#222953" stroke-width="0.09375" opacity="1.00" d=" M 393.34 105.35 C 396.40 105.35 399.46 105.35 402.53 105.38 C 402.57 106.00 402.65 107.24 402.70 107.86 C 399.53 107.90 396.37 107.91 393.21 107.87 C 393.25 107.24 393.31 105.98 393.34 105.35 Z" />
<path fill="#222953" stroke="#222953" stroke-width="0.09375" opacity="1.00" d=" M 411.33 105.34 C 414.39 105.34 417.45 105.35 420.51 105.38 C 420.55 106.00 420.63 107.24 420.67 107.85 C 417.51 107.90 414.35 107.91 411.19 107.88 C 411.23 107.24 411.29 105.98 411.33 105.34 Z" />
<path fill="#222953" stroke="#222953" stroke-width="0.09375" opacity="1.00" d=" M 429.36 105.35 C 432.41 105.35 435.46 105.35 438.51 105.38 C 438.56 106.00 438.64 107.24 438.68 107.86 C 435.53 107.90 432.38 107.91 429.24 107.87 C 429.27 107.24 429.33 105.98 429.36 105.35 Z" />
<path fill="#222953" stroke="#222953" stroke-width="0.09375" opacity="1.00" d=" M 447.35 105.34 C 450.40 105.34 453.45 105.35 456.50 105.38 C 456.55 106.00 456.63 107.24 456.67 107.85 C 453.52 107.90 450.37 107.91 447.22 107.87 C 447.25 107.24 447.31 105.98 447.35 105.34 Z" />
<path fill="#222953" stroke="#222953" stroke-width="0.09375" opacity="1.00" d=" M 465.37 105.35 C 468.44 105.35 471.52 105.35 474.60 105.37 C 474.63 105.99 474.69 107.24 474.72 107.86 C 471.56 107.90 468.40 107.90 465.25 107.87 C 465.28 107.24 465.34 105.98 465.37 105.35 Z" />
<path fill="#222953" stroke="#222953" stroke-width="0.09375" opacity="1.00" d=" M 483.35 105.35 C 486.41 105.35 489.48 105.35 492.55 105.37 C 492.59 105.99 492.68 107.24 492.72 107.86 C 489.55 107.90 486.39 107.91 483.23 107.87 C 483.26 107.24 483.32 105.98 483.35 105.35 Z" />
<path fill="#222953" stroke="#222953" stroke-width="0.09375" opacity="1.00" d=" M 501.34 105.35 C 504.44 105.35 507.54 105.35 510.64 105.36 C 510.67 105.99 510.74 107.24 510.77 107.87 C 507.58 107.90 504.40 107.91 501.22 107.87 C 501.25 107.24 501.31 105.98 501.34 105.35 Z" />
<path fill="#222953" stroke="#222953" stroke-width="0.09375" opacity="1.00" d=" M 519.36 105.35 C 522.44 105.35 525.52 105.35 528.61 105.36 C 528.64 105.99 528.71 107.24 528.74 107.86 C 525.57 107.90 522.40 107.91 519.23 107.87 C 519.26 107.24 519.32 105.98 519.36 105.35 Z" />
<path fill="#222953" stroke="#222953" stroke-width="0.09375" opacity="1.00" d=" M 537.34 105.36 C 540.66 105.35 543.99 105.34 547.32 105.34 C 547.61 394.75 547.39 684.17 547.46 973.58 C 562.59 973.66 577.72 973.56 592.85 973.64 C 592.83 975.15 592.81 976.67 592.79 978.21 C 565.85 978.28 538.91 978.15 511.97 978.28 C 509.72 978.30 507.25 978.17 505.66 976.35 C 499.41 970.29 493.46 963.93 487.07 958.02 C 482.17 958.46 477.81 955.85 473.02 955.65 C 418.12 955.75 363.21 955.62 308.31 955.72 C 308.27 957.87 308.24 960.04 308.20 962.22 C 262.81 962.27 217.43 962.26 172.04 962.23 C 166.17 956.34 160.12 950.64 154.38 944.62 C 152.37 942.60 150.24 940.02 147.06 940.45 C 120.49 940.47 93.91 940.49 67.34 940.44 C 67.91 954.29 56.95 966.73 43.14 967.89 C 43.15 972.62 43.14 977.36 43.08 982.10 C 21.96 982.85 1.57 964.58 2.45 943.00 C 0.85 923.23 17.36 905.01 36.70 902.74 C 38.84 902.75 40.99 902.86 43.13 902.97 C 43.19 907.20 43.18 911.44 43.15 915.68 C 53.61 918.24 63.47 924.89 66.51 935.73 C 94.98 935.81 123.45 935.70 151.92 935.78 C 158.37 942.10 164.79 948.46 171.10 954.92 C 174.65 959.24 180.77 957.10 185.58 957.54 C 185.75 956.08 185.92 954.63 186.09 953.20 C 220.28 953.19 254.46 953.19 288.65 953.20 C 288.62 951.93 288.60 950.67 288.59 949.43 C 291.18 951.05 293.64 953.45 296.94 953.20 C 357.62 953.18 418.31 953.18 479.00 953.14 C 482.41 953.30 486.08 952.54 489.33 953.78 C 496.55 959.74 502.31 967.39 509.65 973.22 C 521.76 974.19 534.03 973.30 546.21 973.61 C 546.30 685.06 546.28 396.51 546.26 107.95 C 543.23 107.91 540.21 107.89 537.20 107.84 C 537.23 107.22 537.31 105.98 537.34 105.36 M 13.17 917.20 C 3.10 928.36 0.86 945.75 7.77 959.10 C 13.89 971.61 27.23 980.03 41.15 980.31 C 41.27 976.18 41.27 972.06 41.12 967.94 C 28.02 967.38 15.76 956.52 15.85 942.99 C 14.87 929.02 27.33 916.73 41.09 916.59 C 41.30 912.37 41.31 908.14 41.14 903.93 C 30.54 904.47 20.16 909.13 13.17 917.20 M 19.09 946.03 C 20.61 956.61 30.48 964.35 40.89 964.94 C 41.02 963.74 41.11 962.55 41.18 961.37 C 29.83 960.82 20.59 950.21 22.58 938.79 C 25.81 939.17 29.03 939.72 32.21 940.45 C 32.27 945.85 35.63 950.43 41.06 951.41 C 41.33 945.52 41.30 939.63 41.09 933.76 C 35.57 935.27 34.11 929.35 32.11 925.58 C 35.03 924.49 38.03 923.63 41.07 922.96 C 41.12 922.11 41.21 920.41 41.26 919.56 C 27.79 919.40 16.31 932.70 19.09 946.03 M 43.16 919.56 C 43.14 920.45 43.12 922.22 43.11 923.10 C 51.51 924.32 58.95 930.65 60.23 939.26 C 60.69 937.54 61.45 935.95 62.94 934.91 C 59.95 926.46 51.98 920.57 43.16 919.56 M 43.22 933.27 C 43.08 939.21 43.08 945.16 43.24 951.11 C 52.28 948.81 52.29 935.54 43.22 933.27 M 60.46 940.36 C 61.45 950.79 53.19 959.97 43.05 961.32 C 43.09 962.47 43.16 963.62 43.24 964.79 C 55.20 963.67 65.18 952.65 64.01 940.48 C 62.83 940.42 61.64 940.38 60.46 940.36 Z" />
<path fill="#222953" stroke="#222953" stroke-width="0.09375" opacity="1.00" d=" M 100.20 123.91 C 107.33 123.88 114.47 123.79 121.60 123.99 C 121.58 125.51 121.56 127.04 121.54 128.57 C 115.97 128.59 110.40 128.57 104.83 128.61 C 104.77 138.19 104.80 147.77 104.82 157.34 C 103.27 157.34 101.73 157.34 100.19 157.33 C 100.23 146.19 100.21 135.05 100.20 123.91 Z" />
<path fill="#222953" stroke="#222953" stroke-width="0.09375" opacity="1.00" d=" M 245.81 123.90 C 253.06 123.89 260.32 123.80 267.57 123.97 C 267.45 135.13 267.68 146.29 267.45 157.44 C 265.86 157.39 264.28 157.33 262.70 157.28 C 262.56 147.69 262.87 138.10 262.54 128.52 C 257.01 128.61 251.49 128.59 245.97 128.59 C 245.91 127.02 245.86 125.46 245.81 123.90 Z" />
<path fill="#222953" stroke="#222953" stroke-width="0.09375" opacity="1.00" d=" M 107.64 133.09 C 123.69 133.28 139.78 132.66 155.82 133.42 C 154.66 134.12 153.46 134.82 152.04 134.64 C 137.88 134.60 123.72 134.67 109.56 134.59 C 109.44 138.14 109.41 141.69 109.38 145.24 L 107.68 145.29 C 107.60 141.22 107.61 137.16 107.64 133.09 Z" />
<path fill="#222953" stroke="#222953" stroke-width="0.09375" opacity="1.00" d=" M 211.94 133.26 C 227.85 132.86 243.76 133.19 259.67 133.08 C 259.25 137.35 260.88 142.19 258.41 146.00 C 257.98 142.23 258.06 138.43 258.07 134.65 C 243.11 134.61 228.16 134.62 213.20 134.65 C 212.89 134.30 212.26 133.61 211.94 133.26 Z" />
<path fill="#222953" stroke="#222953" stroke-width="0.09375" opacity="1.00" d=" M 555.62 320.58 C 557.85 324.09 561.26 327.47 560.85 331.97 C 560.79 340.66 560.84 349.36 560.83 358.05 C 560.96 363.26 557.52 367.77 557.71 373.00 C 557.82 448.01 557.57 523.03 557.84 598.04 C 562.60 610.52 560.30 623.98 560.85 637.04 C 561.26 641.53 557.84 644.90 555.61 648.42 C 555.47 539.14 555.45 429.86 555.62 320.58 Z" />
<path fill="#222953" stroke="#222953" stroke-width="0.09375" opacity="1.00" d=" M 100.20 335.13 C 101.73 335.12 103.27 335.12 104.81 335.12 C 104.80 344.68 104.78 354.24 104.81 363.80 C 110.41 363.82 116.01 363.73 121.61 363.93 C 121.58 365.47 121.56 367.00 121.53 368.55 C 114.43 368.57 107.32 368.55 100.22 368.56 C 100.19 357.42 100.23 346.27 100.20 335.13 Z" />
<path fill="#222953" stroke="#222953" stroke-width="0.09375" opacity="1.00" d=" M 262.69 335.12 C 264.31 335.12 265.94 335.14 267.57 335.16 C 267.52 346.29 267.55 357.42 267.55 368.55 C 260.35 368.57 253.15 368.55 245.95 368.57 C 245.90 366.99 245.85 365.41 245.80 363.84 C 251.43 363.79 257.06 363.80 262.69 363.82 C 262.67 354.25 262.66 344.68 262.69 335.12 Z" />
<path fill="#222953" stroke="#222953" stroke-width="0.09375" opacity="1.00" d=" M 527.23 349.13 C 532.25 346.17 536.16 354.90 530.81 356.80 C 525.97 358.90 522.68 351.38 527.23 349.13 Z" />
<path fill="#222953" stroke="#222953" stroke-width="0.09375" opacity="1.00" d=" M 28.21 391.00 C 29.01 382.75 25.36 372.46 33.53 366.90 C 33.53 460.74 33.61 554.58 33.49 648.42 C 31.24 644.91 27.75 641.56 28.22 637.04 C 28.78 623.97 26.43 610.49 31.28 598.02 C 31.55 534.02 31.27 470.00 31.42 405.99 C 31.76 400.68 27.20 396.43 28.21 391.00 Z" />
<path fill="#222953" stroke="#222953" stroke-width="0.09375" opacity="1.00" d=" M 527.97 371.05 C 529.48 369.85 530.85 372.59 529.53 373.57 C 528.00 374.75 526.62 372.02 527.97 371.05 Z" />
<path fill="#222953" stroke="#222953" stroke-width="0.09375" opacity="1.00" d=" M 527.95 376.23 C 529.46 375.03 530.89 377.71 529.53 378.70 C 528.02 379.88 526.57 377.20 527.95 376.23 Z" />
<path fill="#222953" stroke="#222953" stroke-width="0.09375" opacity="1.00" d=" M 528.38 380.41 C 533.02 379.40 527.36 385.05 528.38 380.41 Z" />
<path fill="#222953" stroke="#222953" stroke-width="0.09375" opacity="1.00" d=" M 527.99 386.38 C 529.52 385.15 530.85 387.91 529.51 388.88 C 527.97 390.09 526.62 387.32 527.99 386.38 Z" />
<path fill="#222953" stroke="#222953" stroke-width="0.09375" opacity="1.00" d=" M 55.85 389.90 C 57.92 387.11 62.76 385.87 64.86 389.27 C 65.39 394.65 57.28 394.19 55.85 389.90 Z" />
<path fill="#222953" stroke="#222953" stroke-width="0.09375" opacity="1.00" d=" M 527.99 391.50 C 529.52 390.29 530.83 393.05 529.50 394.01 C 527.96 395.21 526.62 392.44 527.99 391.50 Z" />
<path fill="#222953" stroke="#222953" stroke-width="0.09375" opacity="1.00" d=" M 528.38 396.07 C 533.03 395.04 527.34 400.69 528.38 396.07 Z" />
<path fill="#222953" stroke="#222953" stroke-width="0.09375" opacity="1.00" d=" M 527.97 401.02 C 529.49 399.81 530.83 402.55 529.53 403.54 C 528.00 404.72 526.63 401.99 527.97 401.02 Z" />
<path fill="#222953" stroke="#222953" stroke-width="0.09375" opacity="1.00" d=" M 61.94 408.65 C 58.40 408.20 59.33 404.04 59.87 401.65 C 61.45 403.66 61.73 406.19 61.94 408.65 Z" />
<path fill="#222953" stroke="#222953" stroke-width="0.09375" opacity="1.00" d=" M 527.95 407.17 C 529.45 405.97 530.87 408.66 529.54 409.66 C 528.03 410.84 526.59 408.16 527.95 407.17 Z" />
<path fill="#222953" stroke="#222953" stroke-width="0.09375" opacity="1.00" d=" M 528.36 411.41 C 533.00 410.38 527.36 416.04 528.36 411.41 Z" />
<path fill="#222953" stroke="#222953" stroke-width="0.09375" opacity="1.00" d=" M 60.31 412.83 C 62.18 412.21 63.08 415.36 61.13 415.78 C 59.27 416.38 58.44 413.28 60.31 412.83 Z" />
<path fill="#222953" stroke="#222953" stroke-width="0.09375" opacity="1.00" d=" M 527.98 416.34 C 529.51 415.12 530.85 417.88 529.50 418.85 C 527.97 420.05 526.62 417.29 527.98 416.34 Z" />
<path fill="#222953" stroke="#222953" stroke-width="0.09375" opacity="1.00" d=" M 60.31 416.89 C 62.15 416.31 63.09 419.44 61.14 419.86 C 59.29 420.43 58.43 417.35 60.31 416.89 Z" />
<path fill="#222953" stroke="#222953" stroke-width="0.09375" opacity="1.00" d=" M 59.74 421.03 C 60.20 421.00 61.11 420.95 61.57 420.92 C 61.58 422.63 61.61 424.33 61.64 426.05 C 61.14 425.93 60.15 425.69 59.65 425.57 C 59.69 424.05 59.72 422.54 59.74 421.03 Z" />
<path fill="#222953" stroke="#222953" stroke-width="0.09375" opacity="1.00" d=" M 528.00 421.48 C 529.54 420.26 530.83 423.03 529.51 424.00 C 527.97 425.21 526.64 422.42 528.00 421.48 Z" />
<path fill="#222953" stroke="#222953" stroke-width="0.09375" opacity="1.00" d=" M 528.38 426.98 C 533.02 425.97 527.35 431.61 528.38 426.98 Z" />
<path fill="#222953" stroke="#222953" stroke-width="0.09375" opacity="1.00" d=" M 59.91 429.07 C 64.55 428.07 58.89 433.68 59.91 429.07 Z" />
<path fill="#222953" stroke="#222953" stroke-width="0.09375" opacity="1.00" d=" M 527.55 431.80 C 528.08 431.64 529.15 431.31 529.68 431.15 C 529.75 432.35 529.80 433.57 529.84 434.79 C 529.31 434.82 528.26 434.87 527.73 434.90 C 527.68 434.12 527.60 432.57 527.55 431.80 Z" />
<path fill="#222953" stroke="#222953" stroke-width="0.09375" opacity="1.00" d=" M 59.89 435.19 C 64.57 434.17 58.87 439.78 59.89 435.19 Z" />
<path fill="#222953" stroke="#222953" stroke-width="0.09375" opacity="1.00" d=" M 527.97 437.15 C 529.48 435.96 530.84 438.69 529.53 439.67 C 527.99 440.85 526.62 438.12 527.97 437.15 Z" />
<path fill="#222953" stroke="#222953" stroke-width="0.09375" opacity="1.00" d=" M 59.90 439.26 C 64.55 438.20 58.89 443.88 59.90 439.26 Z" />
<path fill="#222953" stroke="#222953" stroke-width="0.09375" opacity="1.00" d=" M 527.97 442.29 C 529.49 441.08 530.85 443.81 529.50 444.79 C 527.98 445.98 526.59 443.25 527.97 442.29 Z" />
<path fill="#222953" stroke="#222953" stroke-width="0.09375" opacity="1.00" d=" M 60.06 446.22 L 60.79 446.21 C 70.85 446.95 80.93 446.57 91.00 446.65 C 223.33 446.65 355.67 446.65 488.00 446.65 C 501.88 446.50 515.78 447.00 529.65 446.31 C 529.52 452.14 529.20 458.00 530.05 463.79 C 529.48 463.66 528.36 463.39 527.79 463.25 C 520.34 461.26 512.58 462.48 504.99 462.28 C 488.85 462.60 472.68 461.62 456.57 462.70 C 456.57 501.60 456.53 540.49 456.59 579.38 C 480.18 579.43 503.76 579.40 527.35 579.40 C 527.48 578.62 527.74 577.08 527.87 576.30 C 528.35 576.17 529.31 575.91 529.79 575.77 C 529.64 582.12 529.21 588.48 529.64 594.82 C 517.77 594.21 505.88 594.65 494.00 594.53 C 349.08 594.65 204.15 594.27 59.22 594.73 C 59.26 594.15 59.32 593.01 59.35 592.44 C 59.63 589.47 59.61 586.50 59.39 583.54 C 59.31 580.92 59.27 578.29 59.25 575.68 C 59.75 575.81 60.74 576.07 61.24 576.20 C 61.36 577.00 61.60 578.60 61.72 579.39 C 67.17 579.41 72.62 579.42 78.08 579.39 C 78.13 540.51 78.13 501.63 78.08 462.76 C 71.89 462.67 65.67 462.49 59.52 463.40 C 59.42 461.77 59.31 460.14 59.25 458.52 C 59.84 454.44 60.16 450.33 60.06 446.22 M 66.08 450.77 C 65.95 453.99 65.90 457.21 65.91 460.43 C 67.39 460.45 68.88 460.46 70.37 460.47 C 70.38 457.23 70.37 453.99 70.34 450.75 C 68.92 450.75 67.50 450.75 66.08 450.77 M 76.62 450.79 C 76.57 453.97 76.56 457.15 76.54 460.34 C 77.94 460.44 79.35 460.55 80.75 460.66 C 80.86 457.35 80.88 454.04 80.84 450.74 C 79.43 450.75 78.02 450.77 76.62 450.79 M 85.89 450.76 C 85.88 454.00 85.88 457.24 85.90 460.48 C 87.37 460.47 88.84 460.47 90.32 460.46 C 90.34 457.23 90.34 454.00 90.29 450.77 C 88.82 450.76 87.36 450.76 85.89 450.76 M 96.55 450.79 C 96.51 454.03 96.51 457.26 96.52 460.51 C 98.07 460.47 99.61 460.43 101.15 460.39 C 101.14 457.18 101.03 453.97 100.83 450.76 C 99.40 450.76 97.97 450.77 96.55 450.79 M 106.16 450.68 C 106.11 453.91 106.09 457.15 106.04 460.38 C 107.52 460.43 109.00 460.48 110.49 460.53 C 110.54 457.33 110.54 454.13 110.55 450.94 C 109.08 450.84 107.62 450.75 106.16 450.68 M 116.68 450.75 C 116.65 453.98 116.65 457.22 116.65 460.45 C 118.14 460.45 119.64 460.45 121.13 460.46 C 121.15 457.23 121.15 454.01 121.14 450.79 C 119.65 450.77 118.17 450.76 116.68 450.75 M 125.29 450.83 C 125.27 454.04 125.28 457.26 125.35 460.48 C 126.80 460.49 128.25 460.51 129.70 460.53 C 129.77 457.28 129.79 454.02 129.77 450.77 C 128.27 450.78 126.78 450.80 125.29 450.83 M 136.00 450.84 C 135.88 454.03 135.84 457.22 135.85 460.42 C 137.37 460.44 138.89 460.47 140.41 460.49 C 140.41 457.24 140.41 453.99 140.40 450.75 C 138.93 450.77 137.46 450.80 136.00 450.84 M 145.12 450.77 C 144.95 454.00 144.89 457.23 144.91 460.47 C 146.44 460.45 147.97 460.44 149.49 460.42 C 149.47 457.19 149.46 453.97 149.41 450.76 C 147.97 450.75 146.54 450.76 145.12 450.77 M 155.64 450.79 C 155.61 454.01 155.61 457.24 155.62 460.47 C 157.13 460.46 158.63 460.46 160.13 460.46 C 160.14 457.21 160.06 453.97 159.87 450.74 C 158.46 450.75 157.05 450.76 155.64 450.79 M 166.80 450.76 C 166.78 454.00 166.78 457.24 166.81 460.49 C 168.26 460.47 169.73 460.46 171.19 460.45 C 171.22 457.22 171.21 454.00 171.20 450.78 C 169.73 450.76 168.26 450.76 166.80 450.76 M 177.31 450.82 C 177.29 454.04 177.29 457.26 177.35 460.48 C 178.80 460.49 180.25 460.50 181.70 460.52 C 181.77 457.27 181.77 454.02 181.73 450.78 C 180.26 450.78 178.78 450.80 177.31 450.82 M 190.63 450.77 C 190.60 454.00 190.60 457.24 190.61 460.48 C 192.11 460.46 193.62 460.44 195.13 460.42 C 195.14 457.20 195.09 453.98 194.90 450.78 C 193.48 450.76 192.05 450.76 190.63 450.77 M 201.30 450.77 C 201.28 454.01 201.28 457.26 201.31 460.51 C 202.75 460.50 204.20 460.50 205.64 460.49 C 205.70 457.27 205.70 454.06 205.68 450.84 C 204.22 450.81 202.76 450.78 201.30 450.77 M 210.46 450.88 C 210.47 454.07 210.47 457.27 210.50 460.47 C 211.91 460.49 213.32 460.51 214.73 460.54 C 214.79 457.26 214.79 453.98 214.75 450.71 C 213.32 450.76 211.89 450.82 210.46 450.88 M 221.28 450.73 C 221.25 453.99 221.25 457.25 221.30 460.52 C 222.71 460.50 224.13 460.48 225.55 460.47 C 225.59 457.27 225.59 454.07 225.61 450.88 C 224.16 450.82 222.72 450.77 221.28 450.73 M 230.72 450.75 C 230.69 453.99 230.68 457.23 230.69 460.48 C 232.18 460.47 233.66 460.45 235.15 460.45 C 235.16 457.22 235.16 454.00 235.16 450.79 C 233.68 450.77 232.20 450.76 230.72 450.75 M 241.34 450.83 C 241.33 454.04 241.33 457.26 241.37 460.49 C 242.79 460.49 244.22 460.49 245.65 460.50 C 245.68 457.26 245.69 454.03 245.69 450.80 C 244.24 450.80 242.79 450.81 241.34 450.83 M 250.16 450.74 C 250.12 453.99 250.11 457.23 250.09 460.48 C 251.53 460.47 252.96 460.45 254.41 460.44 C 254.42 457.22 254.41 454.00 254.37 450.79 C 252.97 450.76 251.56 450.75 250.16 450.74 M 260.70 450.77 C 260.66 454.00 260.65 457.23 260.67 460.47 C 262.10 460.47 263.54 460.47 264.98 460.47 C 264.95 457.23 264.94 453.99 264.91 450.76 C 263.50 450.75 262.10 450.76 260.70 450.77 M 269.71 450.75 C 269.69 454.00 269.69 457.24 269.71 460.49 C 271.20 460.47 272.70 460.45 274.20 460.43 C 274.22 457.21 274.22 454.00 274.21 450.78 C 272.71 450.76 271.21 450.76 269.71 450.75 M 280.32 450.80 C 280.31 454.03 280.32 457.26 280.35 460.49 C 281.79 460.49 283.22 460.50 284.66 460.51 C 284.73 457.27 284.74 454.04 284.72 450.82 C 283.25 450.80 281.78 450.80 280.32 450.80 M 291.30 450.79 C 291.27 454.02 291.27 457.26 291.32 460.49 C 292.77 460.49 294.22 460.49 295.67 460.49 C 295.71 457.26 295.71 454.03 295.69 450.81 C 294.22 450.79 292.76 450.79 291.30 450.79 M 302.05 450.78 C 301.88 453.98 301.85 457.20 301.86 460.42 C 303.38 460.44 304.91 460.46 306.45 460.48 C 306.46 457.24 306.46 454.01 306.41 450.78 C 304.95 450.77 303.50 450.77 302.05 450.78 M 315.07 450.75 C 314.92 453.98 314.88 457.22 314.90 460.46 C 316.40 460.46 317.90 460.45 319.41 460.45 C 319.42 457.23 319.42 454.01 319.37 450.79 C 317.93 450.77 316.50 450.75 315.07 450.75 M 325.55 450.76 C 325.50 453.99 325.50 457.23 325.49 460.47 C 327.04 460.45 328.60 460.44 330.15 460.41 C 330.16 457.21 330.12 454.01 329.95 450.81 C 328.47 450.79 327.01 450.77 325.55 450.76 M 334.89 450.76 C 334.88 454.00 334.88 457.23 334.89 460.47 C 336.33 460.47 337.78 460.47 339.23 460.47 C 339.26 457.23 339.26 454.00 339.24 450.76 C 337.78 450.76 336.33 450.76 334.89 450.76 M 345.56 450.78 C 345.53 453.97 345.52 457.16 345.50 460.36 C 346.91 460.45 348.32 460.54 349.73 460.64 C 349.86 457.35 349.88 454.06 349.83 450.77 C 348.40 450.76 346.98 450.76 345.56 450.78 M 355.16 450.77 C 355.13 453.98 355.11 457.19 355.07 460.41 C 356.52 460.43 357.98 460.43 359.45 460.45 C 359.44 457.22 359.43 453.99 359.38 450.77 C 357.97 450.76 356.57 450.76 355.16 450.77 M 365.64 450.77 C 365.59 454.00 365.58 457.23 365.60 460.46 C 367.10 460.45 368.61 460.44 370.12 460.44 C 370.13 457.21 370.12 453.99 370.08 450.78 C 368.59 450.77 367.11 450.76 365.64 450.77 M 374.38 450.84 C 374.39 454.05 374.40 457.26 374.42 460.47 C 375.84 460.48 377.26 460.50 378.68 460.52 C 378.75 457.27 378.75 454.02 378.72 450.77 C 377.27 450.78 375.82 450.81 374.38 450.84 M 385.18 450.74 C 385.12 453.97 385.10 457.21 385.07 460.45 C 386.51 460.45 387.96 460.44 389.40 460.43 C 389.38 457.21 389.37 453.99 389.35 450.78 C 387.95 450.76 386.56 450.74 385.18 450.74 M 394.12 450.75 C 394.10 453.99 394.08 457.23 394.06 460.47 C 395.54 460.46 397.02 460.44 398.50 460.42 C 398.50 457.20 398.49 453.99 398.43 450.78 C 396.99 450.76 395.55 450.75 394.12 450.75 M 404.61 450.77 C 404.59 454.00 404.59 457.24 404.59 460.47 C 406.11 460.46 407.62 460.44 409.14 460.43 C 409.16 457.21 409.15 454.00 409.10 450.78 C 407.60 450.77 406.10 450.77 404.61 450.77 M 415.73 450.76 C 415.69 454.00 415.69 457.24 415.71 460.49 C 417.18 460.48 418.66 460.47 420.15 460.46 C 420.16 457.23 420.16 453.99 420.15 450.76 C 418.67 450.75 417.20 450.75 415.73 450.76 M 426.30 450.83 C 426.29 454.05 426.30 457.27 426.36 460.49 C 427.79 460.49 429.23 460.49 430.67 460.50 C 430.72 457.26 430.72 454.02 430.70 450.79 C 429.23 450.79 427.76 450.81 426.30 450.83 M 439.29 450.75 C 439.27 454.00 439.27 457.25 439.31 460.51 C 440.75 460.50 442.20 460.49 443.65 460.49 C 443.71 457.27 443.71 454.06 443.68 450.85 C 442.21 450.81 440.75 450.77 439.29 450.75 M 449.79 450.77 C 449.78 454.00 449.78 457.23 449.80 460.47 C 451.32 460.46 452.84 460.46 454.37 460.46 C 454.37 457.23 454.37 454.00 454.32 450.77 C 452.81 450.76 451.30 450.76 449.79 450.77 M 459.30 450.75 C 459.28 454.00 459.27 457.25 459.31 460.51 C 460.73 460.50 462.16 460.49 463.59 460.49 C 463.63 457.27 463.63 454.07 463.62 450.86 C 462.17 450.81 460.73 450.77 459.30 450.75 M 469.81 450.78 C 469.79 454.01 469.79 457.23 469.82 460.46 C 471.29 460.46 472.77 460.46 474.25 460.47 C 474.27 457.23 474.27 453.99 474.26 450.76 C 472.77 450.76 471.28 450.77 469.81 450.78 M 479.36 450.83 C 479.35 454.04 479.35 457.26 479.39 460.48 C 480.80 460.48 482.23 460.49 483.66 460.50 C 483.69 457.26 483.69 454.02 483.67 450.79 C 482.23 450.79 480.79 450.80 479.36 450.83 M 489.85 450.79 C 489.84 454.00 489.84 457.21 489.86 460.42 C 491.36 460.44 492.87 460.46 494.38 460.48 C 494.38 457.24 494.38 454.00 494.36 450.76 C 492.85 450.76 491.35 450.77 489.85 450.79 M 498.71 450.76 C 498.69 453.99 498.69 457.23 498.70 460.47 C 500.18 460.46 501.66 460.45 503.15 460.45 C 503.16 457.22 503.16 454.00 503.16 450.78 C 501.67 450.77 500.19 450.76 498.71 450.76 M 509.36 450.83 C 509.34 454.04 509.35 457.26 509.38 460.48 C 510.80 460.48 512.23 460.49 513.66 460.50 C 513.70 457.26 513.69 454.02 513.68 450.79 C 512.23 450.79 510.79 450.81 509.36 450.83 M 518.38 450.83 C 518.37 454.05 518.38 457.26 518.40 460.48 C 519.83 460.49 521.26 460.50 522.70 460.52 C 522.77 457.27 522.77 454.02 522.73 450.77 C 521.27 450.78 519.82 450.80 518.38 450.83 M 208.43 462.32 C 208.51 501.34 207.82 540.41 208.79 579.40 C 248.19 579.40 287.59 579.42 326.99 579.39 C 327.05 540.50 326.87 501.60 327.08 462.71 C 287.58 461.73 247.97 462.47 208.43 462.32 M 332.99 461.99 C 332.98 501.00 333.00 540.01 332.98 579.02 C 372.33 579.06 411.67 579.05 451.02 579.02 C 451.05 540.01 451.05 501.00 451.02 461.99 C 411.68 461.95 372.33 461.91 332.99 461.99 M 83.09 480.00 C 83.08 507.66 83.07 535.33 83.08 563.00 C 83.04 568.47 82.74 573.99 83.75 579.41 C 123.17 579.39 162.59 579.43 202.01 579.39 C 202.01 540.68 202.06 501.96 201.98 463.24 C 162.55 463.24 123.12 463.35 83.69 463.19 C 82.62 468.73 83.13 474.39 83.09 480.00 M 65.91 581.56 C 65.92 584.81 65.92 588.07 65.93 591.33 C 67.40 591.35 68.87 591.37 70.35 591.39 C 70.37 588.11 70.38 584.84 70.39 581.57 C 68.90 581.55 67.41 581.55 65.91 581.56 M 76.56 581.67 C 76.56 584.90 76.57 588.13 76.61 591.37 C 78.03 591.37 79.45 591.37 80.88 591.37 C 80.87 588.02 80.86 584.68 80.78 581.35 C 79.37 581.44 77.96 581.55 76.56 581.67 M 85.91 581.54 C 85.88 584.82 85.88 588.10 85.89 591.38 C 87.37 591.37 88.84 591.35 90.32 591.35 C 90.36 588.04 90.33 584.73 90.21 581.44 C 88.78 581.46 87.34 581.49 85.91 581.54 M 96.50 581.64 C 96.51 584.88 96.52 588.13 96.54 591.38 C 98.07 591.36 99.60 591.34 101.14 591.32 C 101.17 587.99 101.06 584.67 100.79 581.37 C 99.36 581.45 97.93 581.54 96.50 581.64 M 106.06 581.63 C 106.10 584.85 106.11 588.08 106.10 591.31 C 107.54 591.36 108.98 591.41 110.42 591.46 C 110.54 588.12 110.56 584.77 110.48 581.43 C 109.00 581.49 107.53 581.55 106.06 581.63 M 125.38 581.47 C 125.28 584.74 125.27 588.01 125.26 591.29 C 126.77 591.31 128.28 591.34 129.79 591.36 C 129.79 588.06 129.77 584.76 129.68 581.47 C 128.25 581.46 126.81 581.46 125.38 581.47 M 135.84 581.62 C 135.85 584.86 135.87 588.10 135.88 591.34 C 137.38 591.35 138.89 591.37 140.39 591.39 C 140.41 588.09 140.42 584.80 140.42 581.52 C 138.89 581.53 137.36 581.58 135.84 581.62 M 144.92 581.57 C 144.91 584.82 144.92 588.06 144.94 591.31 C 146.44 591.34 147.93 591.38 149.43 591.42 C 149.46 588.12 149.47 584.82 149.47 581.52 C 147.95 581.52 146.44 581.54 144.92 581.57 M 177.39 581.50 C 177.29 584.75 177.28 588.02 177.27 591.28 C 178.77 591.31 180.28 591.34 181.78 591.37 C 181.78 588.06 181.77 584.76 181.69 581.47 C 180.25 581.47 178.82 581.48 177.39 581.50 M 190.59 581.52 C 190.60 584.81 190.61 588.10 190.63 591.40 C 192.12 591.37 193.61 591.34 195.10 591.32 C 195.11 588.08 195.12 584.84 195.13 581.60 C 193.61 581.56 192.10 581.53 190.59 581.52 M 201.33 581.47 C 201.28 584.76 201.27 588.05 201.24 591.36 C 202.74 591.33 204.23 591.30 205.73 591.27 C 205.71 588.01 205.70 584.75 205.61 581.49 C 204.18 581.48 202.76 581.47 201.33 581.47 M 210.51 581.53 C 210.45 584.84 210.48 588.15 210.56 591.46 C 211.98 591.41 213.39 591.36 214.81 591.31 C 214.79 588.01 214.78 584.73 214.72 581.44 C 213.32 581.46 211.91 581.49 210.51 581.53 M 221.31 581.46 C 221.26 584.72 221.25 587.99 221.22 591.26 C 222.64 591.34 224.05 591.42 225.47 591.50 C 225.60 588.17 225.61 584.83 225.54 581.51 C 224.13 581.48 222.72 581.46 221.31 581.46 M 230.66 581.59 C 230.68 584.84 230.69 588.09 230.71 591.36 C 232.18 591.35 233.66 591.35 235.15 591.35 C 235.16 588.08 235.17 584.81 235.16 581.55 C 233.66 581.54 232.16 581.56 230.66 581.59 M 241.41 581.45 C 241.34 584.72 241.32 587.99 241.28 591.26 C 242.76 591.29 244.24 591.32 245.73 591.33 C 245.69 588.05 245.68 584.77 245.63 581.49 C 244.22 581.47 242.82 581.46 241.41 581.45 M 250.20 581.34 C 250.11 584.69 250.11 588.04 250.10 591.39 C 251.52 591.37 252.95 591.36 254.38 591.35 C 254.41 588.12 254.42 584.90 254.43 581.67 C 253.02 581.55 251.61 581.44 250.20 581.34 M 260.64 581.57 C 260.65 584.83 260.66 588.10 260.68 591.37 C 262.10 591.36 263.52 591.37 264.95 591.37 C 264.94 588.09 264.95 584.82 265.02 581.55 C 263.56 581.54 262.10 581.55 260.64 581.57 M 280.39 581.48 C 280.32 584.74 280.31 588.02 280.27 591.30 C 281.76 591.31 283.25 591.32 284.75 591.33 C 284.74 588.04 284.73 584.76 284.63 581.48 C 283.21 581.47 281.80 581.47 280.39 581.48 M 291.36 581.49 C 291.28 584.77 291.27 588.05 291.26 591.33 C 292.75 591.32 294.25 591.32 295.75 591.31 C 295.72 588.03 295.71 584.76 295.64 581.48 C 294.21 581.48 292.79 581.48 291.36 581.49 M 301.86 581.58 C 301.86 584.83 301.87 588.07 301.89 591.33 C 303.40 591.34 304.91 591.36 306.43 591.38 C 306.46 588.10 306.47 584.83 306.46 581.56 C 304.92 581.55 303.39 581.56 301.86 581.58 M 314.90 581.53 C 314.90 584.81 314.90 588.08 314.92 591.36 C 316.40 591.36 317.88 591.35 319.37 591.35 C 319.42 588.10 319.43 584.84 319.43 581.59 C 317.91 581.56 316.41 581.54 314.90 581.53 M 325.50 581.53 C 325.50 584.81 325.50 588.09 325.53 591.38 C 327.06 591.35 328.59 591.33 330.13 591.31 C 330.13 588.07 330.14 584.84 330.14 581.60 C 328.59 581.56 327.05 581.53 325.50 581.53 M 345.52 581.64 C 345.52 584.88 345.53 588.12 345.54 591.37 C 346.99 591.36 348.43 591.35 349.88 591.35 C 349.87 588.02 349.86 584.69 349.74 581.37 C 348.33 581.45 346.92 581.54 345.52 581.64 M 355.25 581.32 C 355.12 584.66 355.10 588.01 355.10 591.36 C 356.53 591.36 357.96 591.37 359.39 591.38 C 359.42 588.14 359.43 584.90 359.45 581.67 C 358.05 581.54 356.65 581.43 355.25 581.32 M 365.58 581.57 C 365.58 584.83 365.59 588.09 365.64 591.35 C 367.12 591.35 368.61 591.35 370.11 591.35 C 370.12 588.09 370.13 584.84 370.14 581.59 C 368.62 581.56 367.10 581.56 365.58 581.57 M 374.44 581.48 C 374.38 584.82 374.40 588.18 374.51 591.53 C 375.92 591.42 377.34 591.32 378.77 591.23 C 378.75 587.97 378.74 584.72 378.64 581.48 C 377.24 581.47 375.83 581.47 374.44 581.48 M 385.21 581.34 C 385.11 584.68 385.11 588.03 385.10 591.38 C 386.51 591.37 387.93 591.36 389.36 591.36 C 389.37 588.12 389.37 584.88 389.39 581.65 C 387.99 581.54 386.60 581.43 385.21 581.34 M 394.09 591.37 C 395.54 591.36 396.99 591.37 398.45 591.37 C 398.49 588.08 398.50 584.79 398.49 581.51 C 391.93 579.59 394.51 587.53 394.09 591.37 M 404.58 581.56 C 404.58 584.83 404.59 588.10 404.62 591.38 C 406.12 591.36 407.63 591.35 409.14 591.34 C 409.15 588.09 409.16 584.83 409.16 581.58 C 407.63 581.56 406.10 581.55 404.58 581.56 M 426.38 581.51 C 426.30 584.77 426.29 588.03 426.27 591.30 C 427.76 591.31 429.25 591.32 430.75 591.33 C 430.72 588.04 430.71 584.75 430.63 581.46 C 429.21 581.47 427.79 581.48 426.38 581.51 M 439.34 581.48 C 439.27 584.76 439.26 588.05 439.25 591.34 C 440.74 591.33 442.24 591.31 443.74 591.30 C 443.71 588.02 443.70 584.76 443.63 581.49 C 442.19 581.48 440.77 581.47 439.34 581.48 M 459.34 581.48 C 459.28 584.73 459.27 587.98 459.24 591.23 C 460.65 591.33 462.07 591.43 463.50 591.53 C 463.63 588.18 463.65 584.83 463.57 581.48 C 462.16 581.47 460.75 581.47 459.34 581.48 M 479.43 581.49 C 479.76 585.32 477.17 593.15 483.74 591.39 C 483.69 588.08 483.68 584.77 483.64 581.47 C 482.23 581.47 480.83 581.47 479.43 581.49 M 489.84 581.59 C 489.84 584.82 489.85 588.06 489.86 591.31 C 491.36 591.33 492.86 591.36 494.37 591.39 C 494.38 588.10 494.39 584.82 494.40 581.54 C 492.88 581.54 491.36 581.55 489.84 581.59 M 498.71 591.35 C 500.18 591.35 501.66 591.35 503.15 591.36 C 503.16 588.06 503.17 584.78 503.17 581.49 C 496.63 579.68 499.03 587.47 498.71 591.35 M 509.42 581.50 C 509.35 584.75 509.34 588.01 509.29 591.27 C 510.77 591.29 512.25 591.32 513.74 591.33 C 513.70 588.04 513.69 584.75 513.63 581.46 C 512.22 581.46 510.81 581.48 509.42 581.50 M 518.42 581.48 C 518.35 584.82 518.37 588.17 518.50 591.52 C 519.92 591.43 521.35 591.35 522.79 591.27 C 522.77 588.00 522.76 584.73 522.69 581.47 C 521.26 581.46 519.83 581.47 518.42 581.48 M 116.69 581.51 C 116.65 584.79 116.65 588.07 116.67 591.35 C 118.16 591.35 119.65 591.35 121.14 591.36 C 121.15 588.08 121.15 584.80 121.12 581.53 C 119.64 581.51 118.17 581.51 116.69 581.51 M 155.66 581.51 C 155.61 584.79 155.61 588.08 155.64 591.36 C 157.13 591.36 158.62 591.36 160.11 591.36 C 160.12 588.08 160.11 584.80 160.10 581.52 C 158.62 581.51 157.14 581.51 155.66 581.51 M 166.82 581.49 C 166.78 584.78 166.78 588.08 166.80 591.38 C 168.26 591.37 169.72 591.37 171.19 591.37 C 171.22 588.08 171.22 584.80 171.17 581.52 C 169.72 581.50 168.27 581.49 166.82 581.49 M 269.72 581.49 C 269.69 584.78 269.69 588.07 269.70 591.36 C 271.20 591.36 272.70 591.35 274.20 591.35 C 274.22 588.08 274.22 584.80 274.18 581.53 C 272.69 581.51 271.20 581.50 269.72 581.49 M 334.90 581.51 C 334.88 584.79 334.87 588.07 334.89 591.36 C 336.33 591.36 337.78 591.37 339.23 591.38 C 339.26 588.08 339.26 584.79 339.20 581.50 C 337.77 581.49 336.33 581.50 334.90 581.51 M 415.72 581.50 C 415.69 584.79 415.69 588.08 415.70 591.37 C 417.18 591.36 418.66 591.36 420.15 591.37 C 420.17 588.08 420.17 584.79 420.13 581.52 C 418.66 581.50 417.19 581.50 415.72 581.50 M 449.82 581.52 C 449.78 584.80 449.78 588.08 449.80 591.36 C 451.31 591.35 452.83 591.35 454.35 591.34 C 454.37 588.06 454.37 584.79 454.33 581.51 C 452.82 581.50 451.32 581.51 449.82 581.52 M 469.83 581.52 C 469.80 584.80 469.79 588.08 469.81 591.36 C 471.29 591.35 472.77 591.36 474.25 591.36 C 474.28 588.07 474.27 584.78 474.23 581.50 C 472.76 581.50 471.29 581.50 469.83 581.52 Z" />
<path fill="#222953" stroke="#222953" stroke-width="0.09375" opacity="1.00" d=" M 59.88 465.01 C 64.51 464.07 58.83 469.64 59.88 465.01 Z" />
<path fill="#222953" stroke="#222953" stroke-width="0.09375" opacity="1.00" d=" M 527.97 468.06 C 529.50 466.85 530.78 469.64 529.52 470.62 C 527.97 471.80 526.66 469.02 527.97 468.06 Z" />
<path fill="#222953" stroke="#222953" stroke-width="0.09375" opacity="1.00" d=" M 59.57 472.28 C 64.94 470.33 59.19 477.97 59.57 472.28 Z" />
<path fill="#222953" stroke="#222953" stroke-width="0.09375" opacity="1.00" d=" M 528.38 472.29 C 533.02 471.31 527.35 476.92 528.38 472.29 Z" />
<path fill="#222953" stroke="#222953" stroke-width="0.09375" opacity="1.00" d=" M 528.19 477.20 C 529.53 475.72 531.75 478.08 530.30 479.39 C 528.95 480.82 526.71 478.51 528.19 477.20 Z" />
<path fill="#222953" stroke="#222953" stroke-width="0.09375" opacity="1.00" d=" M 59.62 482.56 C 60.12 482.43 61.13 482.19 61.64 482.07 C 61.42 485.33 61.34 488.60 61.63 491.87 C 61.14 491.83 60.16 491.74 59.67 491.70 C 59.48 488.65 59.42 485.60 59.62 482.56 Z" />
<path fill="#222953" stroke="#222953" stroke-width="0.09375" opacity="1.00" d=" M 527.65 482.11 C 528.18 482.12 529.24 482.15 529.77 482.16 C 529.78 484.21 529.80 486.26 529.84 488.32 C 529.29 488.35 528.18 488.41 527.63 488.44 C 527.63 486.32 527.64 484.21 527.65 482.11 Z" />
<path fill="#222953" stroke="#222953" stroke-width="0.09375" opacity="1.00" d=" M 59.89 494.98 C 64.54 493.99 58.85 499.59 59.89 494.98 Z" />
<path fill="#222953" stroke="#222953" stroke-width="0.09375" opacity="1.00" d=" M 528.38 494.97 C 533.02 493.96 527.34 499.60 528.38 494.97 Z" />
<path fill="#222953" stroke="#222953" stroke-width="0.09375" opacity="1.00" d=" M 59.40 499.39 C 59.88 499.48 60.85 499.66 61.33 499.75 C 61.42 500.72 61.51 501.70 61.61 502.69 C 61.00 502.73 59.78 502.83 59.17 502.88 C 59.21 501.71 59.28 500.54 59.40 499.39 Z" />
<path fill="#222953" stroke="#222953" stroke-width="0.09375" opacity="1.00" d=" M 527.97 500.02 C 529.48 498.81 530.83 501.55 529.52 502.54 C 527.99 503.72 526.62 500.99 527.97 500.02 Z" />
<path fill="#222953" stroke="#222953" stroke-width="0.09375" opacity="1.00" d=" M 59.89 505.38 C 64.54 504.37 58.87 510.00 59.89 505.38 Z" />
<path fill="#222953" stroke="#222953" stroke-width="0.09375" opacity="1.00" d=" M 528.37 505.37 C 533.01 504.35 527.36 510.00 528.37 505.37 Z" />
<path fill="#222953" stroke="#222953" stroke-width="0.09375" opacity="1.00" d=" M 59.24 509.90 C 59.81 509.97 60.96 510.12 61.53 510.20 C 61.53 510.86 61.54 512.17 61.54 512.82 C 60.96 512.95 59.79 513.20 59.21 513.32 C 59.22 512.47 59.23 510.75 59.24 509.90 Z" />
<path fill="#222953" stroke="#222953" stroke-width="0.09375" opacity="1.00" d=" M 527.96 510.31 C 529.48 509.09 530.87 511.81 529.51 512.79 C 527.98 513.98 526.58 511.26 527.96 510.31 Z" />
<path fill="#222953" stroke="#222953" stroke-width="0.09375" opacity="1.00" d=" M 58.98 515.03 C 59.73 515.13 61.24 515.32 61.99 515.41 C 61.32 516.69 60.64 517.96 59.96 519.24 C 59.62 517.84 59.29 516.43 58.98 515.03 Z" />
<path fill="#222953" stroke="#222953" stroke-width="0.09375" opacity="1.00" d=" M 527.99 515.42 C 529.53 514.19 530.84 516.96 529.50 517.92 C 527.96 519.14 526.62 516.37 527.99 515.42 Z" />
<path fill="#222953" stroke="#222953" stroke-width="0.09375" opacity="1.00" d=" M 59.22 520.20 C 59.81 520.24 60.98 520.31 61.57 520.35 C 61.50 521.34 61.43 522.34 61.37 523.34 C 60.86 523.43 59.84 523.60 59.33 523.69 C 59.26 522.52 59.23 521.36 59.22 520.20 Z" />
<path fill="#222953" stroke="#222953" stroke-width="0.09375" opacity="1.00" d=" M 527.48 520.38 C 528.05 520.33 529.19 520.23 529.76 520.19 C 529.76 521.37 529.73 522.55 529.68 523.74 C 529.19 523.62 528.20 523.37 527.71 523.24 C 527.63 522.28 527.55 521.33 527.48 520.38 Z" />
<path fill="#222953" stroke="#222953" stroke-width="0.09375" opacity="1.00" d=" M 59.26 525.26 C 59.81 525.34 60.91 525.52 61.46 525.61 C 61.47 526.56 61.47 527.52 61.48 528.49 C 60.94 528.56 59.84 528.71 59.30 528.79 C 59.25 527.60 59.24 526.43 59.26 525.26 Z" />
<path fill="#222953" stroke="#222953" stroke-width="0.09375" opacity="1.00" d=" M 527.62 525.66 C 528.14 525.55 529.20 525.33 529.73 525.22 C 529.75 526.42 529.74 527.62 529.71 528.83 C 529.18 528.73 528.11 528.53 527.58 528.43 C 527.59 527.50 527.60 526.58 527.62 525.66 Z" />
<path fill="#222953" stroke="#222953" stroke-width="0.09375" opacity="1.00" d=" M 59.32 530.32 C 59.83 530.42 60.85 530.62 61.36 530.72 C 61.43 531.69 61.50 532.67 61.57 533.66 C 60.98 533.70 59.81 533.78 59.23 533.82 C 59.23 532.65 59.26 531.48 59.32 530.32 Z" />
<path fill="#222953" stroke="#222953" stroke-width="0.09375" opacity="1.00" d=" M 527.97 530.97 C 529.48 529.75 530.82 532.50 529.52 533.49 C 527.99 534.68 526.63 531.94 527.97 530.97 Z" />
<path fill="#222953" stroke="#222953" stroke-width="0.09375" opacity="1.00" d=" M 58.96 538.95 C 59.29 537.56 59.63 536.18 59.97 534.81 C 60.65 536.05 61.33 537.32 61.99 538.58 C 61.23 538.67 59.72 538.86 58.96 538.95 Z" />
<path fill="#222953" stroke="#222953" stroke-width="0.09375" opacity="1.00" d=" M 527.96 536.09 C 529.47 534.90 530.85 537.61 529.54 538.60 C 528.02 539.77 526.61 537.06 527.96 536.09 Z" />
<path fill="#222953" stroke="#222953" stroke-width="0.09375" opacity="1.00" d=" M 528.38 540.14 C 534.11 539.84 526.17 545.43 528.38 540.14 Z" />
<path fill="#222953" stroke="#222953" stroke-width="0.09375" opacity="1.00" d=" M 59.00 546.02 C 59.74 546.12 61.23 546.30 61.98 546.40 C 61.31 547.69 60.64 548.96 59.96 550.26 C 59.63 548.84 59.31 547.43 59.00 546.02 Z" />
<path fill="#222953" stroke="#222953" stroke-width="0.09375" opacity="1.00" d=" M 528.00 546.42 C 529.54 545.19 530.83 547.97 529.50 548.93 C 527.96 550.15 526.63 547.36 528.00 546.42 Z" />
<path fill="#222953" stroke="#222953" stroke-width="0.09375" opacity="1.00" d=" M 59.22 551.18 C 59.80 551.22 60.97 551.29 61.55 551.32 C 61.50 552.32 61.44 553.32 61.38 554.33 C 60.87 554.42 59.85 554.60 59.34 554.69 C 59.26 553.51 59.22 552.34 59.22 551.18 Z" />
<path fill="#222953" stroke="#222953" stroke-width="0.09375" opacity="1.00" d=" M 527.51 551.40 C 528.03 551.33 529.06 551.17 529.58 551.10 C 529.61 553.34 529.78 555.59 530.30 557.79 C 529.84 557.84 528.94 557.93 528.49 557.98 C 528.43 555.75 528.06 553.56 527.51 551.40 Z" />
<path fill="#222953" stroke="#222953" stroke-width="0.09375" opacity="1.00" d=" M 59.55 556.01 C 64.86 553.78 59.27 561.73 59.55 556.01 Z" />
<path fill="#222953" stroke="#222953" stroke-width="0.09375" opacity="1.00" d=" M 59.30 560.31 C 59.83 560.39 60.89 560.54 61.42 560.62 C 61.45 561.61 61.49 562.61 61.53 563.62 C 60.96 563.67 59.83 563.77 59.26 563.82 C 59.24 562.64 59.26 561.47 59.30 560.31 Z" />
<path fill="#222953" stroke="#222953" stroke-width="0.09375" opacity="1.00" d=" M 527.69 560.73 C 528.19 560.60 529.19 560.35 529.69 560.22 C 529.73 561.44 529.75 562.66 529.75 563.89 C 529.19 563.80 528.07 563.62 527.52 563.53 C 527.57 562.59 527.63 561.66 527.69 560.73 Z" />
<path fill="#222953" stroke="#222953" stroke-width="0.09375" opacity="1.00" d=" M 58.99 569.90 C 59.30 568.51 59.62 567.14 59.96 565.77 C 60.64 567.03 61.31 568.31 61.97 569.60 C 61.23 569.67 59.73 569.83 58.99 569.90 Z" />
<path fill="#222953" stroke="#222953" stroke-width="0.09375" opacity="1.00" d=" M 527.97 567.06 C 529.48 565.87 530.83 568.60 529.54 569.59 C 528.01 570.76 526.63 568.04 527.97 567.06 Z" />
<path fill="#222953" stroke="#222953" stroke-width="0.09375" opacity="1.00" d=" M 59.86 571.30 C 64.51 570.22 58.88 575.93 59.86 571.30 Z" />
<path fill="#222953" stroke="#222953" stroke-width="0.09375" opacity="1.00" d=" M 528.37 571.31 C 533.03 570.31 527.35 575.92 528.37 571.31 Z" />
<path fill="#222953" stroke="#222953" stroke-width="0.09375" opacity="1.00" d=" M 527.35 612.37 C 532.28 609.56 536.10 618.06 530.89 620.05 C 526.03 622.37 522.55 614.42 527.35 612.37 Z" />
<path fill="#222953" stroke="#222953" stroke-width="0.09375" opacity="1.00" d=" M 94.52 655.41 C 98.56 636.46 116.38 621.12 135.96 621.22 C 146.23 620.33 155.93 624.77 164.40 630.14 C 163.92 630.50 163.44 630.86 162.97 631.24 C 149.95 620.69 130.42 619.36 116.09 628.03 C 98.43 637.78 89.98 660.84 97.37 679.65 C 103.43 696.86 121.65 709.15 139.96 707.31 C 156.35 706.71 171.39 695.24 177.02 679.96 C 183.32 663.80 178.49 643.60 164.71 632.82 C 165.16 632.42 165.60 632.03 166.05 631.65 C 180.33 644.41 185.21 666.52 176.71 683.82 C 167.61 704.19 141.71 714.47 121.15 705.70 C 101.47 698.34 89.81 675.79 94.52 655.41 Z" />
<path fill="#222953" stroke="#222953" stroke-width="0.09375" opacity="1.00" d=" M 197.53 632.35 C 197.84 632.35 198.45 632.35 198.75 632.34 C 199.44 632.35 200.82 632.36 201.51 632.37 C 202.07 633.63 202.62 634.90 203.11 636.21 C 204.43 652.04 205.24 667.96 207.38 683.71 C 207.07 684.09 206.46 684.85 206.15 685.23 C 198.29 688.94 189.26 687.08 181.01 689.21 L 179.60 689.57 C 188.76 674.07 188.31 653.49 178.38 638.46 C 178.01 637.38 177.67 636.28 177.33 635.20 C 177.75 634.88 178.60 634.25 179.02 633.93 C 185.22 634.03 191.38 633.08 197.53 632.35 Z" />
<path fill="#222953" stroke="#222953" stroke-width="0.09375" opacity="1.00" d=" M 162.24 634.01 C 180.00 646.79 182.57 675.44 167.24 691.13 C 175.79 679.37 179.53 663.48 173.35 649.79 C 170.97 643.69 166.52 638.82 162.24 634.01 Z" />
<path fill="#222953" stroke="#222953" stroke-width="0.09375" opacity="1.00" d=" M 47.66 645.56 C 62.82 644.70 77.93 643.15 93.07 642.05 L 93.40 643.06 C 84.78 659.82 87.51 680.85 98.72 695.72 L 99.27 696.78 C 82.89 694.41 66.13 700.45 49.59 698.41 C 49.13 695.83 48.48 693.29 47.98 690.73 C 46.89 677.55 45.71 664.37 44.71 651.19 C 44.79 649.84 44.89 648.50 44.99 647.18 C 45.86 646.59 46.73 646.04 47.66 645.56 Z" />
<path fill="#222953" stroke="#222953" stroke-width="0.09375" opacity="1.00" d=" M 333.53 656.16 C 342.16 656.17 350.79 656.18 359.42 656.15 C 359.42 657.89 359.42 659.62 359.43 661.37 C 352.75 661.39 346.07 661.36 339.40 661.38 C 339.39 671.72 339.43 682.05 339.38 692.40 C 337.43 692.40 335.48 692.40 333.53 692.42 C 333.47 680.33 333.47 668.24 333.53 656.16 Z" />
<path fill="#222953" stroke="#222953" stroke-width="0.09375" opacity="1.00" d=" M 509.38 656.12 C 518.05 656.22 526.72 656.15 535.40 656.17 C 535.44 668.25 535.44 680.32 535.40 692.40 C 533.44 692.40 531.49 692.41 529.55 692.42 C 529.48 682.08 529.52 671.73 529.53 661.39 C 522.80 661.35 516.08 661.38 509.36 661.38 C 509.35 659.62 509.36 657.87 509.38 656.12 Z" />
<path fill="#222953" stroke="#222953" stroke-width="0.09375" opacity="1.00" d=" M 342.68 666.06 C 359.44 665.58 376.23 666.04 393.00 665.82 C 395.55 665.97 398.64 665.29 400.50 667.52 C 381.94 668.09 363.35 667.58 344.78 667.78 C 344.78 671.96 345.02 676.18 344.16 680.30 C 341.32 676.12 343.07 670.78 342.68 666.06 Z" />
<path fill="#222953" stroke="#222953" stroke-width="0.09375" opacity="1.00" d=" M 468.56 667.60 C 469.58 665.49 472.08 665.94 474.00 665.83 C 491.24 665.95 508.48 665.74 525.72 665.94 C 525.73 670.76 526.21 675.66 525.10 680.41 C 522.94 676.54 523.89 672.02 523.74 667.81 C 505.35 667.60 486.95 668.01 468.56 667.60 Z" />
<path fill="#222953" stroke="#222953" stroke-width="0.09375" opacity="1.00" d=" M 103.97 686.86 C 108.84 691.76 113.38 697.28 119.88 700.12 C 131.26 706.33 145.02 704.78 156.53 699.81 C 139.40 710.34 114.19 704.38 103.97 686.86 Z" />
<path fill="#222953" stroke="#222953" stroke-width="0.09375" opacity="1.00" d=" M 333.60 884.19 C 335.50 884.20 337.41 884.22 339.33 884.23 C 339.48 894.54 339.40 904.85 339.36 915.16 C 345.84 915.57 352.35 914.94 358.81 915.46 C 360.16 916.52 359.14 918.88 359.55 920.44 C 350.88 920.48 342.21 920.47 333.54 920.44 C 333.51 908.36 333.38 896.27 333.60 884.19 Z" />
<path fill="#222953" stroke="#222953" stroke-width="0.09375" opacity="1.00" d=" M 529.60 884.22 C 531.51 884.21 533.43 884.21 535.36 884.22 C 535.53 896.28 535.39 908.34 535.44 920.40 C 526.75 920.56 518.06 920.42 509.38 920.50 C 509.35 918.75 509.33 917.01 509.31 915.28 C 516.06 915.24 522.81 915.43 529.56 915.15 C 529.51 904.84 529.43 894.52 529.60 884.22 Z" />
<path fill="#222953" stroke="#222953" stroke-width="0.09375" opacity="1.00" d=" M 342.61 897.67 C 343.13 897.51 344.16 897.21 344.68 897.05 C 344.76 900.91 344.76 904.77 344.86 908.64 C 363.13 908.68 381.40 908.64 399.67 908.66 L 399.70 910.55 C 380.68 910.54 361.67 910.61 342.66 910.51 C 342.63 906.22 342.65 901.94 342.61 897.67 Z" />
<path fill="#222953" stroke="#222953" stroke-width="0.09375" opacity="1.00" d=" M 523.79 897.23 C 524.28 897.23 525.25 897.23 525.74 897.23 C 525.79 901.67 525.79 906.11 525.75 910.56 C 507.81 910.55 489.88 910.55 471.95 910.57 C 470.46 910.74 469.16 910.24 468.53 908.84 C 486.92 908.42 505.33 908.76 523.73 908.67 C 523.73 904.85 523.75 901.04 523.79 897.23 Z" />
<path fill="#222953" stroke="#222953" stroke-width="0.09375" opacity="1.00" d=" M 54.92 916.22 C 58.02 916.20 61.12 916.20 64.23 916.21 C 64.23 916.85 64.22 918.13 64.22 918.76 C 61.12 918.76 58.02 918.76 54.92 918.75 C 54.92 918.12 54.92 916.86 54.92 916.22 Z" />
<path fill="#222953" stroke="#222953" stroke-width="0.09375" opacity="1.00" d=" M 72.94 916.23 C 76.03 916.21 79.12 916.20 82.22 916.21 C 82.21 916.85 82.21 918.13 82.21 918.76 C 79.12 918.76 76.04 918.76 72.95 918.75 C 72.95 918.12 72.94 916.86 72.94 916.23 Z" />
<path fill="#222953" stroke="#222953" stroke-width="0.09375" opacity="1.00" d=" M 90.92 916.22 C 94.02 916.20 97.13 916.20 100.23 916.21 C 100.23 916.85 100.22 918.13 100.21 918.77 C 97.12 918.76 94.03 918.76 90.93 918.75 C 90.93 918.12 90.92 916.86 90.92 916.22 Z" />
<path fill="#222953" stroke="#222953" stroke-width="0.09375" opacity="1.00" d=" M 108.98 916.23 C 112.05 916.21 115.13 916.20 118.21 916.21 C 118.21 916.85 118.21 918.13 118.20 918.77 C 115.13 918.76 112.06 918.76 108.99 918.75 C 108.99 918.12 108.98 916.86 108.98 916.23 Z" />
<path fill="#222953" stroke="#222953" stroke-width="0.09375" opacity="1.00" d=" M 126.96 916.22 C 130.04 916.20 133.12 916.20 136.20 916.22 C 136.20 916.85 136.19 918.13 136.19 918.76 C 133.12 918.76 130.05 918.76 126.98 918.75 C 126.98 918.12 126.97 916.86 126.96 916.22 Z" />
<path fill="#222953" stroke="#222953" stroke-width="0.09375" opacity="1.00" d=" M 144.99 916.23 C 148.07 916.21 151.15 916.20 154.23 916.21 C 154.23 916.85 154.22 918.13 154.22 918.77 C 151.14 918.76 148.07 918.76 145.01 918.75 C 145.00 918.12 145.00 916.86 144.99 916.23 Z" />
<path fill="#222953" stroke="#222953" stroke-width="0.09375" opacity="1.00" d=" M 162.99 916.22 C 166.06 916.20 169.13 916.20 172.21 916.22 C 172.21 916.85 172.20 918.13 172.20 918.76 C 169.13 918.76 166.07 918.76 163.00 918.75 C 163.00 918.12 162.99 916.86 162.99 916.22 Z" />
<path fill="#222953" stroke="#222953" stroke-width="0.09375" opacity="1.00" d=" M 180.99 916.23 C 184.08 916.21 187.17 916.20 190.27 916.20 C 190.26 916.84 190.24 918.13 190.23 918.77 C 187.15 918.76 184.08 918.76 181.00 918.75 C 181.00 918.12 180.99 916.86 180.99 916.23 Z" />
<path fill="#222953" stroke="#222953" stroke-width="0.09375" opacity="1.00" d=" M 198.98 916.20 C 202.07 916.18 205.15 916.18 208.24 916.19 C 208.23 916.84 208.21 918.13 208.20 918.77 C 205.14 918.76 202.07 918.76 199.00 918.75 C 199.00 918.12 198.99 916.84 198.98 916.20 Z" />
<path fill="#222953" stroke="#222953" stroke-width="0.09375" opacity="1.00" d=" M 216.98 916.21 C 220.07 916.18 223.17 916.18 226.26 916.18 C 226.25 916.83 226.23 918.13 226.22 918.78 C 223.15 918.76 220.08 918.76 217.01 918.75 C 217.01 918.12 216.99 916.85 216.98 916.21 Z" />
<path fill="#222953" stroke="#222953" stroke-width="0.09375" opacity="1.00" d=" M 234.97 916.21 C 238.06 916.18 241.15 916.18 244.23 916.19 C 244.23 916.83 244.21 918.13 244.21 918.77 C 241.14 918.76 238.07 918.76 235.00 918.75 C 234.99 918.12 234.98 916.84 234.97 916.21 Z" />
<path fill="#222953" stroke="#222953" stroke-width="0.09375" opacity="1.00" d=" M 253.05 916.09 C 256.72 915.49 259.92 916.93 262.02 919.94 C 261.46 920.56 260.89 921.18 260.33 921.82 C 259.23 920.81 258.13 919.80 257.04 918.81 C 255.69 918.76 254.33 918.72 252.98 918.68 C 253.00 918.03 253.03 916.74 253.05 916.09 Z" />
<path fill="#222953" stroke="#222953" stroke-width="0.09375" opacity="1.00" d=" M 271.72 933.92 C 270.35 931.86 263.55 928.01 267.53 926.07 C 269.47 928.24 274.19 930.61 271.72 933.92 Z" />
<path fill="#222953" stroke="#222953" stroke-width="0.09375" opacity="1.00" d=" M 23.74 935.72 C 25.01 932.57 26.94 929.73 29.65 927.66 C 31.75 930.09 33.79 932.58 35.75 935.13 C 34.72 936.39 33.70 937.67 32.67 938.95 C 29.66 937.97 26.68 936.89 23.74 935.72 Z" />
<path fill="#222953" stroke="#222953" stroke-width="0.09375" opacity="1.00" d=" M 277.93 937.26 C 279.92 939.54 283.97 941.35 283.74 944.73 C 280.73 944.89 276.17 940.49 277.93 937.26 Z" />
<path fill="#222953" stroke="#222953" stroke-width="0.09375" opacity="1.00" d=" M 274.36 973.27 C 295.50 973.28 316.64 973.23 337.78 973.30 C 337.76 973.89 337.74 975.07 337.72 975.66 C 318.14 975.69 298.56 975.71 278.98 975.65 C 277.26 975.69 275.24 975.52 274.03 977.03 C 264.41 986.44 254.97 996.05 245.35 1005.47 C 244.29 1006.73 242.55 1006.60 241.06 1006.67 C 214.85 1006.57 188.63 1006.69 162.42 1006.60 C 162.43 1006.03 162.44 1004.90 162.44 1004.33 C 189.31 1004.22 216.19 1004.28 243.06 1004.30 C 253.54 994.01 263.98 983.67 274.36 973.27 Z" />
</g>
<g id="#0b0e1c91">
<path fill="#0b0e1c" stroke="#0b0e1c" stroke-width="0.09375" opacity="0.57" d=" M 560.15 43.87 C 573.44 43.99 586.42 51.57 592.83 63.25 C 599.89 75.45 599.26 91.63 591.23 103.22 C 584.47 113.52 572.39 119.78 560.15 120.09 C 560.04 115.93 560.07 111.76 560.31 107.60 C 573.80 107.33 586.13 95.76 585.77 82.00 C 586.21 68.23 573.89 56.45 560.32 56.33 C 560.07 52.18 560.04 48.02 560.15 43.87 Z" />
<path fill="#0b0e1c" stroke="#0b0e1c" stroke-width="0.09375" opacity="0.57" d=" M 560.05 59.47 C 571.85 59.02 582.50 69.22 582.83 80.95 C 583.64 93.38 572.53 104.88 560.06 104.45 C 560.08 103.64 560.13 102.02 560.16 101.20 C 563.23 100.51 566.28 99.72 569.30 98.81 C 568.05 95.79 566.53 92.89 564.83 90.10 C 563.29 90.28 561.76 90.47 560.23 90.65 C 560.07 84.69 560.02 78.73 560.28 72.77 C 565.85 73.62 569.32 78.33 569.50 83.81 C 572.67 84.43 575.87 84.92 579.08 85.31 C 580.89 73.79 571.56 63.28 560.15 62.68 C 560.12 61.88 560.07 60.28 560.05 59.47 M 568.56 85.11 C 567.70 86.44 566.84 87.77 565.99 89.10 C 567.88 91.67 569.91 94.15 572.06 96.51 C 574.52 94.19 576.53 91.44 577.98 88.39 C 574.87 87.20 571.73 86.10 568.56 85.11 Z" />
<path fill="#0b0e1c" stroke="#0b0e1c" stroke-width="0.09375" opacity="0.57" d=" M 177.18 631.96 C 176.70 627.57 176.50 621.26 182.11 620.31 C 187.76 619.68 189.67 625.94 188.53 630.44 C 190.05 630.33 191.57 630.22 193.09 630.12 C 187.86 631.39 182.10 629.51 177.18 631.96 Z" />
<path fill="#0b0e1c" stroke="#0b0e1c" stroke-width="0.09375" opacity="0.57" d=" M 13.17 917.20 C 20.16 909.13 30.54 904.47 41.14 903.93 C 41.31 908.14 41.30 912.37 41.09 916.59 C 27.33 916.73 14.87 929.02 15.85 942.99 C 15.76 956.52 28.02 967.38 41.12 967.94 C 41.27 972.06 41.27 976.18 41.15 980.31 C 27.23 980.03 13.89 971.61 7.77 959.10 C 0.86 945.75 3.10 928.36 13.17 917.20 Z" />
<path fill="#0b0e1c" stroke="#0b0e1c" stroke-width="0.09375" opacity="0.57" d=" M 19.09 946.03 C 16.31 932.70 27.79 919.40 41.26 919.56 C 41.21 920.41 41.12 922.11 41.07 922.96 C 38.03 923.63 35.03 924.49 32.11 925.58 C 34.11 929.35 35.57 935.27 41.09 933.76 C 41.30 939.63 41.33 945.52 41.06 951.41 C 35.63 950.43 32.27 945.85 32.21 940.45 C 29.03 939.72 25.81 939.17 22.58 938.79 C 20.59 950.21 29.83 960.82 41.18 961.37 C 41.11 962.55 41.02 963.74 40.89 964.94 C 30.48 964.35 20.61 956.61 19.09 946.03 M 23.74 935.72 C 26.68 936.89 29.66 937.97 32.67 938.95 C 33.70 937.67 34.72 936.39 35.75 935.13 C 33.79 932.58 31.75 930.09 29.65 927.66 C 26.94 929.73 25.01 932.57 23.74 935.72 Z" />
</g>
<g id="#2024439b">
<path fill="#202443" stroke="#202443" stroke-width="0.09375" opacity="0.61" d=" M 59.92 443.22 C 64.58 442.21 58.85 447.85 59.92 443.22 Z" />
<path fill="#202443" stroke="#202443" stroke-width="0.09375" opacity="0.61" d=" M 58.97 446.27 L 60.06 446.22 C 60.16 450.33 59.84 454.44 59.25 458.52 C 58.92 454.44 58.61 450.35 58.97 446.27 Z" />
<path fill="#202443" stroke="#202443" stroke-width="0.09375" opacity="0.61" d=" M 60.79 446.21 C 206.19 445.72 351.60 446.14 497.00 446.00 C 507.88 446.13 518.78 445.66 529.65 446.31 C 515.78 447.00 501.88 446.50 488.00 446.65 C 355.67 446.65 223.33 446.65 91.00 446.65 C 80.93 446.57 70.85 446.95 60.79 446.21 Z" />
<path fill="#202443" stroke="#202443" stroke-width="0.09375" opacity="0.61" d=" M 208.43 462.32 C 247.97 462.47 287.58 461.73 327.08 462.71 C 287.74 463.37 248.38 462.75 209.03 463.03 C 208.82 501.82 209.30 540.62 208.79 579.40 C 207.82 540.41 208.51 501.34 208.43 462.32 Z" />
<path fill="#202443" stroke="#202443" stroke-width="0.09375" opacity="0.61" d=" M 332.99 461.99 C 372.33 461.91 411.68 461.95 451.02 461.99 C 451.05 501.00 451.05 540.01 451.02 579.02 C 411.67 579.05 372.33 579.06 332.98 579.02 C 333.00 540.01 332.98 501.00 332.99 461.99 M 333.38 462.43 C 333.26 501.19 333.33 539.96 333.35 578.73 C 372.48 578.82 411.61 578.81 450.74 578.74 C 450.80 539.96 450.84 501.18 450.72 462.40 C 411.61 462.39 372.50 462.34 333.38 462.43 Z" />
<path fill="#202443" stroke="#202443" stroke-width="0.09375" opacity="0.61" d=" M 456.57 462.70 C 472.68 461.62 488.85 462.60 504.99 462.28 C 512.58 462.48 520.34 461.26 527.79 463.25 C 504.07 462.46 480.29 463.53 456.57 462.70 Z" />
<path fill="#202443" stroke="#202443" stroke-width="0.09375" opacity="0.61" d=" M 529.17 489.35 C 533.51 492.29 524.84 492.19 529.17 489.35 Z" />
<path fill="#202443" stroke="#202443" stroke-width="0.09375" opacity="0.61" d=" M 59.97 540.37 C 64.61 539.36 58.96 545.00 59.97 540.37 Z" />
<path fill="#202443" stroke="#202443" stroke-width="0.09375" opacity="0.61" d=" M 59.39 583.54 C 59.61 586.50 59.63 589.47 59.35 592.44 C 59.41 589.47 59.41 586.50 59.39 583.54 Z" />
<path fill="#202443" stroke="#202443" stroke-width="0.09375" opacity="0.61" d=" M 59.22 594.73 C 204.15 594.27 349.08 594.65 494.00 594.53 C 505.88 594.65 517.77 594.21 529.64 594.82 C 529.76 596.62 529.95 598.42 530.10 600.23 C 524.41 596.43 517.42 597.74 511.00 597.58 C 398.33 597.59 285.67 597.59 173.00 597.59 C 165.58 597.58 158.16 597.45 150.75 597.89 C 153.65 600.45 157.14 602.40 159.61 605.41 C 161.22 609.07 161.73 613.10 162.82 616.94 C 164.60 616.36 166.38 615.78 168.15 615.19 C 167.23 613.68 166.31 612.16 165.39 610.66 C 170.99 604.32 180.41 603.49 188.08 605.85 C 190.91 607.04 189.47 610.55 189.64 612.91 C 193.29 613.71 196.96 614.43 200.61 615.23 C 201.83 622.18 204.15 629.06 203.11 636.21 C 202.62 634.90 202.07 633.63 201.51 632.37 C 200.13 629.82 199.49 626.95 200.01 624.07 C 197.32 626.28 197.40 629.39 198.75 632.34 C 198.45 632.35 197.84 632.35 197.53 632.35 C 190.45 631.62 183.33 632.38 176.34 633.55 C 177.01 633.64 178.35 633.83 179.02 633.93 C 178.60 634.25 177.75 634.88 177.33 635.20 C 177.67 636.28 178.01 637.38 178.38 638.46 C 180.05 644.38 183.21 649.80 184.41 655.87 C 187.68 672.47 181.29 690.46 168.42 701.42 C 164.24 705.17 159.09 707.50 154.37 710.45 C 165.15 707.05 173.54 698.85 179.60 689.57 L 181.01 689.21 C 180.10 691.17 179.16 693.12 178.19 695.07 C 187.28 693.80 196.66 694.65 205.60 692.47 C 207.02 690.42 205.81 687.57 206.15 685.23 C 206.46 684.85 207.07 684.09 207.38 683.71 C 207.90 686.88 208.15 690.10 208.39 693.32 C 198.69 696.90 188.11 695.15 178.10 696.96 C 175.63 697.49 174.07 699.70 172.29 701.30 C 156.84 717.13 130.31 720.17 111.59 708.47 C 108.30 706.54 105.14 703.44 101.00 704.13 C 86.98 705.29 72.93 706.00 58.92 707.25 C 55.59 707.47 51.93 707.91 48.96 706.03 C 47.33 701.11 48.21 695.81 47.98 690.73 C 48.48 693.29 49.13 695.83 49.59 698.41 C 49.94 700.71 50.11 703.03 50.29 705.35 C 67.59 705.54 84.87 702.91 102.18 702.28 C 101.17 700.46 100.21 698.63 99.27 696.78 L 98.72 695.72 C 99.91 696.61 101.13 697.48 102.35 698.35 C 93.04 687.32 87.19 672.56 89.86 658.02 C 90.86 648.39 96.03 640.06 101.39 632.28 C 98.21 635.45 95.55 639.12 93.40 643.06 L 93.07 642.05 C 92.94 641.73 92.68 641.10 92.56 640.78 C 81.65 641.07 70.81 642.57 59.92 643.20 C 55.79 643.60 51.39 643.50 47.66 645.56 C 46.73 646.04 45.86 646.59 44.99 647.18 C 44.89 648.50 44.79 649.84 44.71 651.19 C 44.30 649.86 43.82 648.55 43.33 647.26 C 42.68 732.48 43.10 817.74 43.13 902.97 C 40.99 902.86 38.84 902.75 36.70 902.74 C 38.22 902.47 39.74 902.19 41.27 901.92 C 41.43 822.95 41.34 743.97 41.43 665.00 C 42.05 653.35 39.43 641.92 41.64 630.36 L 42.64 629.94 C 45.14 628.95 47.71 628.16 50.26 627.35 C 50.68 626.31 51.10 625.29 51.52 624.27 C 54.89 623.98 58.25 623.68 61.61 623.40 C 61.87 621.55 62.12 619.70 62.38 617.87 C 68.24 616.29 75.45 618.80 80.09 613.97 C 86.99 609.73 95.80 610.48 103.41 612.18 C 106.18 606.86 110.51 602.64 114.08 597.89 C 102.07 597.24 90.03 597.73 78.00 597.59 C 71.57 597.71 64.58 596.47 58.90 600.28 C 58.99 598.42 59.11 596.57 59.22 594.73 M 60.20 595.25 C 62.41 598.53 66.69 597.14 70.00 597.40 C 93.67 596.66 117.40 598.86 140.97 596.03 C 147.08 595.16 152.86 598.37 159.01 597.40 C 278.34 597.27 397.67 597.33 517.00 597.37 C 521.06 596.98 526.08 598.79 529.17 595.31 C 526.45 595.07 523.73 594.94 521.00 594.97 C 367.41 595.21 213.79 594.68 60.20 595.25 M 139.49 597.64 C 131.55 598.47 123.51 598.57 115.62 599.68 C 111.45 604.01 105.01 608.52 106.05 615.33 C 106.34 617.23 106.68 619.13 106.95 621.05 C 107.00 621.57 107.11 622.63 107.17 623.15 C 113.52 620.53 119.52 617.10 126.16 615.18 C 131.20 614.37 136.31 614.69 141.38 614.27 C 148.31 615.12 154.94 617.33 161.33 620.09 C 160.93 617.42 160.45 614.78 159.84 612.16 C 159.80 611.33 159.76 610.50 159.73 609.69 C 158.34 604.34 152.91 602.08 148.99 598.88 C 146.35 596.50 142.67 597.50 139.49 597.64 M 174.11 606.85 C 174.09 607.62 174.04 609.17 174.02 609.94 C 175.31 609.89 176.60 609.84 177.89 609.79 C 177.90 609.01 177.91 607.45 177.91 606.67 C 176.64 606.72 175.38 606.78 174.11 606.85 M 179.69 606.48 C 179.59 607.06 179.38 608.21 179.28 608.79 C 182.18 609.15 185.09 609.47 188.00 609.80 C 188.00 609.12 187.99 607.77 187.99 607.10 C 185.22 606.84 182.46 606.63 179.69 606.48 M 167.28 611.46 C 169.08 611.15 170.86 610.81 172.65 610.47 C 172.66 609.78 172.67 608.39 172.67 607.70 C 170.53 608.40 168.71 609.73 167.28 611.46 M 168.30 613.93 C 175.14 614.25 181.98 613.42 188.74 612.41 C 182.31 609.52 174.56 611.30 168.30 613.93 M 93.98 612.24 C 94.02 612.93 94.09 614.31 94.13 615.00 C 96.84 614.73 99.56 615.03 102.19 615.75 C 102.07 615.26 101.85 614.26 101.73 613.76 C 99.14 613.29 96.56 612.78 93.98 612.24 M 118.65 619.99 C 126.52 618.49 134.38 615.67 142.50 617.24 C 155.67 618.30 166.89 626.11 175.66 635.48 C 163.57 617.78 138.06 611.19 118.65 619.99 M 163.09 618.29 C 163.06 618.95 163.02 620.28 162.99 620.94 C 168.00 624.26 171.90 629.07 177.18 631.96 C 182.10 629.51 187.86 631.39 193.09 630.12 C 193.45 630.09 194.15 630.03 194.50 630.01 C 194.76 626.52 197.00 624.05 200.05 622.64 C 199.62 620.37 200.66 615.92 197.09 616.13 C 185.73 615.76 174.44 617.98 163.09 618.29 M 70.31 619.09 C 70.67 620.16 71.05 621.25 71.44 622.33 C 73.26 621.58 74.67 620.29 75.51 618.52 C 73.77 618.68 72.04 618.86 70.31 619.09 M 80.35 621.88 C 85.96 621.88 91.52 621.01 97.13 620.76 C 99.21 620.53 101.92 620.68 102.70 618.22 C 95.44 618.22 85.77 615.99 80.35 621.88 M 64.21 619.16 C 64.20 619.86 64.16 621.26 64.15 621.96 C 64.91 621.99 66.43 622.05 67.19 622.09 C 67.11 621.31 66.96 619.76 66.88 618.99 C 66.22 619.03 64.88 619.12 64.21 619.16 M 130.47 619.57 C 111.05 622.09 94.54 638.61 91.95 658.01 C 90.76 667.84 92.18 678.22 97.06 686.94 C 106.19 704.47 127.72 714.52 146.98 709.78 C 158.06 707.52 168.13 700.85 174.56 691.55 C 185.03 677.42 185.72 657.12 176.89 642.03 C 168.03 625.95 148.61 616.41 130.47 619.57 M 79.23 624.75 C 87.71 624.61 96.48 624.57 104.70 622.32 C 96.26 622.29 87.30 622.14 79.23 624.75 M 64.66 624.01 C 68.03 627.04 72.72 625.77 76.80 625.68 C 76.86 625.01 76.98 623.68 77.04 623.02 C 72.90 623.00 68.73 623.18 64.66 624.01 M 106.40 627.44 C 108.98 626.23 111.37 624.66 113.46 622.73 C 110.81 623.80 108.37 625.34 106.40 627.44 M 51.78 625.63 C 54.84 629.38 60.95 625.87 65.14 626.48 C 64.84 626.11 64.25 625.35 63.95 624.98 C 59.88 624.87 55.80 625.01 51.78 625.63 M 50.94 629.26 C 48.09 629.35 45.45 630.51 43.13 632.10 C 43.25 633.79 43.36 635.49 43.49 637.19 C 45.84 638.45 47.87 640.21 49.46 642.36 C 64.24 641.42 78.98 639.91 93.75 638.80 C 97.10 633.57 101.16 628.80 106.02 624.91 C 87.63 625.89 69.31 627.99 50.94 629.26 M 104.43 700.59 C 115.69 712.33 134.05 716.55 149.54 712.12 C 142.40 712.19 135.16 714.14 128.11 712.09 C 119.21 710.67 111.64 705.66 104.43 700.59 Z" />
<path fill="#202443" stroke="#202443" stroke-width="0.09375" opacity="0.61" d=" M 120.12 629.22 C 130.43 622.19 145.65 623.07 155.84 629.90 C 144.39 625.15 131.73 624.85 120.12 629.22 Z" />
<path fill="#202443" stroke="#202443" stroke-width="0.09375" opacity="0.61" d=" M 129.37 633.46 C 141.33 630.59 154.70 634.97 162.32 644.71 C 172.03 656.24 171.70 674.52 161.83 685.84 C 152.76 696.96 135.76 700.57 123.02 693.92 C 110.37 687.78 102.47 672.72 105.60 658.85 C 107.80 646.72 117.49 636.58 129.37 633.46 M 133.43 634.50 C 118.30 636.27 105.63 650.55 106.86 665.95 C 106.68 683.24 123.83 698.19 140.96 695.28 C 158.04 693.80 171.22 675.67 167.09 658.96 C 164.60 643.60 148.75 632.29 133.43 634.50 Z" />
<path fill="#202443" stroke="#202443" stroke-width="0.09375" opacity="0.61" d=" M 102.83 684.79 C 95.05 674.25 94.71 658.19 101.80 647.25 C 97.03 659.45 97.39 672.87 102.83 684.79 Z" />
</g>
<g id="#f6f6f6ff">
<path fill="#f6f6f6" stroke="#f6f6f6" stroke-width="0.09375" opacity="1.00" d=" M 66.08 450.77 C 67.50 450.75 68.92 450.75 70.34 450.75 C 70.37 453.99 70.38 457.23 70.37 460.47 C 68.88 460.46 67.39 460.45 65.91 460.43 C 65.90 457.21 65.95 453.99 66.08 450.77 Z" />
<path fill="#f6f6f6" stroke="#f6f6f6" stroke-width="0.09375" opacity="1.00" d=" M 76.62 450.79 C 78.02 450.77 79.43 450.75 80.84 450.74 C 80.88 454.04 80.86 457.35 80.75 460.66 C 79.35 460.55 77.94 460.44 76.54 460.34 C 76.56 457.15 76.57 453.97 76.62 450.79 Z" />
<path fill="#f6f6f6" stroke="#f6f6f6" stroke-width="0.09375" opacity="1.00" d=" M 85.89 450.76 C 87.36 450.76 88.82 450.76 90.29 450.77 C 90.34 454.00 90.34 457.23 90.32 460.46 C 88.84 460.47 87.37 460.47 85.90 460.48 C 85.88 457.24 85.88 454.00 85.89 450.76 Z" />
<path fill="#f6f6f6" stroke="#f6f6f6" stroke-width="0.09375" opacity="1.00" d=" M 96.55 450.79 C 97.97 450.77 99.40 450.76 100.83 450.76 C 101.03 453.97 101.14 457.18 101.15 460.39 C 99.61 460.43 98.07 460.47 96.52 460.51 C 96.51 457.26 96.51 454.03 96.55 450.79 Z" />
<path fill="#f6f6f6" stroke="#f6f6f6" stroke-width="0.09375" opacity="1.00" d=" M 106.16 450.68 C 107.62 450.75 109.08 450.84 110.55 450.94 C 110.54 454.13 110.54 457.33 110.49 460.53 C 109.00 460.48 107.52 460.43 106.04 460.38 C 106.09 457.15 106.11 453.91 106.16 450.68 Z" />
<path fill="#f6f6f6" stroke="#f6f6f6" stroke-width="0.09375" opacity="1.00" d=" M 116.68 450.75 C 118.17 450.76 119.65 450.77 121.14 450.79 C 121.15 454.01 121.15 457.23 121.13 460.46 C 119.64 460.45 118.14 460.45 116.65 460.45 C 116.65 457.22 116.65 453.98 116.68 450.75 Z" />
<path fill="#f6f6f6" stroke="#f6f6f6" stroke-width="0.09375" opacity="1.00" d=" M 125.29 450.83 C 126.78 450.80 128.27 450.78 129.77 450.77 C 129.79 454.02 129.77 457.28 129.70 460.53 C 128.25 460.51 126.80 460.49 125.35 460.48 C 125.28 457.26 125.27 454.04 125.29 450.83 Z" />
<path fill="#f6f6f6" stroke="#f6f6f6" stroke-width="0.09375" opacity="1.00" d=" M 136.00 450.84 C 137.46 450.80 138.93 450.77 140.40 450.75 C 140.41 453.99 140.41 457.24 140.41 460.49 C 138.89 460.47 137.37 460.44 135.85 460.42 C 135.84 457.22 135.88 454.03 136.00 450.84 Z" />
<path fill="#f6f6f6" stroke="#f6f6f6" stroke-width="0.09375" opacity="1.00" d=" M 145.12 450.77 C 146.54 450.76 147.97 450.75 149.41 450.76 C 149.46 453.97 149.47 457.19 149.49 460.42 C 147.97 460.44 146.44 460.45 144.91 460.47 C 144.89 457.23 144.95 454.00 145.12 450.77 Z" />
<path fill="#f6f6f6" stroke="#f6f6f6" stroke-width="0.09375" opacity="1.00" d=" M 155.64 450.79 C 157.05 450.76 158.46 450.75 159.87 450.74 C 160.06 453.97 160.14 457.21 160.13 460.46 C 158.63 460.46 157.13 460.46 155.62 460.47 C 155.61 457.24 155.61 454.01 155.64 450.79 Z" />
<path fill="#f6f6f6" stroke="#f6f6f6" stroke-width="0.09375" opacity="1.00" d=" M 166.80 450.76 C 168.26 450.76 169.73 450.76 171.20 450.78 C 171.21 454.00 171.22 457.22 171.19 460.45 C 169.73 460.46 168.26 460.47 166.81 460.49 C 166.78 457.24 166.78 454.00 166.80 450.76 Z" />
<path fill="#f6f6f6" stroke="#f6f6f6" stroke-width="0.09375" opacity="1.00" d=" M 177.31 450.82 C 178.78 450.80 180.26 450.78 181.73 450.78 C 181.77 454.02 181.77 457.27 181.70 460.52 C 180.25 460.50 178.80 460.49 177.35 460.48 C 177.29 457.26 177.29 454.04 177.31 450.82 Z" />
<path fill="#f6f6f6" stroke="#f6f6f6" stroke-width="0.09375" opacity="1.00" d=" M 190.63 450.77 C 192.05 450.76 193.48 450.76 194.90 450.78 C 195.09 453.98 195.14 457.20 195.13 460.42 C 193.62 460.44 192.11 460.46 190.61 460.48 C 190.60 457.24 190.60 454.00 190.63 450.77 Z" />
<path fill="#f6f6f6" stroke="#f6f6f6" stroke-width="0.09375" opacity="1.00" d=" M 201.30 450.77 C 202.76 450.78 204.22 450.81 205.68 450.84 C 205.70 454.06 205.70 457.27 205.64 460.49 C 204.20 460.50 202.75 460.50 201.31 460.51 C 201.28 457.26 201.28 454.01 201.30 450.77 Z" />
<path fill="#f6f6f6" stroke="#f6f6f6" stroke-width="0.09375" opacity="1.00" d=" M 210.46 450.88 C 211.89 450.82 213.32 450.76 214.75 450.71 C 214.79 453.98 214.79 457.26 214.73 460.54 C 213.32 460.51 211.91 460.49 210.50 460.47 C 210.47 457.27 210.47 454.07 210.46 450.88 Z" />
<path fill="#f6f6f6" stroke="#f6f6f6" stroke-width="0.09375" opacity="1.00" d=" M 221.28 450.73 C 222.72 450.77 224.16 450.82 225.61 450.88 C 225.59 454.07 225.59 457.27 225.55 460.47 C 224.13 460.48 222.71 460.50 221.30 460.52 C 221.25 457.25 221.25 453.99 221.28 450.73 Z" />
<path fill="#f6f6f6" stroke="#f6f6f6" stroke-width="0.09375" opacity="1.00" d=" M 230.72 450.75 C 232.20 450.76 233.68 450.77 235.16 450.79 C 235.16 454.00 235.16 457.22 235.15 460.45 C 233.66 460.45 232.18 460.47 230.69 460.48 C 230.68 457.23 230.69 453.99 230.72 450.75 Z" />
<path fill="#f6f6f6" stroke="#f6f6f6" stroke-width="0.09375" opacity="1.00" d=" M 241.34 450.83 C 242.79 450.81 244.24 450.80 245.69 450.80 C 245.69 454.03 245.68 457.26 245.65 460.50 C 244.22 460.49 242.79 460.49 241.37 460.49 C 241.33 457.26 241.33 454.04 241.34 450.83 Z" />
<path fill="#f6f6f6" stroke="#f6f6f6" stroke-width="0.09375" opacity="1.00" d=" M 250.16 450.74 C 251.56 450.75 252.97 450.76 254.37 450.79 C 254.41 454.00 254.42 457.22 254.41 460.44 C 252.96 460.45 251.53 460.47 250.09 460.48 C 250.11 457.23 250.12 453.99 250.16 450.74 Z" />
<path fill="#f6f6f6" stroke="#f6f6f6" stroke-width="0.09375" opacity="1.00" d=" M 260.70 450.77 C 262.10 450.76 263.50 450.75 264.91 450.76 C 264.94 453.99 264.95 457.23 264.98 460.47 C 263.54 460.47 262.10 460.47 260.67 460.47 C 260.65 457.23 260.66 454.00 260.70 450.77 Z" />
<path fill="#f6f6f6" stroke="#f6f6f6" stroke-width="0.09375" opacity="1.00" d=" M 269.71 450.75 C 271.21 450.76 272.71 450.76 274.21 450.78 C 274.22 454.00 274.22 457.21 274.20 460.43 C 272.70 460.45 271.20 460.47 269.71 460.49 C 269.69 457.24 269.69 454.00 269.71 450.75 Z" />
<path fill="#f6f6f6" stroke="#f6f6f6" stroke-width="0.09375" opacity="1.00" d=" M 280.32 450.80 C 281.78 450.80 283.25 450.80 284.72 450.82 C 284.74 454.04 284.73 457.27 284.66 460.51 C 283.22 460.50 281.79 460.49 280.35 460.49 C 280.32 457.26 280.31 454.03 280.32 450.80 Z" />
<path fill="#f6f6f6" stroke="#f6f6f6" stroke-width="0.09375" opacity="1.00" d=" M 291.30 450.79 C 292.76 450.79 294.22 450.79 295.69 450.81 C 295.71 454.03 295.71 457.26 295.67 460.49 C 294.22 460.49 292.77 460.49 291.32 460.49 C 291.27 457.26 291.27 454.02 291.30 450.79 Z" />
<path fill="#f6f6f6" stroke="#f6f6f6" stroke-width="0.09375" opacity="1.00" d=" M 302.05 450.78 C 303.50 450.77 304.95 450.77 306.41 450.78 C 306.46 454.01 306.46 457.24 306.45 460.48 C 304.91 460.46 303.38 460.44 301.86 460.42 C 301.85 457.20 301.88 453.98 302.05 450.78 Z" />
<path fill="#f6f6f6" stroke="#f6f6f6" stroke-width="0.09375" opacity="1.00" d=" M 315.07 450.75 C 316.50 450.75 317.93 450.77 319.37 450.79 C 319.42 454.01 319.42 457.23 319.41 460.45 C 317.90 460.45 316.40 460.46 314.90 460.46 C 314.88 457.22 314.92 453.98 315.07 450.75 Z" />
<path fill="#f6f6f6" stroke="#f6f6f6" stroke-width="0.09375" opacity="1.00" d=" M 325.55 450.76 C 327.01 450.77 328.47 450.79 329.95 450.81 C 330.12 454.01 330.16 457.21 330.15 460.41 C 328.60 460.44 327.04 460.45 325.49 460.47 C 325.50 457.23 325.50 453.99 325.55 450.76 Z" />
<path fill="#f6f6f6" stroke="#f6f6f6" stroke-width="0.09375" opacity="1.00" d=" M 334.89 450.76 C 336.33 450.76 337.78 450.76 339.24 450.76 C 339.26 454.00 339.26 457.23 339.23 460.47 C 337.78 460.47 336.33 460.47 334.89 460.47 C 334.88 457.23 334.88 454.00 334.89 450.76 Z" />
<path fill="#f6f6f6" stroke="#f6f6f6" stroke-width="0.09375" opacity="1.00" d=" M 345.56 450.78 C 346.98 450.76 348.40 450.76 349.83 450.77 C 349.88 454.06 349.86 457.35 349.73 460.64 C 348.32 460.54 346.91 460.45 345.50 460.36 C 345.52 457.16 345.53 453.97 345.56 450.78 Z" />
<path fill="#f6f6f6" stroke="#f6f6f6" stroke-width="0.09375" opacity="1.00" d=" M 355.16 450.77 C 356.57 450.76 357.97 450.76 359.38 450.77 C 359.43 453.99 359.44 457.22 359.45 460.45 C 357.98 460.43 356.52 460.43 355.07 460.41 C 355.11 457.19 355.13 453.98 355.16 450.77 Z" />
<path fill="#f6f6f6" stroke="#f6f6f6" stroke-width="0.09375" opacity="1.00" d=" M 365.64 450.77 C 367.11 450.76 368.59 450.77 370.08 450.78 C 370.12 453.99 370.13 457.21 370.12 460.44 C 368.61 460.44 367.10 460.45 365.60 460.46 C 365.58 457.23 365.59 454.00 365.64 450.77 Z" />
<path fill="#f6f6f6" stroke="#f6f6f6" stroke-width="0.09375" opacity="1.00" d=" M 374.38 450.84 C 375.82 450.81 377.27 450.78 378.72 450.77 C 378.75 454.02 378.75 457.27 378.68 460.52 C 377.26 460.50 375.84 460.48 374.42 460.47 C 374.40 457.26 374.39 454.05 374.38 450.84 Z" />
<path fill="#f6f6f6" stroke="#f6f6f6" stroke-width="0.09375" opacity="1.00" d=" M 385.18 450.74 C 386.56 450.74 387.95 450.76 389.35 450.78 C 389.37 453.99 389.38 457.21 389.40 460.43 C 387.96 460.44 386.51 460.45 385.07 460.45 C 385.10 457.21 385.12 453.97 385.18 450.74 Z" />
<path fill="#f6f6f6" stroke="#f6f6f6" stroke-width="0.09375" opacity="1.00" d=" M 394.12 450.75 C 395.55 450.75 396.99 450.76 398.43 450.78 C 398.49 453.99 398.50 457.20 398.50 460.42 C 397.02 460.44 395.54 460.46 394.06 460.47 C 394.08 457.23 394.10 453.99 394.12 450.75 Z" />
<path fill="#f6f6f6" stroke="#f6f6f6" stroke-width="0.09375" opacity="1.00" d=" M 404.61 450.77 C 406.10 450.77 407.60 450.77 409.10 450.78 C 409.15 454.00 409.16 457.21 409.14 460.43 C 407.62 460.44 406.11 460.46 404.59 460.47 C 404.59 457.24 404.59 454.00 404.61 450.77 Z" />
<path fill="#f6f6f6" stroke="#f6f6f6" stroke-width="0.09375" opacity="1.00" d=" M 415.73 450.76 C 417.20 450.75 418.67 450.75 420.15 450.76 C 420.16 453.99 420.16 457.23 420.15 460.46 C 418.66 460.47 417.18 460.48 415.71 460.49 C 415.69 457.24 415.69 454.00 415.73 450.76 Z" />
<path fill="#f6f6f6" stroke="#f6f6f6" stroke-width="0.09375" opacity="1.00" d=" M 426.30 450.83 C 427.76 450.81 429.23 450.79 430.70 450.79 C 430.72 454.02 430.72 457.26 430.67 460.50 C 429.23 460.49 427.79 460.49 426.36 460.49 C 426.30 457.27 426.29 454.05 426.30 450.83 Z" />
<path fill="#f6f6f6" stroke="#f6f6f6" stroke-width="0.09375" opacity="1.00" d=" M 439.29 450.75 C 440.75 450.77 442.21 450.81 443.68 450.85 C 443.71 454.06 443.71 457.27 443.65 460.49 C 442.20 460.49 440.75 460.50 439.31 460.51 C 439.27 457.25 439.27 454.00 439.29 450.75 Z" />
<path fill="#f6f6f6" stroke="#f6f6f6" stroke-width="0.09375" opacity="1.00" d=" M 449.79 450.77 C 451.30 450.76 452.81 450.76 454.32 450.77 C 454.37 454.00 454.37 457.23 454.37 460.46 C 452.84 460.46 451.32 460.46 449.80 460.47 C 449.78 457.23 449.78 454.00 449.79 450.77 Z" />
<path fill="#f6f6f6" stroke="#f6f6f6" stroke-width="0.09375" opacity="1.00" d=" M 459.30 450.75 C 460.73 450.77 462.17 450.81 463.62 450.86 C 463.63 454.07 463.63 457.27 463.59 460.49 C 462.16 460.49 460.73 460.50 459.31 460.51 C 459.27 457.25 459.28 454.00 459.30 450.75 Z" />
<path fill="#f6f6f6" stroke="#f6f6f6" stroke-width="0.09375" opacity="1.00" d=" M 469.81 450.78 C 471.28 450.77 472.77 450.76 474.26 450.76 C 474.27 453.99 474.27 457.23 474.25 460.47 C 472.77 460.46 471.29 460.46 469.82 460.46 C 469.79 457.23 469.79 454.01 469.81 450.78 Z" />
<path fill="#f6f6f6" stroke="#f6f6f6" stroke-width="0.09375" opacity="1.00" d=" M 479.36 450.83 C 480.79 450.80 482.23 450.79 483.67 450.79 C 483.69 454.02 483.69 457.26 483.66 460.50 C 482.23 460.49 480.80 460.48 479.39 460.48 C 479.35 457.26 479.35 454.04 479.36 450.83 Z" />
<path fill="#f6f6f6" stroke="#f6f6f6" stroke-width="0.09375" opacity="1.00" d=" M 489.85 450.79 C 491.35 450.77 492.85 450.76 494.36 450.76 C 494.38 454.00 494.38 457.24 494.38 460.48 C 492.87 460.46 491.36 460.44 489.86 460.42 C 489.84 457.21 489.84 454.00 489.85 450.79 Z" />
<path fill="#f6f6f6" stroke="#f6f6f6" stroke-width="0.09375" opacity="1.00" d=" M 498.71 450.76 C 500.19 450.76 501.67 450.77 503.16 450.78 C 503.16 454.00 503.16 457.22 503.15 460.45 C 501.66 460.45 500.18 460.46 498.70 460.47 C 498.69 457.23 498.69 453.99 498.71 450.76 Z" />
<path fill="#f6f6f6" stroke="#f6f6f6" stroke-width="0.09375" opacity="1.00" d=" M 509.36 450.83 C 510.79 450.81 512.23 450.79 513.68 450.79 C 513.69 454.02 513.70 457.26 513.66 460.50 C 512.23 460.49 510.80 460.48 509.38 460.48 C 509.35 457.26 509.34 454.04 509.36 450.83 Z" />
<path fill="#f6f6f6" stroke="#f6f6f6" stroke-width="0.09375" opacity="1.00" d=" M 518.38 450.83 C 519.82 450.80 521.27 450.78 522.73 450.77 C 522.77 454.02 522.77 457.27 522.70 460.52 C 521.26 460.50 519.83 460.49 518.40 460.48 C 518.38 457.26 518.37 454.05 518.38 450.83 Z" />
<path fill="#f6f6f6" stroke="#f6f6f6" stroke-width="0.09375" opacity="1.00" d=" M 65.91 581.56 C 67.41 581.55 68.90 581.55 70.39 581.57 C 70.38 584.84 70.37 588.11 70.35 591.39 C 68.87 591.37 67.40 591.35 65.93 591.33 C 65.92 588.07 65.92 584.81 65.91 581.56 Z" />
<path fill="#f6f6f6" stroke="#f6f6f6" stroke-width="0.09375" opacity="1.00" d=" M 76.56 581.67 C 77.96 581.55 79.37 581.44 80.78 581.35 C 80.86 584.68 80.87 588.02 80.88 591.37 C 79.45 591.37 78.03 591.37 76.61 591.37 C 76.57 588.13 76.56 584.90 76.56 581.67 Z" />
<path fill="#f6f6f6" stroke="#f6f6f6" stroke-width="0.09375" opacity="1.00" d=" M 85.91 581.54 C 87.34 581.49 88.78 581.46 90.21 581.44 C 90.33 584.73 90.36 588.04 90.32 591.35 C 88.84 591.35 87.37 591.37 85.89 591.38 C 85.88 588.10 85.88 584.82 85.91 581.54 Z" />
<path fill="#f6f6f6" stroke="#f6f6f6" stroke-width="0.09375" opacity="1.00" d=" M 96.50 581.64 C 97.93 581.54 99.36 581.45 100.79 581.37 C 101.06 584.67 101.17 587.99 101.14 591.32 C 99.60 591.34 98.07 591.36 96.54 591.38 C 96.52 588.13 96.51 584.88 96.50 581.64 Z" />
<path fill="#f6f6f6" stroke="#f6f6f6" stroke-width="0.09375" opacity="1.00" d=" M 106.06 581.63 C 107.53 581.55 109.00 581.49 110.48 581.43 C 110.56 584.77 110.54 588.12 110.42 591.46 C 108.98 591.41 107.54 591.36 106.10 591.31 C 106.11 588.08 106.10 584.85 106.06 581.63 Z" />
<path fill="#f6f6f6" stroke="#f6f6f6" stroke-width="0.09375" opacity="1.00" d=" M 125.38 581.47 C 126.81 581.46 128.25 581.46 129.68 581.47 C 129.77 584.76 129.79 588.06 129.79 591.36 C 128.28 591.34 126.77 591.31 125.26 591.29 C 125.27 588.01 125.28 584.74 125.38 581.47 Z" />
<path fill="#f6f6f6" stroke="#f6f6f6" stroke-width="0.09375" opacity="1.00" d=" M 135.84 581.62 C 137.36 581.58 138.89 581.53 140.42 581.52 C 140.42 584.80 140.41 588.09 140.39 591.39 C 138.89 591.37 137.38 591.35 135.88 591.34 C 135.87 588.10 135.85 584.86 135.84 581.62 Z" />
<path fill="#f6f6f6" stroke="#f6f6f6" stroke-width="0.09375" opacity="1.00" d=" M 144.92 581.57 C 146.44 581.54 147.95 581.52 149.47 581.52 C 149.47 584.82 149.46 588.12 149.43 591.42 C 147.93 591.38 146.44 591.34 144.94 591.31 C 144.92 588.06 144.91 584.82 144.92 581.57 Z" />
<path fill="#f6f6f6" stroke="#f6f6f6" stroke-width="0.09375" opacity="1.00" d=" M 177.39 581.50 C 178.82 581.48 180.25 581.47 181.69 581.47 C 181.77 584.76 181.78 588.06 181.78 591.37 C 180.28 591.34 178.77 591.31 177.27 591.28 C 177.28 588.02 177.29 584.75 177.39 581.50 Z" />
<path fill="#f6f6f6" stroke="#f6f6f6" stroke-width="0.09375" opacity="1.00" d=" M 190.59 581.52 C 192.10 581.53 193.61 581.56 195.13 581.60 C 195.12 584.84 195.11 588.08 195.10 591.32 C 193.61 591.34 192.12 591.37 190.63 591.40 C 190.61 588.10 190.60 584.81 190.59 581.52 Z" />
<path fill="#f6f6f6" stroke="#f6f6f6" stroke-width="0.09375" opacity="1.00" d=" M 201.33 581.47 C 202.76 581.47 204.18 581.48 205.61 581.49 C 205.70 584.75 205.71 588.01 205.73 591.27 C 204.23 591.30 202.74 591.33 201.24 591.36 C 201.27 588.05 201.28 584.76 201.33 581.47 Z" />
<path fill="#f6f6f6" stroke="#f6f6f6" stroke-width="0.09375" opacity="1.00" d=" M 210.51 581.53 C 211.91 581.49 213.32 581.46 214.72 581.44 C 214.78 584.73 214.79 588.01 214.81 591.31 C 213.39 591.36 211.98 591.41 210.56 591.46 C 210.48 588.15 210.45 584.84 210.51 581.53 Z" />
<path fill="#f6f6f6" stroke="#f6f6f6" stroke-width="0.09375" opacity="1.00" d=" M 221.31 581.46 C 222.72 581.46 224.13 581.48 225.54 581.51 C 225.61 584.83 225.60 588.17 225.47 591.50 C 224.05 591.42 222.64 591.34 221.22 591.26 C 221.25 587.99 221.26 584.72 221.31 581.46 Z" />
<path fill="#f6f6f6" stroke="#f6f6f6" stroke-width="0.09375" opacity="1.00" d=" M 230.66 581.59 C 232.16 581.56 233.66 581.54 235.16 581.55 C 235.17 584.81 235.16 588.08 235.15 591.35 C 233.66 591.35 232.18 591.35 230.71 591.36 C 230.69 588.09 230.68 584.84 230.66 581.59 Z" />
<path fill="#f6f6f6" stroke="#f6f6f6" stroke-width="0.09375" opacity="1.00" d=" M 241.41 581.45 C 242.82 581.46 244.22 581.47 245.63 581.49 C 245.68 584.77 245.69 588.05 245.73 591.33 C 244.24 591.32 242.76 591.29 241.28 591.26 C 241.32 587.99 241.34 584.72 241.41 581.45 Z" />
<path fill="#f6f6f6" stroke="#f6f6f6" stroke-width="0.09375" opacity="1.00" d=" M 250.20 581.34 C 251.61 581.44 253.02 581.55 254.43 581.67 C 254.42 584.90 254.41 588.12 254.38 591.35 C 252.95 591.36 251.52 591.37 250.10 591.39 C 250.11 588.04 250.11 584.69 250.20 581.34 Z" />
<path fill="#f6f6f6" stroke="#f6f6f6" stroke-width="0.09375" opacity="1.00" d=" M 260.64 581.57 C 262.10 581.55 263.56 581.54 265.02 581.55 C 264.95 584.82 264.94 588.09 264.95 591.37 C 263.52 591.37 262.10 591.36 260.68 591.37 C 260.66 588.10 260.65 584.83 260.64 581.57 Z" />
<path fill="#f6f6f6" stroke="#f6f6f6" stroke-width="0.09375" opacity="1.00" d=" M 280.39 581.48 C 281.80 581.47 283.21 581.47 284.63 581.48 C 284.73 584.76 284.74 588.04 284.75 591.33 C 283.25 591.32 281.76 591.31 280.27 591.30 C 280.31 588.02 280.32 584.74 280.39 581.48 Z" />
<path fill="#f6f6f6" stroke="#f6f6f6" stroke-width="0.09375" opacity="1.00" d=" M 291.36 581.49 C 292.79 581.48 294.21 581.48 295.64 581.48 C 295.71 584.76 295.72 588.03 295.75 591.31 C 294.25 591.32 292.75 591.32 291.26 591.33 C 291.27 588.05 291.28 584.77 291.36 581.49 Z" />
<path fill="#f6f6f6" stroke="#f6f6f6" stroke-width="0.09375" opacity="1.00" d=" M 301.86 581.58 C 303.39 581.56 304.92 581.55 306.46 581.56 C 306.47 584.83 306.46 588.10 306.43 591.38 C 304.91 591.36 303.40 591.34 301.89 591.33 C 301.87 588.07 301.86 584.83 301.86 581.58 Z" />
<path fill="#f6f6f6" stroke="#f6f6f6" stroke-width="0.09375" opacity="1.00" d=" M 314.90 581.53 C 316.41 581.54 317.91 581.56 319.43 581.59 C 319.43 584.84 319.42 588.10 319.37 591.35 C 317.88 591.35 316.40 591.36 314.92 591.36 C 314.90 588.08 314.90 584.81 314.90 581.53 Z" />
<path fill="#f6f6f6" stroke="#f6f6f6" stroke-width="0.09375" opacity="1.00" d=" M 325.50 581.53 C 327.05 581.53 328.59 581.56 330.14 581.60 C 330.14 584.84 330.13 588.07 330.13 591.31 C 328.59 591.33 327.06 591.35 325.53 591.38 C 325.50 588.09 325.50 584.81 325.50 581.53 Z" />
<path fill="#f6f6f6" stroke="#f6f6f6" stroke-width="0.09375" opacity="1.00" d=" M 345.52 581.64 C 346.92 581.54 348.33 581.45 349.74 581.37 C 349.86 584.69 349.87 588.02 349.88 591.35 C 348.43 591.35 346.99 591.36 345.54 591.37 C 345.53 588.12 345.52 584.88 345.52 581.64 Z" />
<path fill="#f6f6f6" stroke="#f6f6f6" stroke-width="0.09375" opacity="1.00" d=" M 355.25 581.32 C 356.65 581.43 358.05 581.54 359.45 581.67 C 359.43 584.90 359.42 588.14 359.39 591.38 C 357.96 591.37 356.53 591.36 355.10 591.36 C 355.10 588.01 355.12 584.66 355.25 581.32 Z" />
<path fill="#f6f6f6" stroke="#f6f6f6" stroke-width="0.09375" opacity="1.00" d=" M 365.58 581.57 C 367.10 581.56 368.62 581.56 370.14 581.59 C 370.13 584.84 370.12 588.09 370.11 591.35 C 368.61 591.35 367.12 591.35 365.64 591.35 C 365.59 588.09 365.58 584.83 365.58 581.57 Z" />
<path fill="#f6f6f6" stroke="#f6f6f6" stroke-width="0.09375" opacity="1.00" d=" M 374.44 581.48 C 375.83 581.47 377.24 581.47 378.64 581.48 C 378.74 584.72 378.75 587.97 378.77 591.23 C 377.34 591.32 375.92 591.42 374.51 591.53 C 374.40 588.18 374.38 584.82 374.44 581.48 Z" />
<path fill="#f6f6f6" stroke="#f6f6f6" stroke-width="0.09375" opacity="1.00" d=" M 385.21 581.34 C 386.60 581.43 387.99 581.54 389.39 581.65 C 389.37 584.88 389.37 588.12 389.36 591.36 C 387.93 591.36 386.51 591.37 385.10 591.38 C 385.11 588.03 385.11 584.68 385.21 581.34 Z" />
<path fill="#f6f6f6" stroke="#f6f6f6" stroke-width="0.09375" opacity="1.00" d=" M 394.09 591.37 C 394.51 587.53 391.93 579.59 398.49 581.51 C 398.50 584.79 398.49 588.08 398.45 591.37 C 396.99 591.37 395.54 591.36 394.09 591.37 Z" />
<path fill="#f6f6f6" stroke="#f6f6f6" stroke-width="0.09375" opacity="1.00" d=" M 404.58 581.56 C 406.10 581.55 407.63 581.56 409.16 581.58 C 409.16 584.83 409.15 588.09 409.14 591.34 C 407.63 591.35 406.12 591.36 404.62 591.38 C 404.59 588.10 404.58 584.83 404.58 581.56 Z" />
<path fill="#f6f6f6" stroke="#f6f6f6" stroke-width="0.09375" opacity="1.00" d=" M 426.38 581.51 C 427.79 581.48 429.21 581.47 430.63 581.46 C 430.71 584.75 430.72 588.04 430.75 591.33 C 429.25 591.32 427.76 591.31 426.27 591.30 C 426.29 588.03 426.30 584.77 426.38 581.51 Z" />
<path fill="#f6f6f6" stroke="#f6f6f6" stroke-width="0.09375" opacity="1.00" d=" M 439.34 581.48 C 440.77 581.47 442.19 581.48 443.63 581.49 C 443.70 584.76 443.71 588.02 443.74 591.30 C 442.24 591.31 440.74 591.33 439.25 591.34 C 439.26 588.05 439.27 584.76 439.34 581.48 Z" />
<path fill="#f6f6f6" stroke="#f6f6f6" stroke-width="0.09375" opacity="1.00" d=" M 459.34 581.48 C 460.75 581.47 462.16 581.47 463.57 581.48 C 463.65 584.83 463.63 588.18 463.50 591.53 C 462.07 591.43 460.65 591.33 459.24 591.23 C 459.27 587.98 459.28 584.73 459.34 581.48 Z" />
<path fill="#f6f6f6" stroke="#f6f6f6" stroke-width="0.09375" opacity="1.00" d=" M 479.43 581.49 C 480.83 581.47 482.23 581.47 483.64 581.47 C 483.68 584.77 483.69 588.08 483.74 591.39 C 477.17 593.15 479.76 585.32 479.43 581.49 Z" />
<path fill="#f6f6f6" stroke="#f6f6f6" stroke-width="0.09375" opacity="1.00" d=" M 489.84 581.59 C 491.36 581.55 492.88 581.54 494.40 581.54 C 494.39 584.82 494.38 588.10 494.37 591.39 C 492.86 591.36 491.36 591.33 489.86 591.31 C 489.85 588.06 489.84 584.82 489.84 581.59 Z" />
<path fill="#f6f6f6" stroke="#f6f6f6" stroke-width="0.09375" opacity="1.00" d=" M 498.71 591.35 C 499.03 587.47 496.63 579.68 503.17 581.49 C 503.17 584.78 503.16 588.06 503.15 591.36 C 501.66 591.35 500.18 591.35 498.71 591.35 Z" />
<path fill="#f6f6f6" stroke="#f6f6f6" stroke-width="0.09375" opacity="1.00" d=" M 509.42 581.50 C 510.81 581.48 512.22 581.46 513.63 581.46 C 513.69 584.75 513.70 588.04 513.74 591.33 C 512.25 591.32 510.77 591.29 509.29 591.27 C 509.34 588.01 509.35 584.75 509.42 581.50 Z" />
<path fill="#f6f6f6" stroke="#f6f6f6" stroke-width="0.09375" opacity="1.00" d=" M 518.42 581.48 C 519.83 581.47 521.26 581.46 522.69 581.47 C 522.76 584.73 522.77 588.00 522.79 591.27 C 521.35 591.35 519.92 591.43 518.50 591.52 C 518.37 588.17 518.35 584.82 518.42 581.48 Z" />
<path fill="#f6f6f6" stroke="#f6f6f6" stroke-width="0.09375" opacity="1.00" d=" M 116.69 581.51 C 118.17 581.51 119.64 581.51 121.12 581.53 C 121.15 584.80 121.15 588.08 121.14 591.36 C 119.65 591.35 118.16 591.35 116.67 591.35 C 116.65 588.07 116.65 584.79 116.69 581.51 Z" />
<path fill="#f6f6f6" stroke="#f6f6f6" stroke-width="0.09375" opacity="1.00" d=" M 155.66 581.51 C 157.14 581.51 158.62 581.51 160.10 581.52 C 160.11 584.80 160.12 588.08 160.11 591.36 C 158.62 591.36 157.13 591.36 155.64 591.36 C 155.61 588.08 155.61 584.79 155.66 581.51 Z" />
<path fill="#f6f6f6" stroke="#f6f6f6" stroke-width="0.09375" opacity="1.00" d=" M 166.82 581.49 C 168.27 581.49 169.72 581.50 171.17 581.52 C 171.22 584.80 171.22 588.08 171.19 591.37 C 169.72 591.37 168.26 591.37 166.80 591.38 C 166.78 588.08 166.78 584.78 166.82 581.49 Z" />
<path fill="#f6f6f6" stroke="#f6f6f6" stroke-width="0.09375" opacity="1.00" d=" M 269.72 581.49 C 271.20 581.50 272.69 581.51 274.18 581.53 C 274.22 584.80 274.22 588.08 274.20 591.35 C 272.70 591.35 271.20 591.36 269.70 591.36 C 269.69 588.07 269.69 584.78 269.72 581.49 Z" />
<path fill="#f6f6f6" stroke="#f6f6f6" stroke-width="0.09375" opacity="1.00" d=" M 334.90 581.51 C 336.33 581.50 337.77 581.49 339.20 581.50 C 339.26 584.79 339.26 588.08 339.23 591.38 C 337.78 591.37 336.33 591.36 334.89 591.36 C 334.87 588.07 334.88 584.79 334.90 581.51 Z" />
<path fill="#f6f6f6" stroke="#f6f6f6" stroke-width="0.09375" opacity="1.00" d=" M 415.72 581.50 C 417.19 581.50 418.66 581.50 420.13 581.52 C 420.17 584.79 420.17 588.08 420.15 591.37 C 418.66 591.36 417.18 591.36 415.70 591.37 C 415.69 588.08 415.69 584.79 415.72 581.50 Z" />
<path fill="#f6f6f6" stroke="#f6f6f6" stroke-width="0.09375" opacity="1.00" d=" M 449.82 581.52 C 451.32 581.51 452.82 581.50 454.33 581.51 C 454.37 584.79 454.37 588.06 454.35 591.34 C 452.83 591.35 451.31 591.35 449.80 591.36 C 449.78 588.08 449.78 584.80 449.82 581.52 Z" />
<path fill="#f6f6f6" stroke="#f6f6f6" stroke-width="0.09375" opacity="1.00" d=" M 469.83 581.52 C 471.29 581.50 472.76 581.50 474.23 581.50 C 474.27 584.78 474.28 588.07 474.25 591.36 C 472.77 591.36 471.29 591.35 469.81 591.36 C 469.79 588.08 469.80 584.80 469.83 581.52 Z" />
</g>
<g id="#353a59f8">
<path fill="#353a59" stroke="#353a59" stroke-width="0.09375" opacity="0.97" d=" M 83.09 480.00 C 83.13 474.39 82.62 468.73 83.69 463.19 C 84.00 501.93 83.86 540.67 83.75 579.41 C 82.74 573.99 83.04 568.47 83.08 563.00 C 83.07 535.33 83.08 507.66 83.09 480.00 Z" />
</g>
<g id="#1b1e362d">
<path fill="#1b1e36" stroke="#1b1e36" stroke-width="0.09375" opacity="0.18" d=" M 159.73 609.69 C 159.76 610.50 159.80 611.33 159.84 612.16 C 153.67 612.78 147.49 613.28 141.38 614.27 C 136.31 614.69 131.20 614.37 126.16 615.18 C 119.63 615.81 113.06 616.12 106.54 616.84 C 106.67 618.23 106.80 619.64 106.95 621.05 C 106.68 619.13 106.34 617.23 106.05 615.33 C 121.41 614.41 136.72 612.71 152.08 611.74 C 154.74 611.54 157.27 610.64 159.73 609.69 Z" />
<path fill="#1b1e36" stroke="#1b1e36" stroke-width="0.09375" opacity="0.18" d=" M 93.98 612.24 C 96.56 612.78 99.14 613.29 101.73 613.76 C 101.85 614.26 102.07 615.26 102.19 615.75 C 99.56 615.03 96.84 614.73 94.13 615.00 C 94.09 614.31 94.02 612.93 93.98 612.24 Z" />
<path fill="#1b1e36" stroke="#1b1e36" stroke-width="0.09375" opacity="0.18" d=" M 70.31 619.09 C 72.04 618.86 73.77 618.68 75.51 618.52 C 74.67 620.29 73.26 621.58 71.44 622.33 C 71.05 621.25 70.67 620.16 70.31 619.09 Z" />
<path fill="#1b1e36" stroke="#1b1e36" stroke-width="0.09375" opacity="0.18" d=" M 64.21 619.16 C 64.88 619.12 66.22 619.03 66.88 618.99 C 66.96 619.76 67.11 621.31 67.19 622.09 C 66.43 622.05 64.91 621.99 64.15 621.96 C 64.16 621.26 64.20 619.86 64.21 619.16 Z" />
<path fill="#1b1e36" stroke="#1b1e36" stroke-width="0.09375" opacity="0.18" d=" M 198.75 632.34 C 197.40 629.39 197.32 626.28 200.01 624.07 C 199.49 626.95 200.13 629.82 201.51 632.37 C 200.82 632.36 199.44 632.35 198.75 632.34 Z" />
<path fill="#1b1e36" stroke="#1b1e36" stroke-width="0.09375" opacity="0.18" d=" M 176.34 633.55 C 183.33 632.38 190.45 631.62 197.53 632.35 C 191.38 633.08 185.22 634.03 179.02 633.93 C 178.35 633.83 177.01 633.64 176.34 633.55 Z" />
<path fill="#1b1e36" stroke="#1b1e36" stroke-width="0.09375" opacity="0.18" d=" M 59.92 643.20 C 70.81 642.57 81.65 641.07 92.56 640.78 C 92.68 641.10 92.94 641.73 93.07 642.05 C 77.93 643.15 62.82 644.70 47.66 645.56 C 51.39 643.50 55.79 643.60 59.92 643.20 Z" />
</g>
</svg>
