<?xml version="1.0" encoding="UTF-8" ?>
<!DOCTYPE svg PUBLIC "-//W3C//DTD SVG 1.1//EN" "http://www.w3.org/Graphics/SVG/1.1/DTD/svg11.dtd">
<svg width="600pt" height="1038pt" viewBox="0 0 600 1038" version="1.1" xmlns="http://www.w3.org/2000/svg">
<g id="#222953ff">
<path fill="#222953" stroke="#222953" stroke-width="0.09375" opacity="1.00" d=" M 357.40 17.49 C 384.55 17.46 411.70 17.53 438.85 17.46 C 438.91 18.04 439.03 19.21 439.09 19.80 C 412.16 20.12 385.14 19.31 358.26 20.19 C 349.12 28.69 340.45 37.76 331.56 46.55 C 329.61 48.22 328.01 51.14 325.09 50.87 C 304.63 50.86 284.16 50.90 263.70 50.84 C 263.80 50.23 263.99 49.03 264.08 48.42 C 284.75 48.48 305.41 48.41 326.07 48.46 C 336.65 38.28 346.92 27.77 357.40 17.49 Z" />
<path fill="#222953" stroke="#222953" stroke-width="0.09375" opacity="1.00" d=" M 558.42 42.08 C 579.87 41.11 600.55 60.13 599.05 82.00 C 600.47 103.83 579.83 122.72 558.44 121.81 C 558.42 117.33 558.43 112.85 558.39 108.37 C 547.99 105.93 537.96 99.33 535.17 88.44 C 506.78 88.10 478.36 88.62 449.99 88.19 C 441.97 81.83 435.51 73.64 427.80 66.90 C 423.84 66.18 419.77 66.68 415.77 66.61 C 415.73 68.05 415.69 69.50 415.66 70.94 C 381.28 70.95 346.90 70.99 312.52 70.92 C 312.72 72.30 312.73 73.69 312.35 75.04 C 310.88 73.72 309.47 72.35 308.07 70.96 C 243.69 70.94 179.31 70.95 114.93 70.97 C 113.61 70.99 112.20 70.78 111.31 69.69 C 104.78 63.38 98.52 56.80 91.93 50.54 C 64.66 50.44 37.37 50.60 10.10 50.46 C 7.79 50.47 9.06 47.27 8.59 45.87 C 35.73 45.78 62.87 45.90 90.01 45.80 C 91.97 45.82 94.20 45.77 95.54 47.46 C 101.23 53.10 106.84 58.82 112.57 64.41 C 114.88 67.19 118.78 66.05 121.92 66.43 C 123.99 69.50 127.89 68.22 131.00 68.46 C 185.08 68.38 239.16 68.48 293.25 68.41 C 293.27 66.25 293.29 64.08 293.32 61.92 C 337.21 61.68 381.11 61.94 425.00 61.78 C 426.98 61.89 429.37 61.49 430.84 63.16 C 437.74 69.93 444.60 76.74 451.40 83.61 C 479.00 83.72 506.61 83.55 534.21 83.70 C 533.59 69.89 544.59 57.29 558.42 56.30 C 558.42 51.56 558.42 46.82 558.42 42.08 M 560.15 43.85 C 560.03 48.02 560.07 52.19 560.34 56.35 C 573.90 56.45 586.22 68.24 585.77 82.01 C 586.13 95.75 573.81 107.34 560.32 107.59 C 560.07 111.75 560.04 115.91 560.15 120.07 C 572.39 119.80 584.48 113.53 591.23 103.23 C 599.41 91.43 599.89 74.88 592.46 62.61 C 585.97 51.26 573.18 44.02 560.15 43.85 M 537.36 83.51 C 538.66 83.60 539.97 83.69 541.29 83.79 C 541.18 85.09 541.08 86.39 540.99 87.69 C 540.35 88.00 539.07 88.61 538.43 88.91 C 541.46 97.44 549.40 103.61 558.39 104.55 C 558.39 103.67 558.40 101.90 558.41 101.02 C 545.24 99.82 536.63 84.10 543.58 72.62 C 546.52 67.12 552.38 64.01 558.34 62.92 C 558.36 62.03 558.41 60.24 558.43 59.34 C 546.34 60.30 536.63 71.39 537.36 83.51 M 560.07 59.51 C 560.09 60.31 560.13 61.90 560.15 62.70 C 571.54 63.27 580.89 73.78 579.07 85.29 C 575.85 84.91 572.65 84.43 569.47 83.81 C 569.36 78.33 565.85 73.59 560.28 72.81 C 560.02 78.76 560.07 84.72 560.23 90.67 C 561.76 90.47 563.29 90.28 564.82 90.08 C 566.53 92.87 568.06 95.78 569.28 98.82 C 566.27 99.73 563.22 100.52 560.15 101.20 C 560.13 102.00 560.09 103.61 560.07 104.42 C 572.54 104.91 583.65 93.34 582.83 80.95 C 582.49 69.25 571.87 58.98 560.07 59.51 M 558.33 90.85 C 558.48 84.91 558.49 78.98 558.32 73.05 C 549.25 75.26 549.28 88.65 558.33 90.85 Z" />
<path fill="#222953" stroke="#222953" stroke-width="0.09375" opacity="1.00" d=" M 317.11 80.26 C 317.60 79.90 318.59 79.19 319.09 78.84 C 321.03 80.80 322.94 82.80 324.84 84.82 C 324.37 85.25 323.44 86.10 322.97 86.53 C 320.97 84.48 319.03 82.38 317.11 80.26 Z" />
<path fill="#222953" stroke="#222953" stroke-width="0.09375" opacity="1.00" d=" M 568.55 85.13 C 571.72 86.10 574.86 87.19 577.95 88.38 C 576.53 91.44 574.53 94.19 572.05 96.49 C 569.90 94.14 567.88 91.67 566.00 89.09 C 566.85 87.78 567.70 86.45 568.55 85.13 Z" />
<path fill="#222953" stroke="#222953" stroke-width="0.09375" opacity="1.00" d=" M 328.13 91.75 C 332.03 89.81 333.91 94.99 336.27 97.17 C 332.46 99.09 330.46 93.84 328.13 91.75 Z" />
<path fill="#222953" stroke="#222953" stroke-width="0.09375" opacity="1.00" d=" M 341.23 102.22 C 342.21 103.21 343.19 104.21 344.18 105.21 C 345.61 105.30 347.06 105.39 348.50 105.48 C 348.54 106.07 348.62 107.25 348.66 107.84 C 346.82 107.89 344.99 107.93 343.16 107.96 C 341.98 106.67 340.80 105.38 339.63 104.08 C 340.03 103.62 340.83 102.69 341.23 102.22 Z" />
<path fill="#222953" stroke="#222953" stroke-width="0.09375" opacity="1.00" d=" M 0.00 106.52 C 3.23 104.06 6.60 105.45 8.75 108.52 C 17.96 108.65 27.18 108.63 36.39 108.54 C 38.35 105.35 43.89 103.12 45.33 107.98 C 44.20 112.25 40.99 116.77 43.85 121.13 C 46.81 125.01 42.22 128.81 42.73 132.97 C 42.77 298.64 42.73 464.31 42.79 629.98 C 45.40 629.15 48.03 628.35 50.67 627.62 C 50.94 626.57 51.22 625.53 51.50 624.50 C 55.04 624.19 58.56 623.81 62.10 623.53 C 62.23 621.70 62.36 619.87 62.49 618.05 C 67.31 617.32 72.19 617.04 77.07 617.14 C 83.26 609.30 95.22 610.49 103.90 612.66 C 105.35 608.33 108.53 605.02 111.28 601.51 C 111.40 601.93 111.64 602.76 111.76 603.18 C 108.58 606.54 104.93 610.28 105.68 615.36 C 105.90 617.34 106.26 619.31 106.57 621.29 C 106.64 621.82 106.77 622.89 106.84 623.42 C 113.43 620.97 119.46 617.15 126.35 615.48 C 131.32 615.17 136.31 615.19 141.28 614.74 C 148.42 615.12 155.14 617.72 161.66 620.46 C 161.21 617.67 160.75 614.88 160.21 612.12 C 159.99 610.99 159.74 609.87 159.46 608.77 C 157.65 603.36 151.68 600.79 147.31 597.66 C 141.80 596.41 136.06 598.02 130.47 598.20 C 130.08 598.12 129.29 597.95 128.89 597.86 C 132.03 597.52 135.19 597.13 138.22 596.18 C 120.19 594.97 102.06 596.05 84.00 595.69 C 75.67 595.26 67.16 596.75 58.98 594.68 C 59.01 594.16 59.06 593.11 59.09 592.59 C 59.64 589.59 59.68 586.54 59.32 583.53 C 59.28 581.00 59.27 578.47 59.24 575.95 C 59.56 576.02 60.20 576.16 60.51 576.22 C 61.22 576.99 61.91 577.78 62.59 578.58 C 67.27 578.79 71.96 578.74 76.64 578.53 C 77.41 540.17 77.15 501.74 76.77 463.38 C 71.17 463.29 65.56 463.23 59.96 463.10 C 59.69 462.02 59.45 460.95 59.22 459.87 C 59.20 459.51 59.17 458.77 59.15 458.40 C 59.68 454.31 60.00 450.20 60.07 446.08 C 216.13 445.72 372.19 446.12 528.24 445.88 C 528.62 446.23 529.38 446.94 529.76 447.29 C 529.35 452.80 529.38 458.33 529.90 463.83 C 506.93 462.68 483.91 464.10 460.94 463.03 C 459.52 463.06 456.79 462.67 457.17 464.95 C 458.45 502.69 455.94 540.54 457.83 578.28 C 478.53 579.17 499.28 578.30 520.00 578.74 C 523.13 579.00 526.18 578.26 528.79 576.49 C 529.05 576.36 529.59 576.12 529.85 576.00 C 529.58 582.53 529.19 589.08 529.67 595.62 C 420.13 595.92 310.55 595.80 201.00 595.78 C 183.41 596.67 165.71 594.63 148.15 596.44 C 149.17 597.19 150.19 597.99 151.22 598.75 C 153.98 600.97 157.23 602.69 159.47 605.48 C 160.99 609.13 161.47 613.12 162.48 616.93 C 164.41 616.57 166.33 616.18 168.26 615.78 C 167.45 614.04 166.61 612.31 165.76 610.60 C 171.32 604.57 180.49 603.59 187.97 606.04 C 190.77 607.25 189.15 610.77 189.32 613.09 C 192.97 613.95 196.77 614.30 200.31 615.60 C 201.81 622.30 203.72 629.04 203.06 635.99 C 204.42 655.08 206.20 674.14 208.12 693.18 C 198.21 696.76 187.37 694.95 177.15 696.85 C 174.34 698.34 172.45 701.04 170.08 703.11 C 154.63 717.03 130.10 719.39 112.27 708.66 C 108.71 706.71 105.48 703.12 101.03 703.95 C 86.33 705.09 71.59 705.89 56.90 707.21 C 54.11 707.55 51.37 706.87 48.71 706.15 C 47.79 686.95 46.42 667.71 44.10 648.64 L 43.01 647.72 L 42.29 647.10 C 41.91 646.78 41.16 646.15 40.79 645.84 C 39.98 642.20 41.62 638.66 41.62 635.03 C 41.73 466.42 41.46 297.80 41.68 129.18 C 39.34 127.54 37.22 124.92 34.07 125.20 C 25.59 125.18 17.10 125.14 8.62 125.31 C 6.35 127.98 3.20 128.78 0.00 127.21 L 0.00 123.11 C 0.83 122.02 1.69 120.95 2.55 119.90 C 2.76 116.33 2.21 112.77 0.00 109.85 L 0.00 106.52 M 3.48 113.78 C 3.55 115.74 3.60 117.71 3.68 119.67 C 5.42 120.92 7.04 122.33 8.48 123.93 C 17.90 124.20 27.34 124.14 36.77 123.96 C 38.27 122.37 39.90 120.91 41.61 119.55 C 41.63 117.57 41.64 115.59 41.64 113.60 C 39.98 112.42 38.37 111.17 36.82 109.84 C 28.20 109.68 19.57 109.77 10.95 109.74 C 7.85 109.48 5.84 112.27 3.48 113.78 M 66.08 450.77 C 65.94 453.99 65.90 457.21 65.91 460.43 C 67.39 460.44 68.88 460.46 70.37 460.47 C 70.38 457.23 70.37 453.99 70.33 450.75 C 68.91 450.75 67.50 450.76 66.08 450.77 M 76.62 450.78 C 76.57 453.96 76.56 457.13 76.53 460.31 C 77.94 460.43 79.34 460.54 80.75 460.66 C 80.87 457.36 80.87 454.05 80.84 450.75 C 79.43 450.76 78.03 450.77 76.62 450.78 M 85.89 450.76 C 85.88 454.00 85.88 457.23 85.89 460.48 C 87.37 460.47 88.84 460.46 90.32 460.46 C 90.34 457.23 90.34 454.00 90.29 450.77 C 88.82 450.76 87.36 450.76 85.89 450.76 M 96.56 450.78 C 96.52 453.97 96.51 457.16 96.49 460.36 C 97.92 460.44 99.36 460.53 100.80 460.62 C 101.14 457.35 101.15 454.05 100.87 450.78 C 99.43 450.77 97.99 450.77 96.56 450.78 M 106.16 450.68 C 106.47 454.54 103.97 462.24 110.48 460.59 C 110.54 457.37 110.54 454.16 110.55 450.95 C 109.09 450.85 107.62 450.76 106.16 450.68 M 116.68 450.75 C 116.65 453.98 116.65 457.22 116.65 460.45 C 118.14 460.45 119.64 460.45 121.13 460.45 C 121.15 457.23 121.15 454.01 121.14 450.80 C 119.65 450.77 118.17 450.76 116.68 450.75 M 125.27 450.85 C 125.27 454.06 125.28 457.27 125.35 460.48 C 126.80 460.49 128.24 460.51 129.69 460.53 C 129.78 457.28 129.79 454.02 129.78 450.78 C 128.27 450.79 126.77 450.81 125.27 450.85 M 136.09 450.81 C 135.89 454.01 135.84 457.21 135.84 460.41 C 137.36 460.44 138.88 460.46 140.41 460.49 C 140.41 457.24 140.41 454.00 140.39 450.76 C 138.96 450.77 137.52 450.78 136.09 450.81 M 145.12 450.78 C 144.96 453.99 144.89 457.20 144.88 460.41 C 146.42 460.43 147.95 460.44 149.49 460.45 C 149.47 457.21 149.46 453.98 149.40 450.75 C 147.97 450.75 146.54 450.76 145.12 450.78 M 155.64 450.78 C 155.61 454.01 155.61 457.23 155.62 460.46 C 157.13 460.46 158.63 460.45 160.14 460.45 C 160.14 457.21 160.07 453.98 159.88 450.75 C 158.47 450.76 157.06 450.77 155.64 450.78 M 166.80 450.76 C 166.78 454.00 166.78 457.24 166.80 460.48 C 168.26 460.47 169.73 460.46 171.19 460.45 C 171.22 457.22 171.21 454.00 171.19 450.78 C 169.73 450.76 168.26 450.76 166.80 450.76 M 177.29 450.83 C 177.29 454.05 177.30 457.27 177.36 460.49 C 178.80 460.50 180.24 460.51 181.69 460.53 C 181.77 457.28 181.78 454.04 181.75 450.80 C 180.26 450.80 178.78 450.81 177.29 450.83 M 190.63 450.76 C 190.60 454.00 190.60 457.24 190.60 460.48 C 192.11 460.46 193.62 460.43 195.13 460.41 C 195.14 457.20 195.09 453.99 194.91 450.79 C 193.48 450.77 192.06 450.76 190.63 450.76 M 201.29 450.79 C 201.28 454.03 201.28 457.28 201.33 460.52 C 202.76 460.51 204.20 460.50 205.64 460.50 C 205.70 457.28 205.70 454.06 205.69 450.84 C 204.22 450.81 202.75 450.80 201.29 450.79 M 210.45 450.90 C 210.47 454.08 210.48 457.27 210.50 460.46 C 211.90 460.49 213.31 460.51 214.72 460.55 C 214.79 457.27 214.79 453.99 214.76 450.72 C 213.32 450.77 211.88 450.83 210.45 450.90 M 221.27 450.76 C 221.25 454.01 221.25 457.27 221.31 460.53 C 222.72 460.50 224.13 460.49 225.55 460.47 C 225.58 457.27 225.59 454.07 225.62 450.88 C 224.16 450.83 222.71 450.79 221.27 450.76 M 230.72 450.75 C 230.69 453.99 230.68 457.23 230.69 460.48 C 232.18 460.46 233.66 460.45 235.15 460.44 C 235.16 457.22 235.16 454.00 235.16 450.79 C 233.67 450.77 232.20 450.76 230.72 450.75 M 241.34 450.84 C 241.33 454.05 241.33 457.27 241.38 460.49 C 242.80 460.49 244.22 460.50 245.64 460.51 C 245.68 457.27 245.69 454.04 245.70 450.81 C 244.24 450.81 242.79 450.81 241.34 450.84 M 250.16 450.75 C 250.12 453.99 250.11 457.23 250.09 460.47 C 251.52 460.46 252.96 460.45 254.41 460.44 C 254.42 457.22 254.41 454.00 254.37 450.78 C 252.96 450.76 251.56 450.75 250.16 450.75 M 260.70 450.77 C 260.66 454.00 260.65 457.23 260.67 460.47 C 262.10 460.47 263.54 460.47 264.98 460.47 C 264.95 457.23 264.94 453.99 264.91 450.76 C 263.50 450.75 262.10 450.76 260.70 450.77 M 269.72 450.75 C 269.69 453.99 269.69 457.24 269.70 460.48 C 271.20 460.46 272.70 460.45 274.20 460.43 C 274.22 457.21 274.22 454.00 274.20 450.78 C 272.71 450.77 271.21 450.76 269.72 450.75 M 280.31 450.82 C 280.31 454.04 280.32 457.27 280.36 460.50 C 281.79 460.50 283.22 460.50 284.66 460.51 C 284.73 457.28 284.74 454.05 284.73 450.83 C 283.25 450.81 281.78 450.81 280.31 450.82 M 291.29 450.81 C 291.27 454.04 291.27 457.27 291.33 460.50 C 292.77 460.50 294.22 460.49 295.67 460.50 C 295.71 457.27 295.71 454.04 295.70 450.82 C 294.22 450.80 292.75 450.80 291.29 450.81 M 302.05 450.78 C 301.88 453.99 301.85 457.20 301.85 460.42 C 303.38 460.44 304.91 460.46 306.45 460.48 C 306.46 457.24 306.46 454.01 306.41 450.77 C 304.95 450.77 303.50 450.77 302.05 450.78 M 315.06 450.75 C 314.92 453.98 314.89 457.22 314.89 460.46 C 316.40 460.45 317.90 460.45 319.42 460.45 C 319.42 457.22 319.41 454.00 319.36 450.78 C 317.93 450.76 316.49 450.76 315.06 450.75 M 325.55 450.75 C 325.51 453.98 325.50 457.21 325.48 460.45 C 327.04 460.44 328.60 460.43 330.17 460.40 C 330.16 457.21 330.12 454.02 329.96 450.84 C 328.49 450.80 327.02 450.77 325.55 450.75 M 334.89 450.77 C 334.88 454.00 334.88 457.23 334.89 460.47 C 336.33 460.47 337.78 460.46 339.23 460.46 C 339.26 457.22 339.26 453.99 339.24 450.76 C 337.78 450.76 336.33 450.76 334.89 450.77 M 345.57 450.77 C 345.53 453.95 345.52 457.14 345.49 460.34 C 346.90 460.44 348.31 460.53 349.73 460.64 C 349.87 457.35 349.88 454.07 349.84 450.78 C 348.41 450.77 346.99 450.76 345.57 450.77 M 355.16 450.77 C 355.54 454.53 352.96 462.27 359.42 460.57 C 359.44 457.30 359.43 454.03 359.38 450.77 C 357.97 450.76 356.57 450.76 355.16 450.77 M 365.64 450.77 C 365.59 453.99 365.58 457.23 365.59 460.46 C 367.10 460.45 368.61 460.44 370.13 460.43 C 370.13 457.21 370.12 454.00 370.07 450.78 C 368.59 450.77 367.11 450.76 365.64 450.77 M 374.37 450.85 C 374.39 454.06 374.40 457.26 374.42 460.47 C 375.84 460.49 377.25 460.50 378.67 460.52 C 378.74 457.28 378.75 454.03 378.74 450.79 C 377.28 450.80 375.82 450.82 374.37 450.85 M 385.15 450.75 C 385.09 454.05 385.10 457.36 385.25 460.67 C 386.63 460.54 388.02 460.43 389.41 460.32 C 389.37 457.13 389.37 453.95 389.34 450.77 C 387.94 450.76 386.55 450.75 385.15 450.75 M 394.10 450.75 C 394.07 454.06 394.08 457.36 394.23 460.67 C 395.65 460.54 397.08 460.43 398.51 460.31 C 398.49 457.13 398.48 453.95 398.42 450.77 C 396.98 450.76 395.54 450.75 394.10 450.75 M 404.62 450.76 C 404.59 454.00 404.59 457.23 404.59 460.47 C 406.11 460.46 407.63 460.44 409.16 460.42 C 409.16 457.21 409.15 454.01 409.10 450.80 C 407.60 450.78 406.11 450.77 404.62 450.76 M 415.73 450.76 C 415.69 454.00 415.69 457.24 415.70 460.49 C 417.18 460.47 418.66 460.47 420.15 460.46 C 420.16 457.22 420.16 453.99 420.15 450.76 C 418.67 450.75 417.20 450.75 415.73 450.76 M 426.29 450.84 C 426.29 454.05 426.30 457.27 426.37 460.49 C 427.79 460.49 429.22 460.50 430.65 460.51 C 430.72 457.27 430.72 454.04 430.71 450.81 C 429.23 450.81 427.76 450.82 426.29 450.84 M 439.28 450.77 C 439.27 454.01 439.27 457.26 439.33 460.51 C 440.76 460.50 442.20 460.50 443.64 460.50 C 443.71 457.28 443.71 454.06 443.70 450.85 C 442.22 450.81 440.74 450.79 439.28 450.77 M 449.79 450.78 C 449.78 454.00 449.78 457.23 449.80 460.46 C 451.32 460.46 452.84 460.46 454.37 460.46 C 454.37 457.22 454.37 453.99 454.32 450.77 C 452.81 450.76 451.30 450.77 449.79 450.78 M 459.29 450.76 C 459.27 454.01 459.28 457.27 459.32 460.52 C 460.74 460.51 462.16 460.49 463.59 460.49 C 463.62 457.28 463.63 454.07 463.62 450.86 C 462.17 450.82 460.73 450.78 459.29 450.76 M 469.81 450.78 C 469.79 454.01 469.79 457.23 469.82 460.46 C 471.29 460.46 472.77 460.46 474.25 460.47 C 474.27 457.23 474.27 453.99 474.25 450.76 C 472.77 450.76 471.28 450.77 469.81 450.78 M 479.35 450.83 C 479.35 454.05 479.36 457.26 479.39 460.48 C 480.81 460.48 482.22 460.49 483.65 460.50 C 483.69 457.27 483.69 454.04 483.68 450.81 C 482.23 450.81 480.79 450.81 479.35 450.83 M 489.86 450.79 C 489.84 454.00 489.84 457.20 489.85 460.41 C 491.36 460.43 492.87 460.46 494.39 460.48 C 494.38 457.24 494.38 454.00 494.36 450.76 C 492.85 450.76 491.35 450.77 489.86 450.79 M 498.72 450.75 C 498.69 453.99 498.69 457.22 498.70 460.46 C 500.18 460.45 501.66 460.45 503.16 460.44 C 503.17 457.22 503.16 454.00 503.16 450.79 C 501.67 450.77 500.19 450.76 498.72 450.75 M 509.34 450.85 C 509.34 454.05 509.35 457.27 509.39 460.48 C 510.80 460.49 512.22 460.50 513.65 460.51 C 513.69 457.27 513.69 454.04 513.70 450.81 C 512.24 450.81 510.79 450.82 509.34 450.85 M 518.37 450.85 C 518.37 454.06 518.38 457.27 518.41 460.48 C 519.83 460.49 521.25 460.51 522.69 460.53 C 522.77 457.28 522.77 454.03 522.74 450.79 C 521.28 450.80 519.82 450.82 518.37 450.85 M 84.36 465.97 C 84.26 503.31 84.26 540.67 84.37 578.01 C 89.53 578.96 94.79 578.65 100.00 578.64 C 133.87 578.25 167.82 579.44 201.62 578.04 C 201.54 539.92 202.11 501.75 201.35 463.66 C 164.28 462.67 127.09 463.60 89.98 463.20 C 87.82 463.35 83.83 462.58 84.36 465.97 M 209.13 463.67 C 208.88 501.80 208.81 539.95 209.16 578.08 C 214.40 578.95 219.71 578.64 224.99 578.64 C 258.59 578.28 292.26 579.39 325.81 578.08 C 326.14 539.97 325.97 501.85 325.89 463.75 C 322.61 463.36 319.30 463.18 315.99 463.25 C 280.38 463.60 244.72 462.77 209.13 463.67 M 333.59 463.58 C 332.88 500.39 333.45 537.25 333.30 574.08 C 332.31 579.44 338.52 578.58 342.00 578.69 C 378.01 578.31 414.07 579.23 450.06 578.23 C 450.67 540.06 450.50 501.83 450.15 463.65 C 411.32 463.01 372.42 463.16 333.59 463.58 M 65.90 581.57 C 65.92 584.82 65.92 588.07 65.93 591.33 C 67.40 591.35 68.87 591.36 70.35 591.39 C 70.37 588.11 70.38 584.84 70.39 581.57 C 68.90 581.55 67.40 581.56 65.90 581.57 M 76.55 581.70 C 76.56 584.92 76.57 588.14 76.61 591.37 C 78.03 591.36 79.46 591.36 80.89 591.36 C 80.87 588.01 80.86 584.67 80.76 581.33 C 79.36 581.44 77.95 581.56 76.55 581.70 M 85.91 581.54 C 85.88 584.82 85.88 588.10 85.89 591.38 C 87.37 591.36 88.85 591.35 90.33 591.34 C 90.35 588.04 90.34 584.73 90.20 581.43 C 88.77 581.46 87.34 581.50 85.91 581.54 M 96.50 581.67 C 96.51 584.90 96.52 588.14 96.54 591.38 C 98.07 591.36 99.60 591.33 101.13 591.31 C 101.17 587.98 101.07 584.66 100.76 581.34 C 99.34 581.44 97.92 581.55 96.50 581.67 M 106.10 591.31 C 107.53 591.35 108.97 591.41 110.40 591.46 C 110.55 588.10 110.57 584.74 110.47 581.38 C 103.99 579.79 106.50 587.46 106.10 591.31 M 125.38 581.47 C 125.28 584.74 125.27 588.01 125.25 591.28 C 126.77 591.31 128.28 591.33 129.80 591.35 C 129.79 588.05 129.77 584.75 129.67 581.46 C 128.24 581.46 126.81 581.46 125.38 581.47 M 135.88 591.33 C 137.38 591.35 138.89 591.37 140.39 591.39 C 140.40 588.09 140.42 584.80 140.44 581.51 C 133.86 579.63 136.16 587.39 135.88 591.33 M 144.93 581.58 C 144.92 584.82 144.92 588.06 144.94 591.31 C 146.43 591.34 147.93 591.38 149.43 591.42 C 149.46 588.12 149.47 584.82 149.48 581.53 C 147.96 581.53 146.45 581.55 144.93 581.58 M 155.60 581.71 C 155.61 584.92 155.62 588.14 155.65 591.36 C 157.14 591.36 158.63 591.35 160.13 591.35 C 160.16 588.00 160.10 584.65 159.84 581.31 C 158.42 581.43 157.01 581.56 155.60 581.71 M 177.39 581.49 C 177.30 584.75 177.29 588.01 177.26 591.27 C 178.77 591.30 180.28 591.33 181.80 591.35 C 181.78 588.05 181.76 584.75 181.68 581.46 C 180.25 581.46 178.82 581.47 177.39 581.49 M 190.58 581.55 C 190.60 584.83 190.61 588.11 190.63 591.39 C 192.12 591.36 193.61 591.34 195.10 591.31 C 195.11 588.07 195.12 584.84 195.13 581.60 C 193.61 581.57 192.10 581.55 190.58 581.55 M 201.35 581.46 C 201.28 584.75 201.27 588.04 201.24 591.34 C 202.73 591.32 204.23 591.29 205.74 591.27 C 205.71 588.00 205.69 584.75 205.60 581.49 C 204.18 581.47 202.76 581.46 201.35 581.46 M 210.51 581.54 C 210.46 584.85 210.46 588.16 210.59 591.48 C 212.00 591.41 213.40 591.35 214.82 591.29 C 214.79 588.00 214.78 584.71 214.71 581.43 C 213.31 581.45 211.91 581.49 210.51 581.54 M 221.33 581.45 C 221.26 584.71 221.25 587.97 221.22 591.25 C 222.62 591.33 224.03 591.42 225.45 591.51 C 225.61 588.18 225.62 584.84 225.53 581.51 C 224.13 581.48 222.72 581.46 221.33 581.45 M 230.71 591.35 C 232.18 591.35 233.66 591.35 235.15 591.35 C 235.16 588.06 235.17 584.79 235.17 581.51 C 228.61 579.66 231.03 587.46 230.71 591.35 M 241.41 581.45 C 241.34 584.72 241.32 588.00 241.28 591.28 C 242.76 591.29 244.25 591.30 245.74 591.31 C 245.69 588.03 245.68 584.75 245.62 581.48 C 244.21 581.46 242.81 581.45 241.41 581.45 M 250.22 581.32 C 250.11 584.67 250.10 588.02 250.09 591.38 C 251.52 591.37 252.95 591.36 254.38 591.35 C 254.41 588.13 254.42 584.91 254.43 581.70 C 253.03 581.56 251.62 581.44 250.22 581.32 M 260.64 581.54 C 260.66 584.81 260.66 588.09 260.68 591.37 C 262.10 591.36 263.52 591.36 264.95 591.37 C 264.51 587.60 267.10 579.54 260.64 581.54 M 280.40 581.47 C 280.32 584.74 280.31 588.01 280.27 591.29 C 281.76 591.30 283.26 591.31 284.76 591.32 C 284.74 588.03 284.73 584.76 284.63 581.48 C 283.21 581.47 281.80 581.46 280.40 581.47 M 291.37 581.49 C 291.28 584.75 291.27 588.03 291.24 591.30 C 292.74 591.31 294.25 591.32 295.75 591.32 C 295.72 588.04 295.70 584.76 295.64 581.48 C 294.21 581.47 292.79 581.47 291.37 581.49 M 301.86 581.59 C 301.86 584.83 301.87 588.07 301.89 591.32 C 303.40 591.34 304.91 591.36 306.43 591.38 C 306.46 588.11 306.47 584.84 306.47 581.58 C 304.93 581.56 303.39 581.57 301.86 581.59 M 314.89 581.55 C 314.90 584.82 314.90 588.09 314.92 591.36 C 316.40 591.35 317.88 591.35 319.37 591.35 C 319.42 588.10 319.43 584.85 319.43 581.60 C 317.92 581.56 316.40 581.55 314.89 581.55 M 325.50 581.54 C 325.50 584.82 325.50 588.10 325.53 591.38 C 327.06 591.35 328.59 591.33 330.12 591.31 C 330.13 588.07 330.14 584.83 330.14 581.60 C 328.59 581.56 327.04 581.54 325.50 581.54 M 345.51 581.67 C 345.52 584.90 345.53 588.13 345.55 591.38 C 346.99 591.36 348.44 591.35 349.89 591.34 C 349.87 588.00 349.86 584.67 349.72 581.34 C 348.31 581.44 346.91 581.55 345.51 581.67 M 355.26 581.32 C 355.11 584.66 355.10 588.00 355.09 591.35 C 356.52 591.35 357.95 591.36 359.39 591.38 C 359.42 588.14 359.43 584.91 359.45 581.69 C 358.05 581.55 356.66 581.43 355.26 581.32 M 365.57 581.58 C 365.58 584.84 365.59 588.09 365.64 591.35 C 367.12 591.35 368.61 591.35 370.11 591.35 C 370.12 588.09 370.13 584.84 370.15 581.59 C 368.62 581.57 367.09 581.56 365.57 581.58 M 374.44 581.48 C 374.38 584.83 374.39 588.18 374.53 591.54 C 375.94 591.42 377.36 591.31 378.78 591.21 C 378.75 587.96 378.74 584.71 378.63 581.46 C 377.23 581.46 375.83 581.47 374.44 581.48 M 385.23 581.31 C 385.11 584.66 385.10 588.02 385.09 591.38 C 386.51 591.37 387.93 591.36 389.35 591.36 C 389.37 588.13 389.37 584.90 389.40 581.68 C 388.00 581.55 386.61 581.43 385.23 581.31 M 394.09 591.36 C 395.54 591.36 396.99 591.36 398.45 591.37 C 398.49 588.10 398.50 584.83 398.50 581.56 C 391.97 579.43 394.50 587.51 394.09 591.36 M 404.57 581.58 C 404.58 584.84 404.59 588.11 404.62 591.38 C 406.12 591.36 407.63 591.35 409.14 591.34 C 409.15 588.08 409.16 584.83 409.17 581.58 C 407.63 581.56 406.10 581.56 404.57 581.58 M 426.39 581.50 C 426.31 584.76 426.29 588.02 426.26 591.29 C 427.75 591.30 429.25 591.31 430.76 591.32 C 430.72 588.03 430.71 584.74 430.62 581.46 C 429.21 581.46 427.80 581.48 426.39 581.50 M 439.35 581.48 C 439.27 584.76 439.26 588.05 439.24 591.34 C 440.74 591.32 442.24 591.30 443.75 591.28 C 443.71 588.01 443.70 584.75 443.62 581.48 C 442.19 581.47 440.77 581.47 439.35 581.48 M 449.82 581.56 C 449.78 584.82 449.78 588.09 449.80 591.36 C 451.32 591.35 452.83 591.35 454.36 591.34 C 454.39 588.03 454.38 584.73 454.25 581.42 C 452.77 581.47 451.29 581.51 449.82 581.56 M 459.35 581.47 C 459.28 584.72 459.27 587.97 459.23 591.22 C 460.64 591.32 462.06 591.43 463.48 591.54 C 463.64 588.18 463.65 584.83 463.57 581.48 C 462.16 581.47 460.75 581.46 459.35 581.47 M 469.80 581.64 C 469.80 584.88 469.80 588.11 469.82 591.36 C 471.30 591.35 472.78 591.35 474.27 591.36 C 474.30 588.02 474.28 584.68 474.10 581.36 C 472.66 581.44 471.23 581.54 469.80 581.64 M 479.44 581.49 C 479.37 584.74 479.35 587.99 479.30 591.25 C 480.77 591.28 482.25 591.30 483.74 591.33 C 483.69 588.04 483.68 584.75 483.63 581.46 C 482.23 581.46 480.83 581.47 479.44 581.49 M 489.84 581.60 C 489.84 584.83 489.85 588.06 489.87 591.31 C 491.36 591.33 492.86 591.36 494.36 591.39 C 494.38 588.11 494.39 584.83 494.41 581.55 C 492.88 581.55 491.36 581.56 489.84 581.60 M 498.71 591.35 C 500.18 591.35 501.66 591.35 503.15 591.35 C 503.16 588.07 503.17 584.80 503.17 581.53 C 496.64 579.61 499.03 587.48 498.71 591.35 M 509.42 581.50 C 509.35 584.75 509.34 588.01 509.29 591.27 C 510.77 591.29 512.25 591.30 513.74 591.32 C 513.70 588.02 513.69 584.73 513.62 581.45 C 512.21 581.46 510.82 581.47 509.42 581.50 M 518.43 581.48 C 518.35 584.83 518.36 588.18 518.52 591.53 C 519.94 591.43 521.37 591.33 522.80 591.24 C 522.77 587.97 522.76 584.71 522.67 581.46 C 521.25 581.45 519.84 581.46 518.43 581.48 M 116.69 581.52 C 116.65 584.79 116.65 588.07 116.67 591.35 C 118.16 591.35 119.65 591.35 121.14 591.36 C 121.15 588.08 121.15 584.80 121.12 581.53 C 119.64 581.52 118.16 581.51 116.69 581.52 M 166.82 581.50 C 166.78 584.79 166.78 588.08 166.80 591.38 C 168.26 591.37 169.72 591.37 171.19 591.37 C 171.22 588.08 171.21 584.80 171.18 581.52 C 169.72 581.50 168.27 581.50 166.82 581.50 M 269.72 581.50 C 269.69 584.78 269.69 588.07 269.70 591.36 C 271.20 591.36 272.70 591.35 274.20 591.35 C 274.22 588.08 274.22 584.80 274.19 581.54 C 272.69 581.51 271.20 581.50 269.72 581.50 M 334.90 581.51 C 334.88 584.79 334.87 588.07 334.89 591.36 C 336.33 591.36 337.78 591.36 339.24 591.37 C 339.26 588.08 339.26 584.79 339.21 581.51 C 337.77 581.50 336.33 581.50 334.90 581.51 M 415.72 581.50 C 415.69 584.79 415.69 588.08 415.70 591.37 C 417.18 591.36 418.66 591.36 420.15 591.36 C 420.17 588.08 420.16 584.80 420.14 581.52 C 418.66 581.50 417.19 581.50 415.72 581.50 M 173.86 606.82 C 173.86 607.68 173.86 609.40 173.86 610.26 C 175.23 610.14 176.60 610.03 177.98 609.92 C 177.87 608.65 177.76 607.38 177.65 606.13 C 176.38 606.35 175.12 606.58 173.86 606.82 M 179.18 606.27 C 179.33 607.33 179.48 608.39 179.65 609.46 C 182.56 609.52 185.47 609.64 188.38 609.88 C 188.32 609.12 188.19 607.59 188.13 606.83 C 185.15 606.55 182.17 606.36 179.18 606.27 M 166.78 611.49 C 168.81 611.38 170.82 611.07 172.82 610.73 C 172.80 609.92 172.75 608.32 172.73 607.51 C 170.36 608.19 168.31 609.55 166.78 611.49 M 167.96 613.83 C 168.17 614.53 168.57 615.93 168.77 616.63 C 176.36 616.04 183.96 615.48 191.53 614.71 C 188.99 613.93 186.39 613.13 183.71 613.17 C 185.63 613.06 187.53 612.64 189.36 612.04 C 182.41 609.68 174.53 610.80 167.96 613.83 M 78.33 618.50 C 82.88 617.86 87.30 616.57 91.70 615.30 C 91.62 614.44 91.46 612.72 91.38 611.85 C 86.83 613.23 80.12 613.15 78.33 618.50 M 93.58 611.72 C 93.58 613.27 93.57 614.82 93.57 616.39 C 96.61 616.11 99.66 616.06 102.71 616.18 C 102.60 615.42 102.38 613.89 102.26 613.13 C 99.37 612.68 96.48 612.20 93.58 611.72 M 117.56 620.69 C 124.95 619.04 132.32 616.33 140.03 617.27 C 154.43 617.59 166.78 626.11 176.24 636.30 C 164.69 617.45 136.93 610.35 117.56 620.69 M 162.54 618.28 C 162.56 621.94 166.09 623.48 168.50 625.54 C 171.40 627.79 173.80 630.74 177.23 632.26 C 182.35 630.10 188.09 632.02 193.34 630.36 C 193.79 630.37 194.69 630.39 195.14 630.40 C 194.64 626.71 196.94 624.21 200.19 622.97 C 200.01 620.74 199.82 618.52 199.64 616.30 C 187.29 614.97 174.90 617.75 162.54 618.28 M 69.59 618.76 C 70.02 619.99 70.44 621.22 70.87 622.45 C 72.50 622.14 74.12 621.84 75.75 621.54 C 75.61 620.64 75.32 618.82 75.17 617.91 C 73.31 618.19 71.45 618.47 69.59 618.76 M 80.16 622.20 C 87.74 621.77 95.30 621.07 102.86 620.37 C 102.18 615.92 96.28 617.98 93.04 617.57 C 88.79 618.45 82.02 617.25 80.16 622.20 M 67.57 622.56 C 67.50 621.55 67.35 619.53 67.28 618.52 C 62.31 618.35 62.42 623.78 67.57 622.56 M 130.35 619.40 C 106.95 622.23 88.49 645.68 91.54 669.13 C 92.85 691.41 112.71 710.44 134.98 711.04 C 161.81 713.22 186.48 687.72 182.96 660.94 C 181.68 635.32 155.61 614.59 130.35 619.40 M 79.40 623.60 L 79.50 625.51 C 86.62 624.78 93.77 624.29 100.91 623.68 C 102.47 623.41 104.60 623.59 105.16 621.61 C 96.55 621.87 87.98 622.86 79.40 623.60 M 64.66 623.62 C 67.47 628.40 73.53 625.55 77.95 625.44 C 76.28 620.12 68.90 624.10 64.66 623.62 M 105.50 628.25 C 108.86 626.81 111.90 624.72 114.38 622.03 C 110.92 623.28 107.73 625.26 105.50 628.25 M 52.24 625.30 C 52.25 625.90 52.29 627.09 52.30 627.69 C 56.80 627.35 61.31 627.13 65.76 626.34 C 61.91 623.16 56.70 625.00 52.24 625.30 M 50.95 629.05 C 48.06 629.17 45.33 630.22 43.05 631.97 C 43.15 633.82 43.23 635.68 43.32 637.55 C 45.77 638.53 47.91 640.12 48.96 642.63 C 63.97 641.66 78.94 640.11 93.95 639.01 C 97.29 633.43 101.80 628.71 106.70 624.48 C 88.10 625.84 69.54 627.62 50.95 629.05 M 197.80 624.88 C 195.18 628.65 199.43 635.71 202.95 630.36 C 202.31 630.34 201.05 630.32 200.42 630.31 C 200.20 629.08 199.98 627.87 199.76 626.67 C 200.25 626.23 201.24 625.36 201.73 624.92 C 200.75 624.91 198.78 624.89 197.80 624.88 M 175.96 633.50 C 183.02 634.07 190.78 633.83 197.52 631.59 C 190.32 631.87 183.07 632.31 175.96 633.50 M 103.23 699.37 C 98.79 693.01 93.77 686.82 91.75 679.16 C 85.91 662.72 91.72 644.57 102.35 631.47 C 83.17 648.33 83.69 682.92 103.23 699.37 M 176.90 637.35 C 181.57 646.87 186.30 657.17 184.86 668.09 C 183.89 683.18 175.37 697.59 162.47 705.53 C 159.37 707.49 155.80 708.64 152.95 711.01 C 182.93 703.03 196.85 661.25 176.90 637.35 M 43.14 639.38 C 43.64 641.97 44.04 644.57 44.45 647.19 C 45.17 646.59 46.62 645.38 47.35 644.78 C 46.95 643.15 46.55 641.53 46.14 639.92 C 45.39 639.78 43.89 639.51 43.14 639.38 M 54.07 643.61 C 51.80 643.87 49.11 643.58 47.51 645.56 C 60.87 644.63 74.21 643.29 87.57 642.42 C 89.66 642.21 92.04 642.29 93.47 640.48 C 80.32 641.25 67.21 642.70 54.07 643.61 M 182.00 688.85 C 180.14 690.66 179.01 693.05 177.62 695.22 C 187.33 694.22 197.20 694.58 206.78 692.57 C 206.56 690.12 206.32 687.67 206.12 685.23 C 198.62 688.83 189.97 687.24 182.00 688.85 M 58.04 698.93 C 55.21 699.32 52.38 698.85 49.63 698.18 C 49.74 700.55 49.84 702.92 49.92 705.30 C 51.93 705.71 53.98 706.06 56.03 705.86 C 71.75 704.43 87.51 703.51 103.25 702.40 C 101.23 700.08 99.15 697.81 97.06 695.56 C 84.06 696.79 71.04 697.72 58.04 698.93 M 103.53 699.74 C 114.64 712.52 134.85 717.47 150.65 711.57 C 144.78 711.78 138.96 713.23 133.07 712.65 C 121.94 711.95 112.30 706.08 103.53 699.74 Z" />
<path fill="#222953" stroke="#222953" stroke-width="0.09375" opacity="1.00" d=" M 357.35 105.35 C 360.40 105.35 363.46 105.35 366.52 105.38 C 366.58 106.00 366.68 107.24 366.74 107.86 C 363.56 107.94 360.38 107.95 357.21 107.89 C 357.24 107.25 357.31 105.98 357.35 105.35 Z" />
<path fill="#222953" stroke="#222953" stroke-width="0.09375" opacity="1.00" d=" M 375.32 105.34 C 378.38 105.34 381.44 105.35 384.51 105.38 C 384.56 106.00 384.66 107.23 384.71 107.84 C 381.54 107.90 378.36 107.93 375.19 107.90 C 375.23 107.26 375.29 105.98 375.32 105.34 Z" />
<path fill="#222953" stroke="#222953" stroke-width="0.09375" opacity="1.00" d=" M 393.34 105.34 C 396.40 105.35 399.46 105.35 402.52 105.38 C 402.57 106.00 402.67 107.23 402.72 107.85 C 399.55 107.90 396.38 107.91 393.21 107.87 C 393.24 107.24 393.31 105.98 393.34 105.34 Z" />
<path fill="#222953" stroke="#222953" stroke-width="0.09375" opacity="1.00" d=" M 411.33 105.34 C 414.38 105.34 417.44 105.36 420.50 105.39 C 420.55 106.00 420.65 107.23 420.70 107.84 C 417.53 107.90 414.36 107.91 411.19 107.88 C 411.22 107.24 411.29 105.97 411.33 105.34 Z" />
<path fill="#222953" stroke="#222953" stroke-width="0.09375" opacity="1.00" d=" M 429.36 105.35 C 432.40 105.35 435.45 105.35 438.50 105.38 C 438.55 106.00 438.66 107.23 438.71 107.85 C 435.55 107.90 432.39 107.91 429.23 107.87 C 429.26 107.24 429.33 105.98 429.36 105.35 Z" />
<path fill="#222953" stroke="#222953" stroke-width="0.09375" opacity="1.00" d=" M 447.34 105.34 C 450.39 105.35 453.44 105.36 456.49 105.39 C 456.55 106.00 456.65 107.23 456.70 107.84 C 453.54 107.90 450.37 107.91 447.22 107.88 C 447.25 107.24 447.31 105.98 447.34 105.34 Z" />
<path fill="#222953" stroke="#222953" stroke-width="0.09375" opacity="1.00" d=" M 465.36 105.35 C 468.44 105.35 471.52 105.35 474.60 105.37 C 474.63 105.99 474.70 107.24 474.73 107.86 C 471.57 107.90 468.40 107.90 465.24 107.87 C 465.27 107.24 465.33 105.98 465.36 105.35 Z" />
<path fill="#222953" stroke="#222953" stroke-width="0.09375" opacity="1.00" d=" M 483.35 105.35 C 486.41 105.35 489.47 105.35 492.54 105.37 C 492.59 105.99 492.69 107.23 492.74 107.85 C 489.57 107.90 486.39 107.90 483.23 107.87 C 483.26 107.24 483.32 105.98 483.35 105.35 Z" />
<path fill="#222953" stroke="#222953" stroke-width="0.09375" opacity="1.00" d=" M 501.35 105.35 C 504.44 105.35 507.54 105.35 510.64 105.36 C 510.67 105.98 510.74 107.24 510.78 107.86 C 507.59 107.90 504.40 107.90 501.22 107.87 C 501.25 107.24 501.31 105.98 501.35 105.35 Z" />
<path fill="#222953" stroke="#222953" stroke-width="0.09375" opacity="1.00" d=" M 519.35 105.35 C 522.44 105.35 525.52 105.35 528.62 105.37 C 528.65 105.99 528.72 107.24 528.75 107.86 C 525.57 107.90 522.40 107.90 519.23 107.87 C 519.26 107.24 519.32 105.98 519.35 105.35 Z" />
<path fill="#222953" stroke="#222953" stroke-width="0.09375" opacity="1.00" d=" M 537.34 105.36 C 540.66 105.35 543.98 105.35 547.31 105.34 C 547.62 394.75 547.39 684.16 547.46 973.58 C 562.59 973.67 577.72 973.54 592.85 973.64 C 592.83 975.15 592.81 976.67 592.79 978.20 C 565.85 978.29 538.91 978.15 511.97 978.28 C 509.71 978.31 507.24 978.18 505.66 976.35 C 499.41 970.28 493.44 963.92 487.05 958.01 C 482.14 958.54 477.81 955.79 473.01 955.64 C 418.11 955.77 363.21 955.59 308.31 955.73 C 308.27 957.88 308.24 960.05 308.20 962.22 C 262.81 962.28 217.43 962.26 172.04 962.23 C 165.82 956.02 159.46 949.96 153.38 943.62 C 151.72 941.82 149.68 940.10 147.05 940.44 C 120.48 940.47 93.91 940.50 67.34 940.44 C 67.91 954.29 56.95 966.73 43.14 967.89 C 43.15 972.62 43.14 977.36 43.07 982.10 C 21.96 982.85 1.57 964.57 2.45 943.00 C 0.86 923.24 17.37 904.96 36.73 902.77 C 38.86 902.79 40.99 902.92 43.12 903.05 C 43.19 907.26 43.18 911.47 43.15 915.68 C 53.61 918.24 63.48 924.88 66.50 935.73 C 94.97 935.82 123.45 935.70 151.93 935.78 C 158.37 942.11 164.79 948.46 171.10 954.92 C 174.65 959.25 180.77 957.09 185.58 957.55 C 185.75 956.09 185.91 954.63 186.08 953.20 C 220.28 953.18 254.47 953.20 288.67 953.19 C 288.63 951.96 288.60 950.73 288.57 949.52 C 291.18 951.10 293.67 953.42 296.94 953.20 C 357.63 953.18 418.32 953.18 479.00 953.14 C 482.41 953.31 486.09 952.54 489.33 953.77 C 496.54 959.75 502.32 967.36 509.63 973.22 C 521.74 974.19 534.01 973.30 546.18 973.62 C 546.33 685.07 546.27 396.51 546.25 107.96 C 543.23 107.91 540.21 107.88 537.20 107.84 C 537.23 107.22 537.30 105.98 537.34 105.36 M 13.17 917.18 C 3.26 928.16 0.90 945.17 7.44 958.44 C 13.42 971.30 26.98 980.04 41.15 980.31 C 41.28 976.18 41.28 972.06 41.12 967.95 C 28.02 967.37 15.76 956.51 15.85 942.99 C 14.87 929.03 27.33 916.70 41.10 916.61 C 41.32 912.38 41.33 908.15 41.14 903.94 C 30.54 904.44 20.17 909.14 13.17 917.18 M 19.09 946.03 C 20.60 956.61 30.48 964.35 40.89 964.94 C 40.99 963.73 41.10 962.53 41.20 961.34 C 29.84 960.86 20.58 950.20 22.60 938.81 C 25.84 939.17 29.06 939.71 32.24 940.45 C 32.23 945.85 35.63 950.46 41.06 951.37 C 41.34 945.48 41.32 939.58 41.08 933.69 C 35.56 935.39 34.14 929.35 32.15 925.60 C 35.04 924.47 38.03 923.60 41.07 922.97 C 41.12 922.12 41.21 920.43 41.26 919.59 C 27.78 919.36 16.31 932.72 19.09 946.03 M 43.15 919.58 C 43.14 920.46 43.12 922.21 43.10 923.09 C 51.48 924.32 58.82 930.59 60.25 939.11 C 60.72 937.45 61.49 935.94 62.93 934.94 C 59.99 926.47 51.98 920.55 43.15 919.58 M 43.21 933.30 C 43.09 939.23 43.08 945.16 43.23 951.09 C 52.28 948.86 52.31 935.49 43.21 933.30 M 60.45 940.36 C 61.46 950.78 53.19 959.99 43.05 961.31 C 43.12 962.46 43.18 963.62 43.24 964.80 C 55.19 963.67 65.22 952.64 63.99 940.46 C 62.81 940.41 61.63 940.38 60.45 940.36 Z" />
<path fill="#222953" stroke="#222953" stroke-width="0.09375" opacity="1.00" d=" M 100.20 123.93 C 107.34 123.88 114.48 123.76 121.62 124.02 C 121.59 125.54 121.56 127.05 121.54 128.57 C 115.97 128.59 110.40 128.56 104.83 128.62 C 104.77 138.19 104.80 147.76 104.82 157.34 C 103.27 157.33 101.73 157.32 100.18 157.31 C 100.23 146.18 100.21 135.05 100.20 123.93 Z" />
<path fill="#222953" stroke="#222953" stroke-width="0.09375" opacity="1.00" d=" M 245.80 123.90 C 253.06 123.90 260.32 123.77 267.58 124.00 C 267.43 135.15 267.72 146.30 267.42 157.44 C 265.85 157.39 264.28 157.33 262.71 157.28 C 262.55 147.69 262.90 138.10 262.51 128.52 C 257.01 128.62 251.51 128.58 246.01 128.60 C 245.93 127.03 245.86 125.46 245.80 123.90 Z" />
<path fill="#222953" stroke="#222953" stroke-width="0.09375" opacity="1.00" d=" M 107.65 133.09 C 123.67 133.26 139.71 132.72 155.72 133.37 C 154.67 134.24 153.43 134.81 152.04 134.65 C 137.89 134.60 123.74 134.67 109.58 134.59 C 109.43 138.14 109.40 141.69 109.38 145.25 L 107.68 145.27 C 107.60 141.21 107.60 137.15 107.65 133.09 Z" />
<path fill="#222953" stroke="#222953" stroke-width="0.09375" opacity="1.00" d=" M 211.97 133.25 C 227.87 132.88 243.77 133.17 259.67 133.09 C 259.18 137.31 260.98 142.24 258.36 145.93 C 257.99 142.18 258.07 138.41 258.07 134.65 C 243.11 134.60 228.16 134.62 213.20 134.64 C 212.89 134.30 212.28 133.60 211.97 133.25 Z" />
<path fill="#222953" stroke="#222953" stroke-width="0.09375" opacity="1.00" d=" M 555.62 320.68 C 564.45 329.63 559.57 342.86 560.85 353.99 C 562.09 361.35 557.11 367.73 557.69 375.00 C 557.85 449.34 557.56 523.70 557.83 598.04 C 562.61 610.51 560.30 623.98 560.85 637.04 C 561.27 641.50 557.90 644.87 555.61 648.32 C 555.47 539.11 555.45 429.89 555.62 320.68 Z" />
<path fill="#222953" stroke="#222953" stroke-width="0.09375" opacity="1.00" d=" M 100.19 335.13 C 101.73 335.13 103.27 335.12 104.81 335.12 C 104.80 344.68 104.75 354.24 104.82 363.80 C 110.42 363.83 116.03 363.70 121.62 363.96 C 121.59 365.49 121.56 367.01 121.53 368.54 C 114.43 368.57 107.32 368.54 100.22 368.57 C 100.18 357.42 100.24 346.28 100.19 335.13 Z" />
<path fill="#222953" stroke="#222953" stroke-width="0.09375" opacity="1.00" d=" M 262.70 335.11 C 264.32 335.12 265.95 335.15 267.57 335.17 C 267.51 346.30 267.56 357.42 267.55 368.55 C 260.36 368.57 253.17 368.54 245.99 368.57 C 245.92 366.99 245.85 365.41 245.79 363.84 C 251.42 363.79 257.06 363.81 262.69 363.82 C 262.68 354.25 262.66 344.68 262.70 335.11 Z" />
<path fill="#222953" stroke="#222953" stroke-width="0.09375" opacity="1.00" d=" M 116.93 343.96 C 117.33 344.29 118.14 344.97 118.55 345.31 C 118.52 349.74 118.53 354.17 118.52 358.61 C 118.13 358.93 117.36 359.59 116.97 359.91 C 116.58 354.60 116.59 349.27 116.93 343.96 Z" />
<path fill="#222953" stroke="#222953" stroke-width="0.09375" opacity="1.00" d=" M 129.03 343.96 C 129.44 344.27 130.26 344.91 130.66 345.22 C 130.65 349.77 130.65 354.31 130.68 358.85 C 130.22 358.88 129.30 358.93 128.84 358.96 C 128.75 353.96 128.68 348.95 129.03 343.96 Z" />
<path fill="#222953" stroke="#222953" stroke-width="0.09375" opacity="1.00" d=" M 139.46 345.28 C 139.85 344.95 140.65 344.30 141.05 343.97 C 141.34 349.30 141.51 354.66 140.93 359.97 C 137.89 355.81 140.15 350.09 139.46 345.28 Z" />
<path fill="#222953" stroke="#222953" stroke-width="0.09375" opacity="1.00" d=" M 161.15 343.92 C 161.52 344.25 162.25 344.92 162.62 345.25 C 161.90 350.01 164.31 355.86 161.13 359.86 C 160.59 354.56 160.71 349.22 161.15 343.92 Z" />
<path fill="#222953" stroke="#222953" stroke-width="0.09375" opacity="1.00" d=" M 172.84 360.02 C 170.55 355.13 170.93 348.69 172.64 343.62 C 173.55 349.03 173.41 354.58 172.84 360.02 Z" />
<path fill="#222953" stroke="#222953" stroke-width="0.09375" opacity="1.00" d=" M 193.00 359.94 C 193.01 354.59 191.37 348.60 193.96 343.67 C 194.07 348.97 195.85 355.22 193.00 359.94 Z" />
<path fill="#222953" stroke="#222953" stroke-width="0.09375" opacity="1.00" d=" M 204.61 360.05 C 202.45 355.09 202.67 348.54 204.52 343.47 C 205.15 348.97 205.09 354.54 204.61 360.05 Z" />
<path fill="#222953" stroke="#222953" stroke-width="0.09375" opacity="1.00" d=" M 215.68 359.26 C 216.12 354.11 214.34 348.42 216.82 343.67 C 217.67 348.85 217.27 354.12 217.25 359.34 L 215.68 359.26 Z" />
<path fill="#222953" stroke="#222953" stroke-width="0.09375" opacity="1.00" d=" M 237.39 343.61 C 239.04 348.69 239.50 355.14 237.17 360.01 C 236.61 354.57 236.45 349.02 237.39 343.61 Z" />
<path fill="#222953" stroke="#222953" stroke-width="0.09375" opacity="1.00" d=" M 247.43 345.27 C 247.77 344.93 248.47 344.24 248.81 343.90 C 249.26 349.24 249.43 354.63 248.80 359.96 C 245.91 355.73 248.06 350.09 247.43 345.27 Z" />
<path fill="#222953" stroke="#222953" stroke-width="0.09375" opacity="1.00" d=" M 259.16 360.23 C 257.71 355.10 256.91 348.46 259.41 343.63 C 259.76 349.15 260.03 354.75 259.16 360.23 Z" />
<path fill="#222953" stroke="#222953" stroke-width="0.09375" opacity="1.00" d=" M 527.22 349.13 C 532.25 346.17 536.16 354.90 530.80 356.80 C 525.97 358.90 522.69 351.38 527.22 349.13 Z" />
<path fill="#222953" stroke="#222953" stroke-width="0.09375" opacity="1.00" d=" M 28.21 392.03 C 29.17 383.49 25.09 372.71 33.54 366.93 C 33.51 460.73 33.62 554.53 33.48 648.33 C 31.19 644.87 27.73 641.53 28.22 637.03 C 28.28 628.34 28.24 619.64 28.24 610.95 C 28.07 605.73 31.59 601.24 31.41 596.01 C 31.37 532.34 31.40 468.65 31.39 404.98 C 31.40 400.40 27.51 396.73 28.21 392.03 Z" />
<path fill="#222953" stroke="#222953" stroke-width="0.09375" opacity="1.00" d=" M 527.98 371.06 C 529.50 369.86 530.85 372.61 529.54 373.59 C 528.01 374.77 526.63 372.03 527.98 371.06 Z" />
<path fill="#222953" stroke="#222953" stroke-width="0.09375" opacity="1.00" d=" M 527.96 376.23 C 529.46 375.03 530.91 377.71 529.54 378.70 C 528.03 379.88 526.58 377.20 527.96 376.23 Z" />
<path fill="#222953" stroke="#222953" stroke-width="0.09375" opacity="1.00" d=" M 528.00 386.37 C 529.53 385.13 530.85 387.90 529.52 388.87 C 527.98 390.09 526.64 387.31 528.00 386.37 Z" />
<path fill="#222953" stroke="#222953" stroke-width="0.09375" opacity="1.00" d=" M 55.87 389.91 C 57.90 387.08 62.78 385.88 64.86 389.27 C 65.41 394.63 57.28 394.22 55.87 389.91 Z" />
<path fill="#222953" stroke="#222953" stroke-width="0.09375" opacity="1.00" d=" M 528.38 396.07 C 533.03 395.05 527.32 400.68 528.38 396.07 Z" />
<path fill="#222953" stroke="#222953" stroke-width="0.09375" opacity="1.00" d=" M 61.94 408.59 C 58.40 408.26 59.32 404.04 59.87 401.69 C 61.51 403.63 61.70 406.17 61.94 408.59 Z" />
<path fill="#222953" stroke="#222953" stroke-width="0.09375" opacity="1.00" d=" M 527.97 407.17 C 529.47 405.98 530.88 408.68 529.55 409.67 C 528.03 410.84 526.61 408.15 527.97 407.17 Z" />
<path fill="#222953" stroke="#222953" stroke-width="0.09375" opacity="1.00" d=" M 60.29 412.85 C 62.16 412.23 63.07 415.39 61.11 415.80 C 59.25 416.39 58.43 413.31 60.29 412.85 Z" />
<path fill="#222953" stroke="#222953" stroke-width="0.09375" opacity="1.00" d=" M 527.99 416.33 C 529.53 415.11 530.85 417.87 529.51 418.84 C 527.98 420.05 526.63 417.28 527.99 416.33 Z" />
<path fill="#222953" stroke="#222953" stroke-width="0.09375" opacity="1.00" d=" M 60.29 416.92 C 62.15 416.32 63.09 419.47 61.12 419.87 C 59.26 420.45 58.41 417.38 60.29 416.92 Z" />
<path fill="#222953" stroke="#222953" stroke-width="0.09375" opacity="1.00" d=" M 59.73 421.06 C 60.19 421.03 61.11 420.99 61.57 420.96 C 61.58 422.64 61.61 424.33 61.65 426.02 C 61.15 425.91 60.15 425.67 59.65 425.56 C 59.69 424.05 59.71 422.55 59.73 421.06 Z" />
<path fill="#222953" stroke="#222953" stroke-width="0.09375" opacity="1.00" d=" M 528.00 421.46 C 529.54 420.23 530.83 423.01 529.51 423.98 C 527.98 425.20 526.65 422.41 528.00 421.46 Z" />
<path fill="#222953" stroke="#222953" stroke-width="0.09375" opacity="1.00" d=" M 528.37 426.99 C 533.01 425.97 527.35 431.61 528.37 426.99 Z" />
<path fill="#222953" stroke="#222953" stroke-width="0.09375" opacity="1.00" d=" M 59.91 429.08 C 64.56 428.07 58.90 433.69 59.91 429.08 Z" />
<path fill="#222953" stroke="#222953" stroke-width="0.09375" opacity="1.00" d=" M 527.55 431.80 C 528.08 431.64 529.15 431.31 529.68 431.15 C 529.73 432.35 529.79 433.57 529.85 434.79 C 529.33 434.81 528.27 434.87 527.74 434.89 C 527.69 434.12 527.60 432.58 527.55 431.80 Z" />
<path fill="#222953" stroke="#222953" stroke-width="0.09375" opacity="1.00" d=" M 59.90 435.19 C 64.58 434.17 58.88 439.77 59.90 435.19 Z" />
<path fill="#222953" stroke="#222953" stroke-width="0.09375" opacity="1.00" d=" M 527.98 437.16 C 529.50 435.96 530.84 438.70 529.53 439.68 C 528.00 440.87 526.63 438.13 527.98 437.16 Z" />
<path fill="#222953" stroke="#222953" stroke-width="0.09375" opacity="1.00" d=" M 59.92 439.25 C 64.57 438.23 58.88 443.86 59.92 439.25 Z" />
<path fill="#222953" stroke="#222953" stroke-width="0.09375" opacity="1.00" d=" M 527.99 468.06 C 529.52 466.86 530.78 469.66 529.52 470.64 C 527.98 471.82 526.68 469.02 527.99 468.06 Z" />
<path fill="#222953" stroke="#222953" stroke-width="0.09375" opacity="1.00" d=" M 59.89 472.29 C 64.54 471.25 58.87 476.90 59.89 472.29 Z" />
<path fill="#222953" stroke="#222953" stroke-width="0.09375" opacity="1.00" d=" M 528.37 472.29 C 533.01 471.30 527.35 476.91 528.37 472.29 Z" />
<path fill="#222953" stroke="#222953" stroke-width="0.09375" opacity="1.00" d=" M 528.21 477.23 C 529.54 475.74 531.77 478.10 530.33 479.41 C 528.98 480.84 526.72 478.54 528.21 477.23 Z" />
<path fill="#222953" stroke="#222953" stroke-width="0.09375" opacity="1.00" d=" M 59.61 482.56 C 60.12 482.44 61.15 482.21 61.66 482.09 C 61.43 485.34 61.33 488.60 61.64 491.85 C 61.14 491.82 60.15 491.74 59.65 491.70 C 59.48 488.65 59.42 485.60 59.61 482.56 Z" />
<path fill="#222953" stroke="#222953" stroke-width="0.09375" opacity="1.00" d=" M 527.67 482.10 C 528.20 482.12 529.25 482.15 529.77 482.17 C 529.79 484.21 529.80 486.26 529.84 488.31 C 529.29 488.34 528.18 488.40 527.62 488.43 C 527.63 486.31 527.65 484.21 527.67 482.10 Z" />
<path fill="#222953" stroke="#222953" stroke-width="0.09375" opacity="1.00" d=" M 528.37 494.98 C 533.00 493.95 527.36 499.61 528.37 494.98 Z" />
<path fill="#222953" stroke="#222953" stroke-width="0.09375" opacity="1.00" d=" M 59.64 498.84 C 60.85 499.78 61.48 501.16 61.99 502.57 C 61.26 502.65 59.81 502.81 59.09 502.88 C 59.25 501.53 59.44 500.18 59.64 498.84 Z" />
<path fill="#222953" stroke="#222953" stroke-width="0.09375" opacity="1.00" d=" M 528.37 505.36 C 533.01 504.35 527.35 509.99 528.37 505.36 Z" />
<path fill="#222953" stroke="#222953" stroke-width="0.09375" opacity="1.00" d=" M 59.23 509.91 C 59.81 509.99 60.97 510.14 61.55 510.22 C 61.55 510.87 61.53 512.17 61.53 512.82 C 60.95 512.94 59.80 513.18 59.23 513.29 C 59.23 512.45 59.23 510.75 59.23 509.91 Z" />
<path fill="#222953" stroke="#222953" stroke-width="0.09375" opacity="1.00" d=" M 527.98 510.30 C 529.50 509.09 530.87 511.81 529.52 512.79 C 527.99 513.98 526.60 511.25 527.98 510.30 Z" />
<path fill="#222953" stroke="#222953" stroke-width="0.09375" opacity="1.00" d=" M 58.94 515.06 C 59.71 515.15 61.23 515.33 61.99 515.41 C 61.33 516.69 60.67 517.95 59.99 519.22 C 59.63 517.83 59.28 516.44 58.94 515.06 Z" />
<path fill="#222953" stroke="#222953" stroke-width="0.09375" opacity="1.00" d=" M 528.01 515.41 C 529.55 514.17 530.84 516.95 529.51 517.92 C 527.97 519.15 526.65 516.35 528.01 515.41 Z" />
<path fill="#222953" stroke="#222953" stroke-width="0.09375" opacity="1.00" d=" M 59.21 520.19 C 59.80 520.23 60.98 520.32 61.57 520.37 C 61.50 521.35 61.43 522.34 61.35 523.34 C 60.85 523.43 59.83 523.62 59.33 523.71 C 59.29 522.53 59.25 521.36 59.21 520.19 Z" />
<path fill="#222953" stroke="#222953" stroke-width="0.09375" opacity="1.00" d=" M 527.49 520.49 C 528.06 520.39 529.19 520.21 529.76 520.11 C 529.73 521.32 529.70 522.54 529.68 523.77 C 529.19 523.63 528.20 523.36 527.71 523.22 C 527.63 522.30 527.56 521.39 527.49 520.49 Z" />
<path fill="#222953" stroke="#222953" stroke-width="0.09375" opacity="1.00" d=" M 59.25 525.24 C 59.80 525.33 60.90 525.53 61.45 525.62 C 61.46 526.56 61.47 527.51 61.48 528.46 C 60.94 528.55 59.84 528.72 59.29 528.80 C 59.28 527.61 59.26 526.42 59.25 525.24 Z" />
<path fill="#222953" stroke="#222953" stroke-width="0.09375" opacity="1.00" d=" M 527.62 525.67 C 528.15 525.56 529.21 525.32 529.73 525.21 C 529.72 526.41 529.72 527.62 529.73 528.83 C 529.19 528.73 528.12 528.52 527.58 528.42 C 527.59 527.50 527.60 526.58 527.62 525.67 Z" />
<path fill="#222953" stroke="#222953" stroke-width="0.09375" opacity="1.00" d=" M 59.32 530.30 C 59.82 530.40 60.83 530.62 61.34 530.72 C 61.42 531.70 61.50 532.67 61.58 533.66 C 60.99 533.70 59.81 533.78 59.22 533.82 C 59.25 532.64 59.28 531.46 59.32 530.30 Z" />
<path fill="#222953" stroke="#222953" stroke-width="0.09375" opacity="1.00" d=" M 58.95 538.93 C 59.29 537.56 59.63 536.18 59.98 534.82 C 60.67 536.06 61.34 537.32 62.00 538.58 C 61.24 538.67 59.72 538.85 58.95 538.93 Z" />
<path fill="#222953" stroke="#222953" stroke-width="0.09375" opacity="1.00" d=" M 527.97 536.10 C 529.47 534.90 530.85 537.62 529.55 538.62 C 528.03 539.79 526.62 537.08 527.97 536.10 Z" />
<path fill="#222953" stroke="#222953" stroke-width="0.09375" opacity="1.00" d=" M 528.37 540.16 C 534.11 539.88 526.16 545.45 528.37 540.16 Z" />
<path fill="#222953" stroke="#222953" stroke-width="0.09375" opacity="1.00" d=" M 58.98 546.04 C 59.73 546.13 61.23 546.31 61.99 546.40 C 61.33 547.68 60.66 548.95 59.98 550.23 C 59.63 548.83 59.30 547.43 58.98 546.04 Z" />
<path fill="#222953" stroke="#222953" stroke-width="0.09375" opacity="1.00" d=" M 528.01 546.41 C 529.56 545.17 530.83 547.96 529.51 548.92 C 527.97 550.14 526.65 547.34 528.01 546.41 Z" />
<path fill="#222953" stroke="#222953" stroke-width="0.09375" opacity="1.00" d=" M 59.20 551.19 C 59.74 551.21 60.83 551.26 61.37 551.29 C 61.41 553.51 61.51 555.73 61.66 557.95 C 61.18 557.89 60.21 557.78 59.73 557.73 C 59.60 555.54 59.39 553.36 59.20 551.19 Z" />
<path fill="#222953" stroke="#222953" stroke-width="0.09375" opacity="1.00" d=" M 528.09 551.37 C 530.19 550.14 530.96 554.46 528.79 554.61 C 527.28 554.47 526.99 552.20 528.09 551.37 Z" />
<path fill="#222953" stroke="#222953" stroke-width="0.09375" opacity="1.00" d=" M 528.38 555.95 C 533.02 554.96 527.33 560.57 528.38 555.95 Z" />
<path fill="#222953" stroke="#222953" stroke-width="0.09375" opacity="1.00" d=" M 59.31 560.28 C 59.83 560.37 60.88 560.55 61.40 560.64 C 61.45 561.62 61.50 562.62 61.55 563.61 C 60.97 563.66 59.82 563.76 59.24 563.81 C 59.26 562.63 59.28 561.45 59.31 560.28 Z" />
<path fill="#222953" stroke="#222953" stroke-width="0.09375" opacity="1.00" d=" M 527.69 560.74 C 528.19 560.61 529.19 560.34 529.69 560.21 C 529.71 561.43 529.73 562.66 529.76 563.90 C 529.20 563.80 528.08 563.61 527.52 563.51 C 527.57 562.58 527.63 561.66 527.69 560.74 Z" />
<path fill="#222953" stroke="#222953" stroke-width="0.09375" opacity="1.00" d=" M 58.97 569.89 C 59.29 568.51 59.63 567.15 59.98 565.79 C 60.66 567.04 61.33 568.32 61.98 569.60 C 61.23 569.67 59.72 569.82 58.97 569.89 Z" />
<path fill="#222953" stroke="#222953" stroke-width="0.09375" opacity="1.00" d=" M 527.98 567.07 C 529.50 565.88 530.83 568.62 529.54 569.61 C 528.01 570.78 526.64 568.04 527.98 567.07 Z" />
<path fill="#222953" stroke="#222953" stroke-width="0.09375" opacity="1.00" d=" M 528.36 571.31 C 533.01 570.30 527.35 575.91 528.36 571.31 Z" />
<path fill="#222953" stroke="#222953" stroke-width="0.09375" opacity="1.00" d=" M 527.36 612.37 C 530.28 610.63 534.26 613.72 533.36 617.00 C 532.89 620.03 528.82 621.40 526.55 619.41 C 524.24 617.67 524.62 613.47 527.36 612.37 Z" />
<path fill="#222953" stroke="#222953" stroke-width="0.09375" opacity="1.00" d=" M 94.52 655.41 C 98.56 636.47 116.38 621.12 135.96 621.22 C 146.22 620.34 155.92 624.75 164.37 630.13 C 163.90 630.49 163.44 630.86 162.98 631.24 C 149.96 620.70 130.43 619.35 116.09 628.03 C 98.44 637.77 89.98 660.84 97.37 679.65 C 103.43 696.86 121.65 709.14 139.96 707.31 C 156.35 706.71 171.39 695.24 177.03 679.95 C 183.32 663.80 178.48 643.62 164.73 632.82 C 165.17 632.42 165.60 632.04 166.05 631.66 C 180.34 644.40 185.21 666.54 176.71 683.83 C 167.60 704.20 141.71 714.47 121.15 705.70 C 101.47 698.33 89.82 675.79 94.52 655.41 Z" />
<path fill="#222953" stroke="#222953" stroke-width="0.09375" opacity="1.00" d=" M 162.46 634.18 C 179.94 646.96 182.52 675.29 167.40 690.90 C 175.85 679.18 179.48 663.38 173.35 649.79 C 171.00 643.78 166.62 638.97 162.46 634.18 Z" />
<path fill="#222953" stroke="#222953" stroke-width="0.09375" opacity="1.00" d=" M 333.54 656.16 C 342.16 656.17 350.78 656.18 359.40 656.15 C 359.41 657.88 359.42 659.62 359.43 661.36 C 352.75 661.39 346.07 661.36 339.40 661.38 C 339.39 671.71 339.43 682.05 339.38 692.39 C 337.43 692.40 335.48 692.40 333.54 692.42 C 333.47 680.33 333.46 668.24 333.54 656.16 Z" />
<path fill="#222953" stroke="#222953" stroke-width="0.09375" opacity="1.00" d=" M 509.40 656.11 C 518.06 656.23 526.72 656.15 535.38 656.17 C 535.46 668.24 535.44 680.32 535.40 692.40 C 533.44 692.40 531.49 692.40 529.55 692.42 C 529.47 682.08 529.52 671.73 529.53 661.39 C 522.81 661.35 516.08 661.38 509.36 661.38 C 509.36 659.61 509.38 657.86 509.40 656.11 Z" />
<path fill="#222953" stroke="#222953" stroke-width="0.09375" opacity="1.00" d=" M 342.69 666.07 C 359.45 665.58 376.23 666.04 393.00 665.82 C 395.52 666.02 398.69 665.21 400.44 667.55 C 381.90 668.06 363.33 667.59 344.78 667.79 C 344.77 671.95 345.04 676.17 344.16 680.28 C 341.29 676.12 343.08 670.77 342.69 666.07 Z" />
<path fill="#222953" stroke="#222953" stroke-width="0.09375" opacity="1.00" d=" M 469.15 666.04 C 488.01 665.70 506.87 665.83 525.73 665.98 C 525.71 670.77 526.24 675.64 525.10 680.36 C 522.89 676.53 523.92 672.01 523.75 667.83 C 505.57 667.67 487.38 667.81 469.20 667.76 C 469.19 667.33 469.17 666.47 469.15 666.04 Z" />
<path fill="#222953" stroke="#222953" stroke-width="0.09375" opacity="1.00" d=" M 104.15 687.07 C 109.11 692.11 113.86 697.65 120.55 700.46 C 131.78 706.32 145.12 704.63 156.41 699.90 C 139.37 710.22 114.36 704.44 104.15 687.07 Z" />
<path fill="#222953" stroke="#222953" stroke-width="0.09375" opacity="1.00" d=" M 333.61 884.20 C 335.50 884.20 337.40 884.21 339.31 884.22 C 339.50 894.53 339.39 904.84 339.37 915.15 C 345.87 915.55 352.39 915.00 358.88 915.41 C 359.98 916.75 359.22 918.80 359.55 920.43 C 350.88 920.48 342.21 920.48 333.54 920.44 C 333.51 908.36 333.37 896.27 333.61 884.20 Z" />
<path fill="#222953" stroke="#222953" stroke-width="0.09375" opacity="1.00" d=" M 529.62 884.21 C 531.52 884.21 533.43 884.21 535.34 884.21 C 535.57 896.26 535.36 908.32 535.45 920.37 C 526.76 920.60 518.07 920.40 509.38 920.50 C 509.35 918.75 509.33 917.01 509.31 915.29 C 516.06 915.23 522.81 915.44 529.56 915.14 C 529.53 904.83 529.41 894.52 529.62 884.21 Z" />
<path fill="#222953" stroke="#222953" stroke-width="0.09375" opacity="1.00" d=" M 342.61 897.69 C 343.13 897.53 344.17 897.22 344.69 897.06 C 344.74 900.92 344.76 904.78 344.88 908.64 C 363.14 908.67 381.40 908.64 399.67 908.66 L 399.68 910.55 C 380.67 910.53 361.66 910.62 342.66 910.50 C 342.63 906.23 342.64 901.96 342.61 897.69 Z" />
<path fill="#222953" stroke="#222953" stroke-width="0.09375" opacity="1.00" d=" M 523.74 908.67 C 524.49 904.86 521.86 899.07 525.62 896.70 C 525.88 901.31 525.77 905.94 525.74 910.57 C 506.73 910.49 487.72 910.66 468.71 910.48 C 469.14 908.35 471.32 908.66 472.98 908.63 C 489.90 908.69 506.82 908.63 523.74 908.67 Z" />
<path fill="#222953" stroke="#222953" stroke-width="0.09375" opacity="1.00" d=" M 54.93 916.22 C 58.03 916.20 61.12 916.20 64.22 916.21 C 64.21 916.85 64.20 918.13 64.20 918.76 C 61.11 918.76 58.03 918.76 54.95 918.75 C 54.94 918.12 54.94 916.86 54.93 916.22 Z" />
<path fill="#222953" stroke="#222953" stroke-width="0.09375" opacity="1.00" d=" M 73.00 916.23 C 76.07 916.20 79.13 916.20 82.20 916.21 C 82.20 916.85 82.19 918.13 82.19 918.76 C 79.13 918.76 76.07 918.76 73.02 918.76 C 73.01 918.12 73.01 916.86 73.00 916.23 Z" />
<path fill="#222953" stroke="#222953" stroke-width="0.09375" opacity="1.00" d=" M 90.94 916.22 C 94.03 916.20 97.13 916.20 100.22 916.21 C 100.21 916.85 100.20 918.13 100.19 918.77 C 97.11 918.76 94.04 918.76 90.96 918.75 C 90.95 918.12 90.94 916.86 90.94 916.22 Z" />
<path fill="#222953" stroke="#222953" stroke-width="0.09375" opacity="1.00" d=" M 109.01 916.22 C 112.07 916.20 115.14 916.20 118.20 916.21 C 118.20 916.85 118.18 918.13 118.18 918.77 C 115.12 918.76 112.07 918.76 109.01 918.76 C 109.01 918.12 109.01 916.86 109.01 916.22 Z" />
<path fill="#222953" stroke="#222953" stroke-width="0.09375" opacity="1.00" d=" M 127.00 916.22 C 130.06 916.20 133.12 916.20 136.19 916.22 C 136.19 916.85 136.18 918.13 136.17 918.76 C 133.12 918.76 130.07 918.76 127.02 918.76 C 127.01 918.12 127.00 916.85 127.00 916.22 Z" />
<path fill="#222953" stroke="#222953" stroke-width="0.09375" opacity="1.00" d=" M 145.00 916.22 C 148.07 916.20 151.14 916.20 154.22 916.21 C 154.21 916.85 154.20 918.13 154.20 918.77 C 151.13 918.76 148.08 918.76 145.02 918.76 C 145.01 918.12 145.01 916.86 145.00 916.22 Z" />
<path fill="#222953" stroke="#222953" stroke-width="0.09375" opacity="1.00" d=" M 163.00 916.22 C 166.06 916.20 169.13 916.20 172.20 916.22 C 172.19 916.85 172.18 918.13 172.18 918.76 C 169.12 918.76 166.07 918.76 163.01 918.76 C 163.01 918.12 163.00 916.85 163.00 916.22 Z" />
<path fill="#222953" stroke="#222953" stroke-width="0.09375" opacity="1.00" d=" M 181.00 916.23 C 184.08 916.20 187.17 916.20 190.25 916.20 C 190.24 916.84 190.22 918.13 190.21 918.77 C 187.15 918.76 184.08 918.76 181.02 918.76 C 181.01 918.12 181.01 916.86 181.00 916.23 Z" />
<path fill="#222953" stroke="#222953" stroke-width="0.09375" opacity="1.00" d=" M 198.99 916.20 C 202.06 916.18 205.14 916.18 208.22 916.19 C 208.22 916.83 208.20 918.12 208.19 918.77 C 205.14 918.76 202.08 918.76 199.02 918.76 C 199.01 918.12 199.00 916.84 198.99 916.20 Z" />
<path fill="#222953" stroke="#222953" stroke-width="0.09375" opacity="1.00" d=" M 217.00 916.21 C 220.08 916.18 223.17 916.17 226.25 916.18 C 226.24 916.83 226.21 918.13 226.20 918.78 C 223.14 918.77 220.09 918.76 217.03 918.76 C 217.02 918.12 217.01 916.84 217.00 916.21 Z" />
<path fill="#222953" stroke="#222953" stroke-width="0.09375" opacity="1.00" d=" M 234.99 916.21 C 238.06 916.18 241.14 916.18 244.22 916.19 C 244.22 916.83 244.20 918.12 244.19 918.77 C 241.13 918.76 238.08 918.76 235.03 918.76 C 235.02 918.12 235.00 916.84 234.99 916.21 Z" />
<path fill="#222953" stroke="#222953" stroke-width="0.09375" opacity="1.00" d=" M 253.06 916.08 C 256.73 915.51 259.94 916.91 262.01 919.96 C 261.45 920.56 260.89 921.18 260.33 921.81 C 259.23 920.80 258.13 919.80 257.03 918.81 C 255.69 918.76 254.34 918.72 253.00 918.70 C 253.01 918.04 253.04 916.74 253.06 916.08 Z" />
<path fill="#222953" stroke="#222953" stroke-width="0.09375" opacity="1.00" d=" M 266.22 926.40 C 268.71 925.92 274.86 931.71 271.31 933.44 C 269.45 931.38 265.88 929.50 266.22 926.40 Z" />
<path fill="#222953" stroke="#222953" stroke-width="0.09375" opacity="1.00" d=" M 23.76 935.74 C 25.01 932.58 26.91 929.70 29.66 927.67 C 31.76 930.10 33.80 932.59 35.76 935.15 C 34.73 936.40 33.70 937.66 32.67 938.94 C 29.66 937.97 26.69 936.91 23.76 935.74 Z" />
<path fill="#222953" stroke="#222953" stroke-width="0.09375" opacity="1.00" d=" M 277.95 937.29 C 279.96 939.57 283.95 941.36 283.76 944.76 C 280.75 944.84 276.13 940.50 277.95 937.29 Z" />
<path fill="#222953" stroke="#222953" stroke-width="0.09375" opacity="1.00" d=" M 274.35 973.28 C 295.49 973.27 316.63 973.23 337.77 973.30 C 337.76 973.89 337.74 975.07 337.72 975.66 C 317.80 975.71 297.88 975.67 277.96 975.67 C 276.21 975.48 274.61 976.18 273.49 977.51 C 264.11 986.82 254.78 996.19 245.36 1005.47 C 244.30 1006.75 242.54 1006.60 241.05 1006.67 C 214.84 1006.57 188.63 1006.69 162.42 1006.60 C 162.42 1006.03 162.42 1004.90 162.43 1004.33 C 189.30 1004.22 216.18 1004.28 243.05 1004.31 C 253.53 994.01 263.98 983.68 274.35 973.28 Z" />
</g>
<g id="#0b0e1c91">
<path fill="#0b0e1c" stroke="#0b0e1c" stroke-width="0.09375" opacity="0.57" d=" M 560.15 43.85 C 573.18 44.02 585.97 51.26 592.46 62.61 C 599.89 74.88 599.41 91.43 591.23 103.23 C 584.48 113.53 572.39 119.80 560.15 120.07 C 560.04 115.91 560.07 111.75 560.32 107.59 C 573.81 107.34 586.13 95.75 585.77 82.01 C 586.22 68.24 573.90 56.45 560.34 56.35 C 560.07 52.19 560.03 48.02 560.15 43.85 Z" />
<path fill="#0b0e1c" stroke="#0b0e1c" stroke-width="0.09375" opacity="0.57" d=" M 560.07 59.51 C 571.87 58.98 582.49 69.25 582.83 80.95 C 583.65 93.34 572.54 104.91 560.07 104.42 C 560.09 103.61 560.13 102.00 560.15 101.20 C 563.22 100.52 566.27 99.73 569.28 98.82 C 568.06 95.78 566.53 92.87 564.82 90.08 C 563.29 90.28 561.76 90.47 560.23 90.67 C 560.07 84.72 560.02 78.76 560.28 72.81 C 565.85 73.59 569.36 78.33 569.47 83.81 C 572.65 84.43 575.85 84.91 579.07 85.29 C 580.89 73.78 571.54 63.27 560.15 62.70 C 560.13 61.90 560.09 60.31 560.07 59.51 M 568.55 85.13 C 567.70 86.45 566.85 87.78 566.00 89.09 C 567.88 91.67 569.90 94.14 572.05 96.49 C 574.53 94.19 576.53 91.44 577.95 88.38 C 574.86 87.19 571.72 86.10 568.55 85.13 Z" />
<path fill="#0b0e1c" stroke="#0b0e1c" stroke-width="0.09375" opacity="0.57" d=" M 13.17 917.18 C 20.17 909.14 30.54 904.44 41.14 903.94 C 41.33 908.15 41.32 912.38 41.10 916.61 C 27.33 916.70 14.87 929.03 15.85 942.99 C 15.76 956.51 28.02 967.37 41.12 967.95 C 41.28 972.06 41.28 976.18 41.15 980.31 C 26.98 980.04 13.42 971.30 7.44 958.44 C 0.90 945.17 3.26 928.16 13.17 917.18 Z" />
<path fill="#0b0e1c" stroke="#0b0e1c" stroke-width="0.09375" opacity="0.57" d=" M 19.09 946.03 C 16.31 932.72 27.78 919.36 41.26 919.59 C 41.21 920.43 41.12 922.12 41.07 922.97 C 38.03 923.60 35.04 924.47 32.15 925.60 C 34.14 929.35 35.56 935.39 41.08 933.69 C 41.32 939.58 41.34 945.48 41.06 951.37 C 35.63 950.46 32.23 945.85 32.24 940.45 C 29.06 939.71 25.84 939.17 22.60 938.81 C 20.58 950.20 29.84 960.86 41.20 961.34 C 41.10 962.53 40.99 963.73 40.89 964.94 C 30.48 964.35 20.60 956.61 19.09 946.03 M 23.76 935.74 C 26.69 936.91 29.66 937.97 32.67 938.94 C 33.70 937.66 34.73 936.40 35.76 935.15 C 33.80 932.59 31.76 930.10 29.66 927.67 C 26.91 929.70 25.01 932.58 23.76 935.74 Z" />
</g>
<g id="#1e2343ac">
<path fill="#1e2343" stroke="#1e2343" stroke-width="0.09375" opacity="0.67" d=" M 149.97 359.36 C 150.87 354.40 147.69 347.20 151.84 343.67 C 152.20 348.89 152.06 354.13 152.03 359.36 C 151.51 359.36 150.48 359.36 149.97 359.36 Z" />
<path fill="#1e2343" stroke="#1e2343" stroke-width="0.09375" opacity="0.67" d=" M 182.08 344.03 C 182.57 344.24 183.54 344.64 184.03 344.85 C 184.05 349.66 184.05 354.47 184.02 359.29 C 183.51 359.30 182.49 359.32 181.98 359.32 C 181.90 354.22 181.87 349.12 182.08 344.03 Z" />
<path fill="#1e2343" stroke="#1e2343" stroke-width="0.09375" opacity="0.67" d=" M 225.98 344.85 C 226.47 344.65 227.44 344.23 227.92 344.03 C 228.14 349.12 228.11 354.22 228.03 359.32 C 227.52 359.31 226.50 359.30 226.00 359.29 C 225.98 354.48 225.98 349.66 225.98 344.85 Z" />
<path fill="#1e2343" stroke="#1e2343" stroke-width="0.09375" opacity="0.67" d=" M 105.89 344.54 C 106.43 344.54 107.50 344.54 108.04 344.54 C 108.10 349.46 108.10 354.38 108.04 359.30 C 107.50 359.30 106.43 359.30 105.90 359.30 C 105.84 354.38 105.84 349.46 105.89 344.54 Z" />
<path fill="#1e2343" stroke="#1e2343" stroke-width="0.09375" opacity="0.67" d=" M 528.31 380.33 C 532.93 379.31 527.28 384.96 528.31 380.33 Z" />
<path fill="#1e2343" stroke="#1e2343" stroke-width="0.09375" opacity="0.67" d=" M 528.04 391.43 C 529.55 390.22 530.95 392.92 529.59 393.90 C 528.07 395.11 526.65 392.39 528.04 391.43 Z" />
<path fill="#1e2343" stroke="#1e2343" stroke-width="0.09375" opacity="0.67" d=" M 528.04 401.12 C 529.54 399.93 530.95 402.63 529.60 403.61 C 528.08 404.79 526.66 402.09 528.04 401.12 Z" />
<path fill="#1e2343" stroke="#1e2343" stroke-width="0.09375" opacity="0.67" d=" M 528.29 411.32 C 532.92 410.30 527.28 415.95 528.29 411.32 Z" />
<path fill="#1e2343" stroke="#1e2343" stroke-width="0.09375" opacity="0.67" d=" M 529.17 489.34 C 533.50 492.26 524.84 492.18 529.17 489.34 Z" />
<path fill="#1e2343" stroke="#1e2343" stroke-width="0.09375" opacity="0.67" d=" M 59.97 495.06 C 64.62 494.05 58.96 499.67 59.97 495.06 Z" />
<path fill="#1e2343" stroke="#1e2343" stroke-width="0.09375" opacity="0.67" d=" M 528.04 500.12 C 529.55 498.93 530.95 501.63 529.60 502.61 C 528.08 503.79 526.65 501.08 528.04 500.12 Z" />
<path fill="#1e2343" stroke="#1e2343" stroke-width="0.09375" opacity="0.67" d=" M 59.97 505.29 C 64.62 504.24 58.97 509.91 59.97 505.29 Z" />
<path fill="#1e2343" stroke="#1e2343" stroke-width="0.09375" opacity="0.67" d=" M 528.03 531.07 C 529.54 529.88 530.94 532.58 529.59 533.56 C 528.07 534.74 526.66 532.03 528.03 531.07 Z" />
<path fill="#1e2343" stroke="#1e2343" stroke-width="0.09375" opacity="0.67" d=" M 59.98 540.36 C 64.61 539.35 58.96 544.99 59.98 540.36 Z" />
<path fill="#1e2343" stroke="#1e2343" stroke-width="0.09375" opacity="0.67" d=" M 59.97 571.25 C 64.63 570.21 58.95 575.84 59.97 571.25 Z" />
<path fill="#1e2343" stroke="#1e2343" stroke-width="0.09375" opacity="0.67" d=" M 120.32 629.07 C 130.58 622.37 145.42 623.10 155.50 629.75 C 144.23 625.06 131.78 624.92 120.32 629.07 Z" />
<path fill="#1e2343" stroke="#1e2343" stroke-width="0.09375" opacity="0.67" d=" M 129.37 633.49 C 140.35 630.89 152.63 634.28 160.38 642.58 C 169.55 651.77 172.02 666.63 166.51 678.37 C 161.39 690.04 148.77 697.90 136.01 697.15 C 117.89 697.12 102.52 678.98 105.24 661.11 C 106.72 648.10 116.73 636.77 129.37 633.49 M 133.41 634.48 C 118.26 636.25 105.63 650.54 106.81 665.95 C 106.66 683.26 123.81 698.22 140.95 695.31 C 158.06 693.83 171.25 675.70 167.13 658.96 C 164.63 643.59 148.75 632.24 133.41 634.48 Z" />
<path fill="#1e2343" stroke="#1e2343" stroke-width="0.09375" opacity="0.67" d=" M 42.29 647.10 L 43.01 647.72 C 43.09 732.83 42.88 817.94 43.12 903.05 C 40.99 902.92 38.86 902.79 36.73 902.77 C 38.28 902.52 39.84 902.28 41.40 902.06 C 42.34 895.07 41.83 888.02 41.90 881.00 C 41.96 803.03 41.75 725.06 42.29 647.10 Z" />
<path fill="#1e2343" stroke="#1e2343" stroke-width="0.09375" opacity="0.67" d=" M 102.68 684.47 C 95.13 674.09 94.83 658.43 101.62 647.62 C 97.06 659.61 97.35 672.78 102.68 684.47 Z" />
</g>
<g id="#1f22396a">
<path fill="#1f2239" stroke="#1f2239" stroke-width="0.09375" opacity="0.42" d=" M 522.06 444.56 C 525.06 444.70 527.58 442.95 530.07 441.54 C 530.05 442.35 530.01 443.97 530.00 444.78 C 529.56 445.06 528.68 445.60 528.24 445.88 C 372.19 446.12 216.13 445.72 60.07 446.08 C 60.00 450.20 59.68 454.31 59.15 458.40 C 58.60 453.23 58.65 448.02 59.25 442.86 C 66.25 445.33 73.73 444.44 81.00 444.51 C 228.02 444.56 375.04 444.46 522.06 444.56 Z" />
<path fill="#1f2239" stroke="#1f2239" stroke-width="0.09375" opacity="0.42" d=" M 59.22 459.87 C 59.45 460.95 59.69 462.02 59.96 463.10 C 65.56 463.23 71.17 463.29 76.77 463.38 C 77.15 501.74 77.41 540.17 76.64 578.53 C 71.96 578.74 67.27 578.79 62.59 578.58 C 61.91 577.78 61.22 576.99 60.51 576.22 C 65.50 576.84 70.53 576.69 75.54 576.55 C 75.87 539.42 75.67 502.27 75.64 465.13 C 70.10 464.33 64.28 464.33 59.31 467.27 C 59.28 464.80 59.27 462.34 59.22 459.87 Z" />
<path fill="#1f2239" stroke="#1f2239" stroke-width="0.09375" opacity="0.42" d=" M 84.36 465.97 C 83.83 462.58 87.82 463.35 89.98 463.20 C 127.09 463.60 164.28 462.67 201.35 463.66 C 202.11 501.75 201.54 539.92 201.62 578.04 C 167.82 579.44 133.87 578.25 100.00 578.64 C 94.79 578.65 89.53 578.96 84.37 578.01 C 84.26 540.67 84.26 503.31 84.36 465.97 M 85.90 465.03 C 85.42 502.21 85.32 539.46 85.95 576.63 C 123.99 576.66 162.02 576.65 200.06 576.64 C 200.70 539.45 200.53 502.19 200.15 464.98 C 162.07 464.64 123.96 464.54 85.90 465.03 Z" />
<path fill="#1f2239" stroke="#1f2239" stroke-width="0.09375" opacity="0.42" d=" M 209.13 463.67 C 244.72 462.77 280.38 463.60 315.99 463.25 C 319.30 463.18 322.61 463.36 325.89 463.75 C 325.97 501.85 326.14 539.97 325.81 578.08 C 292.26 579.39 258.59 578.28 224.99 578.64 C 219.71 578.64 214.40 578.95 209.16 578.08 C 208.81 539.95 208.88 501.80 209.13 463.67 M 210.39 465.34 C 210.27 502.40 210.12 539.47 210.46 576.53 C 248.39 576.56 286.40 577.07 324.28 576.27 C 325.14 539.33 324.40 502.26 324.64 465.27 C 286.56 465.09 248.46 464.94 210.39 465.34 Z" />
<path fill="#1f2239" stroke="#1f2239" stroke-width="0.09375" opacity="0.42" d=" M 333.59 463.58 C 372.42 463.16 411.32 463.01 450.15 463.65 C 450.50 501.83 450.67 540.06 450.06 578.23 C 414.07 579.23 378.01 578.31 342.00 578.69 C 338.52 578.58 332.31 579.44 333.30 574.08 C 333.45 537.25 332.88 500.39 333.59 463.58 M 335.00 465.21 C 334.47 502.33 334.30 539.54 335.08 576.65 C 372.96 576.64 410.85 576.66 448.73 576.64 C 448.96 539.50 448.90 502.36 448.76 465.22 C 410.84 465.06 372.92 465.09 335.00 465.21 Z" />
<path fill="#1f2239" stroke="#1f2239" stroke-width="0.09375" opacity="0.42" d=" M 457.70 465.90 C 458.21 463.88 459.85 462.50 462.00 463.13 C 483.80 464.65 505.77 462.38 527.51 464.34 C 504.81 465.52 482.02 464.05 459.30 465.08 C 459.21 502.24 459.04 539.40 459.38 576.56 C 482.51 576.68 505.66 576.79 528.79 576.49 C 526.18 578.26 523.13 579.00 520.00 578.74 C 499.28 578.30 478.53 579.17 457.83 578.28 C 457.72 540.82 458.25 503.36 457.70 465.90 Z" />
<path fill="#1f2239" stroke="#1f2239" stroke-width="0.09375" opacity="0.42" d=" M 59.32 583.53 C 59.68 586.54 59.64 589.59 59.09 592.59 C 59.11 589.56 59.18 586.54 59.32 583.53 Z" />
<path fill="#1f2239" stroke="#1f2239" stroke-width="0.09375" opacity="0.42" d=" M 58.98 594.68 C 67.16 596.75 75.67 595.26 84.00 595.69 C 102.06 596.05 120.19 594.97 138.22 596.18 C 135.19 597.13 132.03 597.52 128.89 597.86 C 129.29 597.95 130.08 598.12 130.47 598.20 C 124.21 599.62 116.25 597.42 111.76 603.18 C 111.64 602.76 111.40 601.93 111.28 601.51 C 113.35 597.37 118.22 597.71 122.15 597.29 C 102.62 597.41 83.09 597.18 63.56 597.44 C 62.07 598.52 60.57 599.59 59.06 600.64 C 59.00 598.65 58.94 596.67 58.98 594.68 Z" />
<path fill="#1f2239" stroke="#1f2239" stroke-width="0.09375" opacity="0.42" d=" M 159.46 608.77 C 159.74 609.87 159.99 610.99 160.21 612.12 C 153.89 612.89 147.28 612.23 141.28 614.74 C 136.31 615.19 131.32 615.17 126.35 615.48 C 119.83 615.27 113.36 616.03 106.88 616.59 C 106.76 618.15 106.64 619.71 106.57 621.29 C 106.26 619.31 105.90 617.34 105.68 615.36 C 123.44 614.31 141.26 613.09 158.88 610.77 C 159.03 610.27 159.31 609.27 159.46 608.77 Z" />
<path fill="#1f2239" stroke="#1f2239" stroke-width="0.09375" opacity="0.42" d=" M 78.33 618.50 C 80.12 613.15 86.83 613.23 91.38 611.85 C 91.46 612.72 91.62 614.44 91.70 615.30 C 87.30 616.57 82.88 617.86 78.33 618.50 Z" />
<path fill="#1f2239" stroke="#1f2239" stroke-width="0.09375" opacity="0.42" d=" M 93.58 611.72 C 96.48 612.20 99.37 612.68 102.26 613.13 C 102.38 613.89 102.60 615.42 102.71 616.18 C 99.66 616.06 96.61 616.11 93.57 616.39 C 93.57 614.82 93.58 613.27 93.58 611.72 Z" />
<path fill="#1f2239" stroke="#1f2239" stroke-width="0.09375" opacity="0.42" d=" M 167.96 613.83 C 173.22 614.04 178.47 613.50 183.71 613.17 C 186.39 613.13 188.99 613.93 191.53 614.71 C 183.96 615.48 176.36 616.04 168.77 616.63 C 168.57 615.93 168.17 614.53 167.96 613.83 Z" />
<path fill="#1f2239" stroke="#1f2239" stroke-width="0.09375" opacity="0.42" d=" M 69.59 618.76 C 71.45 618.47 73.31 618.19 75.17 617.91 C 75.32 618.82 75.61 620.64 75.75 621.54 C 74.12 621.84 72.50 622.14 70.87 622.45 C 70.44 621.22 70.02 619.99 69.59 618.76 Z" />
<path fill="#1f2239" stroke="#1f2239" stroke-width="0.09375" opacity="0.42" d=" M 177.23 632.26 C 176.68 627.75 176.35 621.29 182.12 620.22 C 187.59 619.67 189.81 625.68 188.62 630.18 C 190.19 630.23 191.76 630.29 193.34 630.36 C 188.09 632.02 182.35 630.10 177.23 632.26 Z" />
<path fill="#1f2239" stroke="#1f2239" stroke-width="0.09375" opacity="0.42" d=" M 197.80 624.88 C 198.78 624.89 200.75 624.91 201.73 624.92 C 201.24 625.36 200.25 626.23 199.76 626.67 C 199.98 627.87 200.20 629.08 200.42 630.31 C 201.05 630.32 202.31 630.34 202.95 630.36 C 199.43 635.71 195.18 628.65 197.80 624.88 Z" />
<path fill="#1f2239" stroke="#1f2239" stroke-width="0.09375" opacity="0.42" d=" M 43.14 639.38 C 43.89 639.51 45.39 639.78 46.14 639.92 C 46.55 641.53 46.95 643.15 47.35 644.78 C 46.62 645.38 45.17 646.59 44.45 647.19 C 44.04 644.57 43.64 641.97 43.14 639.38 Z" />
<path fill="#1f2239" stroke="#1f2239" stroke-width="0.09375" opacity="0.42" d=" M 40.79 645.84 C 41.16 646.15 41.91 646.78 42.29 647.10 C 41.75 725.06 41.96 803.03 41.90 881.00 C 41.83 888.02 42.34 895.07 41.40 902.06 C 40.79 823.38 41.37 744.68 41.26 666.00 C 41.16 659.28 41.71 652.52 40.79 645.84 Z" />
</g>
<g id="#f6f6f6ff">
<path fill="#f6f6f6" stroke="#f6f6f6" stroke-width="0.09375" opacity="1.00" d=" M 66.08 450.77 C 67.50 450.76 68.91 450.75 70.33 450.75 C 70.37 453.99 70.38 457.23 70.37 460.47 C 68.88 460.46 67.39 460.44 65.91 460.43 C 65.90 457.21 65.94 453.99 66.08 450.77 Z" />
<path fill="#f6f6f6" stroke="#f6f6f6" stroke-width="0.09375" opacity="1.00" d=" M 76.62 450.78 C 78.03 450.77 79.43 450.76 80.84 450.75 C 80.87 454.05 80.87 457.36 80.75 460.66 C 79.34 460.54 77.94 460.43 76.53 460.31 C 76.56 457.13 76.57 453.96 76.62 450.78 Z" />
<path fill="#f6f6f6" stroke="#f6f6f6" stroke-width="0.09375" opacity="1.00" d=" M 85.89 450.76 C 87.36 450.76 88.82 450.76 90.29 450.77 C 90.34 454.00 90.34 457.23 90.32 460.46 C 88.84 460.46 87.37 460.47 85.89 460.48 C 85.88 457.23 85.88 454.00 85.89 450.76 Z" />
<path fill="#f6f6f6" stroke="#f6f6f6" stroke-width="0.09375" opacity="1.00" d=" M 96.56 450.78 C 97.99 450.77 99.43 450.77 100.87 450.78 C 101.15 454.05 101.14 457.35 100.80 460.62 C 99.36 460.53 97.92 460.44 96.49 460.36 C 96.51 457.16 96.52 453.97 96.56 450.78 Z" />
<path fill="#f6f6f6" stroke="#f6f6f6" stroke-width="0.09375" opacity="1.00" d=" M 106.16 450.68 C 107.62 450.76 109.09 450.85 110.55 450.95 C 110.54 454.16 110.54 457.37 110.48 460.59 C 103.97 462.24 106.47 454.54 106.16 450.68 Z" />
<path fill="#f6f6f6" stroke="#f6f6f6" stroke-width="0.09375" opacity="1.00" d=" M 116.68 450.75 C 118.17 450.76 119.65 450.77 121.14 450.80 C 121.15 454.01 121.15 457.23 121.13 460.45 C 119.64 460.45 118.14 460.45 116.65 460.45 C 116.65 457.22 116.65 453.98 116.68 450.75 Z" />
<path fill="#f6f6f6" stroke="#f6f6f6" stroke-width="0.09375" opacity="1.00" d=" M 125.27 450.85 C 126.77 450.81 128.27 450.79 129.78 450.78 C 129.79 454.02 129.78 457.28 129.69 460.53 C 128.24 460.51 126.80 460.49 125.35 460.48 C 125.28 457.27 125.27 454.06 125.27 450.85 Z" />
<path fill="#f6f6f6" stroke="#f6f6f6" stroke-width="0.09375" opacity="1.00" d=" M 136.09 450.81 C 137.52 450.78 138.96 450.77 140.39 450.76 C 140.41 454.00 140.41 457.24 140.41 460.49 C 138.88 460.46 137.36 460.44 135.84 460.41 C 135.84 457.21 135.89 454.01 136.09 450.81 Z" />
<path fill="#f6f6f6" stroke="#f6f6f6" stroke-width="0.09375" opacity="1.00" d=" M 145.12 450.78 C 146.54 450.76 147.97 450.75 149.40 450.75 C 149.46 453.98 149.47 457.21 149.49 460.45 C 147.95 460.44 146.42 460.43 144.88 460.41 C 144.89 457.20 144.96 453.99 145.12 450.78 Z" />
<path fill="#f6f6f6" stroke="#f6f6f6" stroke-width="0.09375" opacity="1.00" d=" M 155.64 450.78 C 157.06 450.77 158.47 450.76 159.88 450.75 C 160.07 453.98 160.14 457.21 160.14 460.45 C 158.63 460.45 157.13 460.46 155.62 460.46 C 155.61 457.23 155.61 454.01 155.64 450.78 Z" />
<path fill="#f6f6f6" stroke="#f6f6f6" stroke-width="0.09375" opacity="1.00" d=" M 166.80 450.76 C 168.26 450.76 169.73 450.76 171.19 450.78 C 171.21 454.00 171.22 457.22 171.19 460.45 C 169.73 460.46 168.26 460.47 166.80 460.48 C 166.78 457.24 166.78 454.00 166.80 450.76 Z" />
<path fill="#f6f6f6" stroke="#f6f6f6" stroke-width="0.09375" opacity="1.00" d=" M 177.29 450.83 C 178.78 450.81 180.26 450.80 181.75 450.80 C 181.78 454.04 181.77 457.28 181.69 460.53 C 180.24 460.51 178.80 460.50 177.36 460.49 C 177.30 457.27 177.29 454.05 177.29 450.83 Z" />
<path fill="#f6f6f6" stroke="#f6f6f6" stroke-width="0.09375" opacity="1.00" d=" M 190.63 450.76 C 192.06 450.76 193.48 450.77 194.91 450.79 C 195.09 453.99 195.14 457.20 195.13 460.41 C 193.62 460.43 192.11 460.46 190.60 460.48 C 190.60 457.24 190.60 454.00 190.63 450.76 Z" />
<path fill="#f6f6f6" stroke="#f6f6f6" stroke-width="0.09375" opacity="1.00" d=" M 201.29 450.79 C 202.75 450.80 204.22 450.81 205.69 450.84 C 205.70 454.06 205.70 457.28 205.64 460.50 C 204.20 460.50 202.76 460.51 201.33 460.52 C 201.28 457.28 201.28 454.03 201.29 450.79 Z" />
<path fill="#f6f6f6" stroke="#f6f6f6" stroke-width="0.09375" opacity="1.00" d=" M 210.45 450.90 C 211.88 450.83 213.32 450.77 214.76 450.72 C 214.79 453.99 214.79 457.27 214.72 460.55 C 213.31 460.51 211.90 460.49 210.50 460.46 C 210.48 457.27 210.47 454.08 210.45 450.90 Z" />
<path fill="#f6f6f6" stroke="#f6f6f6" stroke-width="0.09375" opacity="1.00" d=" M 221.27 450.76 C 222.71 450.79 224.16 450.83 225.62 450.88 C 225.59 454.07 225.58 457.27 225.55 460.47 C 224.13 460.49 222.72 460.50 221.31 460.53 C 221.25 457.27 221.25 454.01 221.27 450.76 Z" />
<path fill="#f6f6f6" stroke="#f6f6f6" stroke-width="0.09375" opacity="1.00" d=" M 230.72 450.75 C 232.20 450.76 233.67 450.77 235.16 450.79 C 235.16 454.00 235.16 457.22 235.15 460.44 C 233.66 460.45 232.18 460.46 230.69 460.48 C 230.68 457.23 230.69 453.99 230.72 450.75 Z" />
<path fill="#f6f6f6" stroke="#f6f6f6" stroke-width="0.09375" opacity="1.00" d=" M 241.34 450.84 C 242.79 450.81 244.24 450.81 245.70 450.81 C 245.69 454.04 245.68 457.27 245.64 460.51 C 244.22 460.50 242.80 460.49 241.38 460.49 C 241.33 457.27 241.33 454.05 241.34 450.84 Z" />
<path fill="#f6f6f6" stroke="#f6f6f6" stroke-width="0.09375" opacity="1.00" d=" M 250.16 450.75 C 251.56 450.75 252.96 450.76 254.37 450.78 C 254.41 454.00 254.42 457.22 254.41 460.44 C 252.96 460.45 251.52 460.46 250.09 460.47 C 250.11 457.23 250.12 453.99 250.16 450.75 Z" />
<path fill="#f6f6f6" stroke="#f6f6f6" stroke-width="0.09375" opacity="1.00" d=" M 260.70 450.77 C 262.10 450.76 263.50 450.75 264.91 450.76 C 264.94 453.99 264.95 457.23 264.98 460.47 C 263.54 460.47 262.10 460.47 260.67 460.47 C 260.65 457.23 260.66 454.00 260.70 450.77 Z" />
<path fill="#f6f6f6" stroke="#f6f6f6" stroke-width="0.09375" opacity="1.00" d=" M 269.72 450.75 C 271.21 450.76 272.71 450.77 274.20 450.78 C 274.22 454.00 274.22 457.21 274.20 460.43 C 272.70 460.45 271.20 460.46 269.70 460.48 C 269.69 457.24 269.69 453.99 269.72 450.75 Z" />
<path fill="#f6f6f6" stroke="#f6f6f6" stroke-width="0.09375" opacity="1.00" d=" M 280.31 450.82 C 281.78 450.81 283.25 450.81 284.73 450.83 C 284.74 454.05 284.73 457.28 284.66 460.51 C 283.22 460.50 281.79 460.50 280.36 460.50 C 280.32 457.27 280.31 454.04 280.31 450.82 Z" />
<path fill="#f6f6f6" stroke="#f6f6f6" stroke-width="0.09375" opacity="1.00" d=" M 291.29 450.81 C 292.75 450.80 294.22 450.80 295.70 450.82 C 295.71 454.04 295.71 457.27 295.67 460.50 C 294.22 460.49 292.77 460.50 291.33 460.50 C 291.27 457.27 291.27 454.04 291.29 450.81 Z" />
<path fill="#f6f6f6" stroke="#f6f6f6" stroke-width="0.09375" opacity="1.00" d=" M 302.05 450.78 C 303.50 450.77 304.95 450.77 306.41 450.77 C 306.46 454.01 306.46 457.24 306.45 460.48 C 304.91 460.46 303.38 460.44 301.85 460.42 C 301.85 457.20 301.88 453.99 302.05 450.78 Z" />
<path fill="#f6f6f6" stroke="#f6f6f6" stroke-width="0.09375" opacity="1.00" d=" M 315.06 450.75 C 316.49 450.76 317.93 450.76 319.36 450.78 C 319.41 454.00 319.42 457.22 319.42 460.45 C 317.90 460.45 316.40 460.45 314.89 460.46 C 314.89 457.22 314.92 453.98 315.06 450.75 Z" />
<path fill="#f6f6f6" stroke="#f6f6f6" stroke-width="0.09375" opacity="1.00" d=" M 325.55 450.75 C 327.02 450.77 328.49 450.80 329.96 450.84 C 330.12 454.02 330.16 457.21 330.17 460.40 C 328.60 460.43 327.04 460.44 325.48 460.45 C 325.50 457.21 325.51 453.98 325.55 450.75 Z" />
<path fill="#f6f6f6" stroke="#f6f6f6" stroke-width="0.09375" opacity="1.00" d=" M 334.89 450.77 C 336.33 450.76 337.78 450.76 339.24 450.76 C 339.26 453.99 339.26 457.22 339.23 460.46 C 337.78 460.46 336.33 460.47 334.89 460.47 C 334.88 457.23 334.88 454.00 334.89 450.77 Z" />
<path fill="#f6f6f6" stroke="#f6f6f6" stroke-width="0.09375" opacity="1.00" d=" M 345.57 450.77 C 346.99 450.76 348.41 450.77 349.84 450.78 C 349.88 454.07 349.87 457.35 349.73 460.64 C 348.31 460.53 346.90 460.44 345.49 460.34 C 345.52 457.14 345.53 453.95 345.57 450.77 Z" />
<path fill="#f6f6f6" stroke="#f6f6f6" stroke-width="0.09375" opacity="1.00" d=" M 355.16 450.77 C 356.57 450.76 357.97 450.76 359.38 450.77 C 359.43 454.03 359.44 457.30 359.42 460.57 C 352.96 462.27 355.54 454.53 355.16 450.77 Z" />
<path fill="#f6f6f6" stroke="#f6f6f6" stroke-width="0.09375" opacity="1.00" d=" M 365.64 450.77 C 367.11 450.76 368.59 450.77 370.07 450.78 C 370.12 454.00 370.13 457.21 370.13 460.43 C 368.61 460.44 367.10 460.45 365.59 460.46 C 365.58 457.23 365.59 453.99 365.64 450.77 Z" />
<path fill="#f6f6f6" stroke="#f6f6f6" stroke-width="0.09375" opacity="1.00" d=" M 374.37 450.85 C 375.82 450.82 377.28 450.80 378.74 450.79 C 378.75 454.03 378.74 457.28 378.67 460.52 C 377.25 460.50 375.84 460.49 374.42 460.47 C 374.40 457.26 374.39 454.06 374.37 450.85 Z" />
<path fill="#f6f6f6" stroke="#f6f6f6" stroke-width="0.09375" opacity="1.00" d=" M 385.15 450.75 C 386.55 450.75 387.94 450.76 389.34 450.77 C 389.37 453.95 389.37 457.13 389.41 460.32 C 388.02 460.43 386.63 460.54 385.25 460.67 C 385.10 457.36 385.09 454.05 385.15 450.75 Z" />
<path fill="#f6f6f6" stroke="#f6f6f6" stroke-width="0.09375" opacity="1.00" d=" M 394.10 450.75 C 395.54 450.75 396.98 450.76 398.42 450.77 C 398.48 453.95 398.49 457.13 398.51 460.31 C 397.08 460.43 395.65 460.54 394.23 460.67 C 394.08 457.36 394.07 454.06 394.10 450.75 Z" />
<path fill="#f6f6f6" stroke="#f6f6f6" stroke-width="0.09375" opacity="1.00" d=" M 404.62 450.76 C 406.11 450.77 407.60 450.78 409.10 450.80 C 409.15 454.01 409.16 457.21 409.16 460.42 C 407.63 460.44 406.11 460.46 404.59 460.47 C 404.59 457.23 404.59 454.00 404.62 450.76 Z" />
<path fill="#f6f6f6" stroke="#f6f6f6" stroke-width="0.09375" opacity="1.00" d=" M 415.73 450.76 C 417.20 450.75 418.67 450.75 420.15 450.76 C 420.16 453.99 420.16 457.22 420.15 460.46 C 418.66 460.47 417.18 460.47 415.70 460.49 C 415.69 457.24 415.69 454.00 415.73 450.76 Z" />
<path fill="#f6f6f6" stroke="#f6f6f6" stroke-width="0.09375" opacity="1.00" d=" M 426.29 450.84 C 427.76 450.82 429.23 450.81 430.71 450.81 C 430.72 454.04 430.72 457.27 430.65 460.51 C 429.22 460.50 427.79 460.49 426.37 460.49 C 426.30 457.27 426.29 454.05 426.29 450.84 Z" />
<path fill="#f6f6f6" stroke="#f6f6f6" stroke-width="0.09375" opacity="1.00" d=" M 439.28 450.77 C 440.74 450.79 442.22 450.81 443.70 450.85 C 443.71 454.06 443.71 457.28 443.64 460.50 C 442.20 460.50 440.76 460.50 439.33 460.51 C 439.27 457.26 439.27 454.01 439.28 450.77 Z" />
<path fill="#f6f6f6" stroke="#f6f6f6" stroke-width="0.09375" opacity="1.00" d=" M 449.79 450.78 C 451.30 450.77 452.81 450.76 454.32 450.77 C 454.37 453.99 454.37 457.22 454.37 460.46 C 452.84 460.46 451.32 460.46 449.80 460.46 C 449.78 457.23 449.78 454.00 449.79 450.78 Z" />
<path fill="#f6f6f6" stroke="#f6f6f6" stroke-width="0.09375" opacity="1.00" d=" M 459.29 450.76 C 460.73 450.78 462.17 450.82 463.62 450.86 C 463.63 454.07 463.62 457.28 463.59 460.49 C 462.16 460.49 460.74 460.51 459.32 460.52 C 459.28 457.27 459.27 454.01 459.29 450.76 Z" />
<path fill="#f6f6f6" stroke="#f6f6f6" stroke-width="0.09375" opacity="1.00" d=" M 469.81 450.78 C 471.28 450.77 472.77 450.76 474.25 450.76 C 474.27 453.99 474.27 457.23 474.25 460.47 C 472.77 460.46 471.29 460.46 469.82 460.46 C 469.79 457.23 469.79 454.01 469.81 450.78 Z" />
<path fill="#f6f6f6" stroke="#f6f6f6" stroke-width="0.09375" opacity="1.00" d=" M 479.35 450.83 C 480.79 450.81 482.23 450.81 483.68 450.81 C 483.69 454.04 483.69 457.27 483.65 460.50 C 482.22 460.49 480.81 460.48 479.39 460.48 C 479.36 457.26 479.35 454.05 479.35 450.83 Z" />
<path fill="#f6f6f6" stroke="#f6f6f6" stroke-width="0.09375" opacity="1.00" d=" M 489.86 450.79 C 491.35 450.77 492.85 450.76 494.36 450.76 C 494.38 454.00 494.38 457.24 494.39 460.48 C 492.87 460.46 491.36 460.43 489.85 460.41 C 489.84 457.20 489.84 454.00 489.86 450.79 Z" />
<path fill="#f6f6f6" stroke="#f6f6f6" stroke-width="0.09375" opacity="1.00" d=" M 498.72 450.75 C 500.19 450.76 501.67 450.77 503.16 450.79 C 503.16 454.00 503.17 457.22 503.16 460.44 C 501.66 460.45 500.18 460.45 498.70 460.46 C 498.69 457.22 498.69 453.99 498.72 450.75 Z" />
<path fill="#f6f6f6" stroke="#f6f6f6" stroke-width="0.09375" opacity="1.00" d=" M 509.34 450.85 C 510.79 450.82 512.24 450.81 513.70 450.81 C 513.69 454.04 513.69 457.27 513.65 460.51 C 512.22 460.50 510.80 460.49 509.39 460.48 C 509.35 457.27 509.34 454.05 509.34 450.85 Z" />
<path fill="#f6f6f6" stroke="#f6f6f6" stroke-width="0.09375" opacity="1.00" d=" M 518.37 450.85 C 519.82 450.82 521.28 450.80 522.74 450.79 C 522.77 454.03 522.77 457.28 522.69 460.53 C 521.25 460.51 519.83 460.49 518.41 460.48 C 518.38 457.27 518.37 454.06 518.37 450.85 Z" />
<path fill="#f6f6f6" stroke="#f6f6f6" stroke-width="0.09375" opacity="1.00" d=" M 65.90 581.57 C 67.40 581.56 68.90 581.55 70.39 581.57 C 70.38 584.84 70.37 588.11 70.35 591.39 C 68.87 591.36 67.40 591.35 65.93 591.33 C 65.92 588.07 65.92 584.82 65.90 581.57 Z" />
<path fill="#f6f6f6" stroke="#f6f6f6" stroke-width="0.09375" opacity="1.00" d=" M 76.55 581.70 C 77.95 581.56 79.36 581.44 80.76 581.33 C 80.86 584.67 80.87 588.01 80.89 591.36 C 79.46 591.36 78.03 591.36 76.61 591.37 C 76.57 588.14 76.56 584.92 76.55 581.70 Z" />
<path fill="#f6f6f6" stroke="#f6f6f6" stroke-width="0.09375" opacity="1.00" d=" M 85.91 581.54 C 87.34 581.50 88.77 581.46 90.20 581.43 C 90.34 584.73 90.35 588.04 90.33 591.34 C 88.85 591.35 87.37 591.36 85.89 591.38 C 85.88 588.10 85.88 584.82 85.91 581.54 Z" />
<path fill="#f6f6f6" stroke="#f6f6f6" stroke-width="0.09375" opacity="1.00" d=" M 96.50 581.67 C 97.92 581.55 99.34 581.44 100.76 581.34 C 101.07 584.66 101.17 587.98 101.13 591.31 C 99.60 591.33 98.07 591.36 96.54 591.38 C 96.52 588.14 96.51 584.90 96.50 581.67 Z" />
<path fill="#f6f6f6" stroke="#f6f6f6" stroke-width="0.09375" opacity="1.00" d=" M 106.10 591.31 C 106.50 587.46 103.99 579.79 110.47 581.38 C 110.57 584.74 110.55 588.10 110.40 591.46 C 108.97 591.41 107.53 591.35 106.10 591.31 Z" />
<path fill="#f6f6f6" stroke="#f6f6f6" stroke-width="0.09375" opacity="1.00" d=" M 125.38 581.47 C 126.81 581.46 128.24 581.46 129.67 581.46 C 129.77 584.75 129.79 588.05 129.80 591.35 C 128.28 591.33 126.77 591.31 125.25 591.28 C 125.27 588.01 125.28 584.74 125.38 581.47 Z" />
<path fill="#f6f6f6" stroke="#f6f6f6" stroke-width="0.09375" opacity="1.00" d=" M 135.88 591.33 C 136.16 587.39 133.86 579.63 140.44 581.51 C 140.42 584.80 140.40 588.09 140.39 591.39 C 138.89 591.37 137.38 591.35 135.88 591.33 Z" />
<path fill="#f6f6f6" stroke="#f6f6f6" stroke-width="0.09375" opacity="1.00" d=" M 144.93 581.58 C 146.45 581.55 147.96 581.53 149.48 581.53 C 149.47 584.82 149.46 588.12 149.43 591.42 C 147.93 591.38 146.43 591.34 144.94 591.31 C 144.92 588.06 144.92 584.82 144.93 581.58 Z" />
<path fill="#f6f6f6" stroke="#f6f6f6" stroke-width="0.09375" opacity="1.00" d=" M 155.60 581.71 C 157.01 581.56 158.42 581.43 159.84 581.31 C 160.10 584.65 160.16 588.00 160.13 591.35 C 158.63 591.35 157.14 591.36 155.65 591.36 C 155.62 588.14 155.61 584.92 155.60 581.71 Z" />
<path fill="#f6f6f6" stroke="#f6f6f6" stroke-width="0.09375" opacity="1.00" d=" M 177.39 581.49 C 178.82 581.47 180.25 581.46 181.68 581.46 C 181.76 584.75 181.78 588.05 181.80 591.35 C 180.28 591.33 178.77 591.30 177.26 591.27 C 177.29 588.01 177.30 584.75 177.39 581.49 Z" />
<path fill="#f6f6f6" stroke="#f6f6f6" stroke-width="0.09375" opacity="1.00" d=" M 190.58 581.55 C 192.10 581.55 193.61 581.57 195.13 581.60 C 195.12 584.84 195.11 588.07 195.10 591.31 C 193.61 591.34 192.12 591.36 190.63 591.39 C 190.61 588.11 190.60 584.83 190.58 581.55 Z" />
<path fill="#f6f6f6" stroke="#f6f6f6" stroke-width="0.09375" opacity="1.00" d=" M 201.35 581.46 C 202.76 581.46 204.18 581.47 205.60 581.49 C 205.69 584.75 205.71 588.00 205.74 591.27 C 204.23 591.29 202.73 591.32 201.24 591.34 C 201.27 588.04 201.28 584.75 201.35 581.46 Z" />
<path fill="#f6f6f6" stroke="#f6f6f6" stroke-width="0.09375" opacity="1.00" d=" M 210.51 581.54 C 211.91 581.49 213.31 581.45 214.71 581.43 C 214.78 584.71 214.79 588.00 214.82 591.29 C 213.40 591.35 212.00 591.41 210.59 591.48 C 210.46 588.16 210.46 584.85 210.51 581.54 Z" />
<path fill="#f6f6f6" stroke="#f6f6f6" stroke-width="0.09375" opacity="1.00" d=" M 221.33 581.45 C 222.72 581.46 224.13 581.48 225.53 581.51 C 225.62 584.84 225.61 588.18 225.45 591.51 C 224.03 591.42 222.62 591.33 221.22 591.25 C 221.25 587.97 221.26 584.71 221.33 581.45 Z" />
<path fill="#f6f6f6" stroke="#f6f6f6" stroke-width="0.09375" opacity="1.00" d=" M 230.71 591.35 C 231.03 587.46 228.61 579.66 235.17 581.51 C 235.17 584.79 235.16 588.06 235.15 591.35 C 233.66 591.35 232.18 591.35 230.71 591.35 Z" />
<path fill="#f6f6f6" stroke="#f6f6f6" stroke-width="0.09375" opacity="1.00" d=" M 241.41 581.45 C 242.81 581.45 244.21 581.46 245.62 581.48 C 245.68 584.75 245.69 588.03 245.74 591.31 C 244.25 591.30 242.76 591.29 241.28 591.28 C 241.32 588.00 241.34 584.72 241.41 581.45 Z" />
<path fill="#f6f6f6" stroke="#f6f6f6" stroke-width="0.09375" opacity="1.00" d=" M 250.22 581.32 C 251.62 581.44 253.03 581.56 254.43 581.70 C 254.42 584.91 254.41 588.13 254.38 591.35 C 252.95 591.36 251.52 591.37 250.09 591.38 C 250.10 588.02 250.11 584.67 250.22 581.32 Z" />
<path fill="#f6f6f6" stroke="#f6f6f6" stroke-width="0.09375" opacity="1.00" d=" M 260.64 581.54 C 267.10 579.54 264.51 587.60 264.95 591.37 C 263.52 591.36 262.10 591.36 260.68 591.37 C 260.66 588.09 260.66 584.81 260.64 581.54 Z" />
<path fill="#f6f6f6" stroke="#f6f6f6" stroke-width="0.09375" opacity="1.00" d=" M 280.40 581.47 C 281.80 581.46 283.21 581.47 284.63 581.48 C 284.73 584.76 284.74 588.03 284.76 591.32 C 283.26 591.31 281.76 591.30 280.27 591.29 C 280.31 588.01 280.32 584.74 280.40 581.47 Z" />
<path fill="#f6f6f6" stroke="#f6f6f6" stroke-width="0.09375" opacity="1.00" d=" M 291.37 581.49 C 292.79 581.47 294.21 581.47 295.64 581.48 C 295.70 584.76 295.72 588.04 295.75 591.32 C 294.25 591.32 292.74 591.31 291.24 591.30 C 291.27 588.03 291.28 584.75 291.37 581.49 Z" />
<path fill="#f6f6f6" stroke="#f6f6f6" stroke-width="0.09375" opacity="1.00" d=" M 301.86 581.59 C 303.39 581.57 304.93 581.56 306.47 581.58 C 306.47 584.84 306.46 588.11 306.43 591.38 C 304.91 591.36 303.40 591.34 301.89 591.32 C 301.87 588.07 301.86 584.83 301.86 581.59 Z" />
<path fill="#f6f6f6" stroke="#f6f6f6" stroke-width="0.09375" opacity="1.00" d=" M 314.89 581.55 C 316.40 581.55 317.92 581.56 319.43 581.60 C 319.43 584.85 319.42 588.10 319.37 591.35 C 317.88 591.35 316.40 591.35 314.92 591.36 C 314.90 588.09 314.90 584.82 314.89 581.55 Z" />
<path fill="#f6f6f6" stroke="#f6f6f6" stroke-width="0.09375" opacity="1.00" d=" M 325.50 581.54 C 327.04 581.54 328.59 581.56 330.14 581.60 C 330.14 584.83 330.13 588.07 330.12 591.31 C 328.59 591.33 327.06 591.35 325.53 591.38 C 325.50 588.10 325.50 584.82 325.50 581.54 Z" />
<path fill="#f6f6f6" stroke="#f6f6f6" stroke-width="0.09375" opacity="1.00" d=" M 345.51 581.67 C 346.91 581.55 348.31 581.44 349.72 581.34 C 349.86 584.67 349.87 588.00 349.89 591.34 C 348.44 591.35 346.99 591.36 345.55 591.38 C 345.53 588.13 345.52 584.90 345.51 581.67 Z" />
<path fill="#f6f6f6" stroke="#f6f6f6" stroke-width="0.09375" opacity="1.00" d=" M 355.26 581.32 C 356.66 581.43 358.05 581.55 359.45 581.69 C 359.43 584.91 359.42 588.14 359.39 591.38 C 357.95 591.36 356.52 591.35 355.09 591.35 C 355.10 588.00 355.11 584.66 355.26 581.32 Z" />
<path fill="#f6f6f6" stroke="#f6f6f6" stroke-width="0.09375" opacity="1.00" d=" M 365.57 581.58 C 367.09 581.56 368.62 581.57 370.15 581.59 C 370.13 584.84 370.12 588.09 370.11 591.35 C 368.61 591.35 367.12 591.35 365.64 591.35 C 365.59 588.09 365.58 584.84 365.57 581.58 Z" />
<path fill="#f6f6f6" stroke="#f6f6f6" stroke-width="0.09375" opacity="1.00" d=" M 374.44 581.48 C 375.83 581.47 377.23 581.46 378.63 581.46 C 378.74 584.71 378.75 587.96 378.78 591.21 C 377.36 591.31 375.94 591.42 374.53 591.54 C 374.39 588.18 374.38 584.83 374.44 581.48 Z" />
<path fill="#f6f6f6" stroke="#f6f6f6" stroke-width="0.09375" opacity="1.00" d=" M 385.23 581.31 C 386.61 581.43 388.00 581.55 389.40 581.68 C 389.37 584.90 389.37 588.13 389.35 591.36 C 387.93 591.36 386.51 591.37 385.09 591.38 C 385.10 588.02 385.11 584.66 385.23 581.31 Z" />
<path fill="#f6f6f6" stroke="#f6f6f6" stroke-width="0.09375" opacity="1.00" d=" M 394.09 591.36 C 394.50 587.51 391.97 579.43 398.50 581.56 C 398.50 584.83 398.49 588.10 398.45 591.37 C 396.99 591.36 395.54 591.36 394.09 591.36 Z" />
<path fill="#f6f6f6" stroke="#f6f6f6" stroke-width="0.09375" opacity="1.00" d=" M 404.57 581.58 C 406.10 581.56 407.63 581.56 409.17 581.58 C 409.16 584.83 409.15 588.08 409.14 591.34 C 407.63 591.35 406.12 591.36 404.62 591.38 C 404.59 588.11 404.58 584.84 404.57 581.58 Z" />
<path fill="#f6f6f6" stroke="#f6f6f6" stroke-width="0.09375" opacity="1.00" d=" M 426.39 581.50 C 427.80 581.48 429.21 581.46 430.62 581.46 C 430.71 584.74 430.72 588.03 430.76 591.32 C 429.25 591.31 427.75 591.30 426.26 591.29 C 426.29 588.02 426.31 584.76 426.39 581.50 Z" />
<path fill="#f6f6f6" stroke="#f6f6f6" stroke-width="0.09375" opacity="1.00" d=" M 439.35 581.48 C 440.77 581.47 442.19 581.47 443.62 581.48 C 443.70 584.75 443.71 588.01 443.75 591.28 C 442.24 591.30 440.74 591.32 439.24 591.34 C 439.26 588.05 439.27 584.76 439.35 581.48 Z" />
<path fill="#f6f6f6" stroke="#f6f6f6" stroke-width="0.09375" opacity="1.00" d=" M 449.82 581.56 C 451.29 581.51 452.77 581.47 454.25 581.42 C 454.38 584.73 454.39 588.03 454.36 591.34 C 452.83 591.35 451.32 591.35 449.80 591.36 C 449.78 588.09 449.78 584.82 449.82 581.56 Z" />
<path fill="#f6f6f6" stroke="#f6f6f6" stroke-width="0.09375" opacity="1.00" d=" M 459.35 581.47 C 460.75 581.46 462.16 581.47 463.57 581.48 C 463.65 584.83 463.64 588.18 463.48 591.54 C 462.06 591.43 460.64 591.32 459.23 591.22 C 459.27 587.97 459.28 584.72 459.35 581.47 Z" />
<path fill="#f6f6f6" stroke="#f6f6f6" stroke-width="0.09375" opacity="1.00" d=" M 469.80 581.64 C 471.23 581.54 472.66 581.44 474.10 581.36 C 474.28 584.68 474.30 588.02 474.27 591.36 C 472.78 591.35 471.30 591.35 469.82 591.36 C 469.80 588.11 469.80 584.88 469.80 581.64 Z" />
<path fill="#f6f6f6" stroke="#f6f6f6" stroke-width="0.09375" opacity="1.00" d=" M 479.44 581.49 C 480.83 581.47 482.23 581.46 483.63 581.46 C 483.68 584.75 483.69 588.04 483.74 591.33 C 482.25 591.30 480.77 591.28 479.30 591.25 C 479.35 587.99 479.37 584.74 479.44 581.49 Z" />
<path fill="#f6f6f6" stroke="#f6f6f6" stroke-width="0.09375" opacity="1.00" d=" M 489.84 581.60 C 491.36 581.56 492.88 581.55 494.41 581.55 C 494.39 584.83 494.38 588.11 494.36 591.39 C 492.86 591.36 491.36 591.33 489.87 591.31 C 489.85 588.06 489.84 584.83 489.84 581.60 Z" />
<path fill="#f6f6f6" stroke="#f6f6f6" stroke-width="0.09375" opacity="1.00" d=" M 498.71 591.35 C 499.03 587.48 496.64 579.61 503.17 581.53 C 503.17 584.80 503.16 588.07 503.15 591.35 C 501.66 591.35 500.18 591.35 498.71 591.35 Z" />
<path fill="#f6f6f6" stroke="#f6f6f6" stroke-width="0.09375" opacity="1.00" d=" M 509.42 581.50 C 510.82 581.47 512.21 581.46 513.62 581.45 C 513.69 584.73 513.70 588.02 513.74 591.32 C 512.25 591.30 510.77 591.29 509.29 591.27 C 509.34 588.01 509.35 584.75 509.42 581.50 Z" />
<path fill="#f6f6f6" stroke="#f6f6f6" stroke-width="0.09375" opacity="1.00" d=" M 518.43 581.48 C 519.84 581.46 521.25 581.45 522.67 581.46 C 522.76 584.71 522.77 587.97 522.80 591.24 C 521.37 591.33 519.94 591.43 518.52 591.53 C 518.36 588.18 518.35 584.83 518.43 581.48 Z" />
<path fill="#f6f6f6" stroke="#f6f6f6" stroke-width="0.09375" opacity="1.00" d=" M 116.69 581.52 C 118.16 581.51 119.64 581.52 121.12 581.53 C 121.15 584.80 121.15 588.08 121.14 591.36 C 119.65 591.35 118.16 591.35 116.67 591.35 C 116.65 588.07 116.65 584.79 116.69 581.52 Z" />
<path fill="#f6f6f6" stroke="#f6f6f6" stroke-width="0.09375" opacity="1.00" d=" M 166.82 581.50 C 168.27 581.50 169.72 581.50 171.18 581.52 C 171.21 584.80 171.22 588.08 171.19 591.37 C 169.72 591.37 168.26 591.37 166.80 591.38 C 166.78 588.08 166.78 584.79 166.82 581.50 Z" />
<path fill="#f6f6f6" stroke="#f6f6f6" stroke-width="0.09375" opacity="1.00" d=" M 269.72 581.50 C 271.20 581.50 272.69 581.51 274.19 581.54 C 274.22 584.80 274.22 588.08 274.20 591.35 C 272.70 591.35 271.20 591.36 269.70 591.36 C 269.69 588.07 269.69 584.78 269.72 581.50 Z" />
<path fill="#f6f6f6" stroke="#f6f6f6" stroke-width="0.09375" opacity="1.00" d=" M 334.90 581.51 C 336.33 581.50 337.77 581.50 339.21 581.51 C 339.26 584.79 339.26 588.08 339.24 591.37 C 337.78 591.36 336.33 591.36 334.89 591.36 C 334.87 588.07 334.88 584.79 334.90 581.51 Z" />
<path fill="#f6f6f6" stroke="#f6f6f6" stroke-width="0.09375" opacity="1.00" d=" M 415.72 581.50 C 417.19 581.50 418.66 581.50 420.14 581.52 C 420.16 584.80 420.17 588.08 420.15 591.36 C 418.66 591.36 417.18 591.36 415.70 591.37 C 415.69 588.08 415.69 584.79 415.72 581.50 Z" />
</g>
<g id="#191b2b16">
<path fill="#191b2b" stroke="#191b2b" stroke-width="0.09375" opacity="0.09" d=" M 148.15 596.44 C 165.71 594.63 183.41 596.67 201.00 595.78 C 310.55 595.80 420.13 595.92 529.67 595.62 C 529.79 597.13 529.94 598.63 530.11 600.15 C 527.17 599.04 524.19 597.88 521.03 597.78 C 405.02 597.85 289.01 597.79 173.00 597.82 C 165.73 597.87 158.39 597.24 151.22 598.75 C 150.19 597.99 149.17 597.19 148.15 596.44 Z" />
<path fill="#191b2b" stroke="#191b2b" stroke-width="0.09375" opacity="0.09" d=" M 67.57 622.56 C 62.42 623.78 62.31 618.35 67.28 618.52 C 67.35 619.53 67.50 621.55 67.57 622.56 Z" />
</g>
</svg>
