<?xml version="1.0" encoding="UTF-8" ?>
<!DOCTYPE svg PUBLIC "-//W3C//DTD SVG 1.1//EN" "http://www.w3.org/Graphics/SVG/1.1/DTD/svg11.dtd">
<svg width="200pt" height="200pt" viewBox="0 0 200 200" version="1.1" xmlns="http://www.w3.org/2000/svg">
<g id="#fde39bff">
<path fill="#fde39b" stroke="#fde39b" stroke-width="0.09375" opacity="1.00" d=" M 115.96 62.86 C 117.28 60.06 120.28 59.58 123.04 59.19 C 125.89 60.43 129.50 60.91 131.07 63.96 C 134.44 68.60 137.04 75.40 133.61 80.68 C 132.43 82.48 131.24 84.28 130.02 86.06 C 128.88 87.46 127.13 88.26 125.39 88.62 C 123.38 88.83 121.37 89.24 119.58 90.23 C 117.91 86.54 115.40 83.35 112.37 80.69 C 115.02 81.00 113.30 77.57 111.74 77.23 C 111.87 75.24 111.98 73.23 112.35 71.26 C 115.64 69.62 116.72 65.73 118.76 62.91 C 118.32 62.90 117.42 62.89 116.98 62.88 L 115.96 62.86 Z" />
<path fill="#fde39b" stroke="#fde39b" stroke-width="0.09375" opacity="1.00" d=" M 137.93 165.61 C 142.04 165.43 145.63 163.19 149.00 161.04 C 145.05 165.41 138.72 167.22 132.97 166.49 C 125.93 165.67 118.82 166.58 112.03 168.50 C 113.68 166.62 116.34 166.32 118.66 165.89 C 125.08 165.67 131.51 165.89 137.93 165.61 Z" />
</g>
<g id="#fdeaabff">
<path fill="#fdeaab" stroke="#fdeaab" stroke-width="0.09375" opacity="1.00" d=" M 61.36 65.36 C 65.02 59.82 73.69 61.04 77.64 65.45 C 78.21 67.22 78.75 69.00 79.35 70.77 C 79.91 74.41 80.57 78.15 82.69 81.26 C 79.20 84.31 76.33 88.29 71.91 90.07 C 71.18 90.02 69.72 89.91 68.99 89.86 C 66.35 88.99 63.99 87.46 61.52 86.22 C 61.44 85.86 61.27 85.15 61.18 84.80 C 61.01 83.74 60.39 83.07 59.32 82.77 C 56.79 81.58 56.53 78.46 56.75 76.02 C 56.38 71.87 59.67 68.84 61.36 65.36 M 72.51 65.24 C 72.13 66.66 74.55 67.64 75.55 66.79 C 75.94 65.35 73.51 64.35 72.51 65.24 Z" />
</g>
<g id="#fcfad2ff">
<path fill="#fcfad2" stroke="#fcfad2" stroke-width="0.09375" opacity="1.00" d=" M 114.44 63.19 C 114.82 63.11 115.58 62.94 115.96 62.86 L 116.98 62.88 C 114.96 65.37 113.09 68.08 112.35 71.26 C 111.98 73.23 111.87 75.24 111.74 77.23 C 111.45 78.51 111.66 79.67 112.37 80.69 C 115.40 83.35 117.91 86.54 119.58 90.23 C 119.79 90.63 120.20 91.44 120.40 91.85 L 120.83 92.75 C 121.77 94.95 122.80 97.12 123.96 99.22 C 125.21 101.54 125.90 104.13 126.31 106.72 C 126.88 112.98 127.65 119.23 127.68 125.52 C 127.81 129.42 127.47 133.39 128.40 137.23 C 129.07 138.54 129.80 139.83 130.54 141.11 C 129.47 140.74 128.40 140.38 127.32 140.07 C 127.12 140.40 126.73 141.07 126.53 141.41 C 125.57 143.09 124.70 145.00 122.72 145.67 C 121.12 146.52 119.50 147.33 117.84 148.04 C 115.25 149.05 112.59 149.91 109.90 150.60 C 102.55 151.66 94.98 151.57 87.68 150.12 C 84.90 149.12 82.05 148.34 79.16 147.73 C 78.22 147.47 77.28 147.27 76.32 147.13 C 75.82 147.03 74.81 146.84 74.31 146.74 L 74.08 145.97 C 73.80 144.92 73.11 144.25 72.01 143.96 C 71.82 143.63 71.42 142.98 71.22 142.65 C 70.78 141.32 70.09 140.10 69.19 139.02 L 68.77 138.43 C 67.82 133.35 67.06 128.20 67.31 123.02 C 67.37 115.45 69.67 108.17 70.73 100.73 C 71.03 99.16 71.69 97.69 72.41 96.27 C 73.37 94.36 74.23 92.40 74.99 90.40 C 74.22 90.32 72.68 90.15 71.91 90.07 C 76.33 88.29 79.20 84.31 82.69 81.26 C 83.91 77.38 81.57 73.74 79.35 70.77 C 78.75 69.00 78.21 67.22 77.64 65.45 C 80.43 66.81 82.46 69.74 83.98 72.34 C 84.46 73.76 84.51 77.04 86.59 76.65 C 86.68 76.34 86.85 75.73 86.94 75.42 L 87.08 74.35 C 93.11 73.34 100.35 70.50 105.72 74.33 C 106.26 76.97 108.97 75.54 108.21 73.36 C 108.88 69.34 111.53 65.92 114.44 63.19 M 81.87 91.89 C 82.39 92.35 83.43 93.28 83.95 93.74 C 85.81 92.76 87.34 90.13 84.83 88.87 C 82.74 88.35 82.50 90.49 81.87 91.89 M 107.67 88.83 C 107.66 90.13 106.62 93.20 108.94 92.99 C 110.55 93.69 110.69 91.40 111.44 90.56 C 110.19 89.96 108.94 89.37 107.67 88.83 M 93.97 99.05 C 94.69 100.20 95.59 101.22 96.69 102.04 C 97.47 101.00 98.25 99.97 99.02 98.92 C 97.35 98.45 95.63 98.67 93.97 99.05 M 90.25 113.13 C 87.38 115.05 86.93 118.81 86.67 121.97 C 87.77 122.31 88.88 122.61 90.01 122.87 C 89.82 123.38 89.43 124.41 89.24 124.92 C 87.01 124.31 84.83 123.52 82.64 122.80 C 84.47 124.44 86.67 125.79 87.88 128.01 C 89.08 130.07 90.20 132.27 92.29 133.58 L 92.50 134.26 C 94.76 134.17 97.02 133.93 99.23 133.43 C 103.66 132.35 106.63 127.80 107.77 123.60 C 110.12 122.47 112.58 121.34 114.10 119.12 C 111.08 120.30 108.15 121.83 104.86 122.08 C 105.37 120.41 106.28 118.92 107.37 117.58 C 105.91 114.57 102.48 114.12 99.54 113.61 L 99.22 113.10 C 96.24 112.91 93.21 112.59 90.25 113.13 Z" />
</g>
<g id="#cbaa74ff">
<path fill="#cbaa74" stroke="#cbaa74" stroke-width="0.09375" opacity="1.00" d=" M 116.98 62.88 C 117.42 62.89 118.32 62.90 118.76 62.91 C 116.72 65.73 115.64 69.62 112.35 71.26 C 113.09 68.08 114.96 65.37 116.98 62.88 Z" />
</g>
<g id="#cfaf78ff">
<path fill="#cfaf78" stroke="#cfaf78" stroke-width="0.09375" opacity="1.00" d=" M 72.51 65.24 C 73.51 64.35 75.94 65.35 75.55 66.79 C 74.55 67.64 72.13 66.66 72.51 65.24 Z" />
</g>
<g id="#b29666ff">
<path fill="#b29666" stroke="#b29666" stroke-width="0.09375" opacity="1.00" d=" M 82.69 81.26 C 80.57 78.15 79.91 74.41 79.35 70.77 C 81.57 73.74 83.91 77.38 82.69 81.26 Z" />
</g>
<g id="#989074ff">
<path fill="#989074" stroke="#989074" stroke-width="0.09375" opacity="1.00" d=" M 83.98 72.34 C 85.41 72.14 86.22 74.39 86.94 75.42 C 86.85 75.73 86.68 76.34 86.59 76.65 C 84.51 77.04 84.46 73.76 83.98 72.34 Z" />
</g>
<g id="#8d845fff">
<path fill="#8d845f" stroke="#8d845f" stroke-width="0.09375" opacity="1.00" d=" M 105.72 74.33 C 106.35 74.08 107.59 73.60 108.21 73.36 C 108.97 75.54 106.26 76.97 105.72 74.33 Z" />
</g>
<g id="#a27f4bff">
<path fill="#a27f4b" stroke="#a27f4b" stroke-width="0.09375" opacity="1.00" d=" M 111.74 77.23 C 113.30 77.57 115.02 81.00 112.37 80.69 C 111.66 79.67 111.45 78.51 111.74 77.23 Z" />
</g>
<g id="#796741c8">
<path fill="#796741" stroke="#796741" stroke-width="0.09375" opacity="0.78" d=" M 130.02 86.06 C 131.24 84.28 132.43 82.48 133.61 80.68 C 133.45 83.03 131.85 84.77 130.02 86.06 Z" />
</g>
<g id="#ac9d6cff">
<path fill="#ac9d6c" stroke="#ac9d6c" stroke-width="0.09375" opacity="1.00" d=" M 59.32 82.77 C 60.39 83.07 61.01 83.74 61.18 84.80 C 59.50 85.08 58.88 84.40 59.32 82.77 Z" />
</g>
<g id="#312b14ff">
<path fill="#312b14" stroke="#312b14" stroke-width="0.09375" opacity="1.00" d=" M 81.87 91.89 C 82.50 90.49 82.74 88.35 84.83 88.87 C 87.34 90.13 85.81 92.76 83.95 93.74 C 83.43 93.28 82.39 92.35 81.87 91.89 Z" />
</g>
<g id="#231c08ff">
<path fill="#231c08" stroke="#231c08" stroke-width="0.09375" opacity="1.00" d=" M 107.67 88.83 C 108.94 89.37 110.19 89.96 111.44 90.56 C 110.69 91.40 110.55 93.69 108.94 92.99 C 106.62 93.20 107.66 90.13 107.67 88.83 Z" />
</g>
<g id="#423b2980">
<path fill="#423b29" stroke="#423b29" stroke-width="0.09375" opacity="0.50" d=" M 119.58 90.23 C 121.37 89.24 123.38 88.83 125.39 88.62 L 126.17 88.92 C 124.19 89.74 121.57 89.75 120.40 91.85 C 120.20 91.44 119.79 90.63 119.58 90.23 Z" />
</g>
<g id="#645a44a2">
<path fill="#645a44" stroke="#645a44" stroke-width="0.09375" opacity="0.64" d=" M 68.99 89.86 C 69.72 89.91 71.18 90.02 71.91 90.07 C 72.68 90.15 74.22 90.32 74.99 90.40 C 74.23 92.40 73.37 94.36 72.41 96.27 C 72.58 94.57 72.79 92.87 72.96 91.17 C 71.63 90.75 70.30 90.33 68.99 89.86 Z" />
</g>
<g id="#aa9f73ff">
<path fill="#aa9f73" stroke="#aa9f73" stroke-width="0.09375" opacity="1.00" d=" M 120.83 92.75 C 123.36 93.94 123.53 96.80 123.96 99.22 C 122.80 97.12 121.77 94.95 120.83 92.75 Z" />
</g>
<g id="#bea183ff">
<path fill="#bea183" stroke="#bea183" stroke-width="0.09375" opacity="1.00" d=" M 93.97 99.05 C 95.63 98.67 97.35 98.45 99.02 98.92 C 98.25 99.97 97.47 101.00 96.69 102.04 C 95.59 101.22 94.69 100.20 93.97 99.05 Z" />
</g>
<g id="#6e694fb4">
<path fill="#6e694f" stroke="#6e694f" stroke-width="0.09375" opacity="0.71" d=" M 66.39 129.04 C 66.17 119.50 66.98 109.57 70.73 100.73 C 69.67 108.17 67.37 115.45 67.31 123.02 C 67.06 128.20 67.82 133.35 68.77 138.43 C 67.08 135.61 66.35 132.31 66.39 129.04 Z" />
</g>
<g id="#8e7d56e1">
<path fill="#8e7d56" stroke="#8e7d56" stroke-width="0.09375" opacity="0.88" d=" M 126.31 106.72 C 129.36 115.78 128.18 125.52 129.05 134.89 C 131.93 136.59 135.22 137.32 138.24 138.71 C 134.94 138.32 131.67 137.79 128.40 137.23 C 127.47 133.39 127.81 129.42 127.68 125.52 C 127.65 119.23 126.88 112.98 126.31 106.72 Z" />
</g>
<g id="#f5e465ff">
<path fill="#f5e465" stroke="#f5e465" stroke-width="0.09375" opacity="1.00" d=" M 90.25 113.13 C 93.21 112.59 96.24 112.91 99.22 113.10 L 99.54 113.61 C 99.99 114.34 100.44 115.06 100.90 115.78 C 100.74 117.69 100.57 119.61 100.38 121.52 C 99.34 121.67 98.31 121.81 97.28 121.95 C 95.78 120.23 94.28 118.51 92.77 116.80 C 92.60 119.59 91.85 122.51 92.79 125.23 C 94.68 127.31 97.37 128.40 99.76 129.79 C 97.02 130.24 94.28 130.68 91.53 131.06 C 90.61 128.16 91.09 125.10 91.28 122.14 C 90.97 122.32 90.33 122.69 90.01 122.87 C 88.88 122.61 87.77 122.31 86.67 121.97 C 86.93 118.81 87.38 115.05 90.25 113.13 Z" />
</g>
<g id="#b4a058ff">
<path fill="#b4a058" stroke="#b4a058" stroke-width="0.09375" opacity="1.00" d=" M 100.90 115.78 C 100.44 115.06 99.99 114.34 99.54 113.61 C 102.48 114.12 105.91 114.57 107.37 117.58 C 106.28 118.92 105.37 120.41 104.86 122.08 C 108.15 121.83 111.08 120.30 114.10 119.12 C 112.58 121.34 110.12 122.47 107.77 123.60 C 106.63 127.80 103.66 132.35 99.23 133.43 C 97.34 133.34 95.45 133.16 93.56 132.99 C 96.03 132.24 98.67 131.90 101.01 130.73 C 102.91 129.38 104.36 127.51 105.97 125.85 C 105.12 124.17 104.20 122.51 103.35 120.83 C 104.08 119.51 104.81 118.19 105.55 116.87 C 104.00 116.50 102.45 116.14 100.90 115.78 Z" />
</g>
<g id="#fdf57aff">
<path fill="#fdf57a" stroke="#fdf57a" stroke-width="0.09375" opacity="1.00" d=" M 100.38 121.52 C 100.57 119.61 100.74 117.69 100.90 115.78 C 102.45 116.14 104.00 116.50 105.55 116.87 C 104.81 118.19 104.08 119.51 103.35 120.83 C 104.20 122.51 105.12 124.17 105.97 125.85 C 104.36 127.51 102.91 129.38 101.01 130.73 C 98.67 131.90 96.03 132.24 93.56 132.99 C 95.45 133.16 97.34 133.34 99.23 133.43 C 97.02 133.93 94.76 134.17 92.50 134.26 L 92.29 133.58 C 92.03 132.74 91.77 131.90 91.53 131.06 C 94.28 130.68 97.02 130.24 99.76 129.79 C 97.37 128.40 94.68 127.31 92.79 125.23 C 91.85 122.51 92.60 119.59 92.77 116.80 C 94.28 118.51 95.78 120.23 97.28 121.95 C 98.31 121.81 99.34 121.67 100.38 121.52 Z" />
</g>
<g id="#a58e40ff">
<path fill="#a58e40" stroke="#a58e40" stroke-width="0.09375" opacity="1.00" d=" M 90.01 122.87 C 90.33 122.69 90.97 122.32 91.28 122.14 C 91.09 125.10 90.61 128.16 91.53 131.06 C 91.77 131.90 92.03 132.74 92.29 133.58 C 90.20 132.27 89.08 130.07 87.88 128.01 C 86.67 125.79 84.47 124.44 82.64 122.80 C 84.83 123.52 87.01 124.31 89.24 124.92 C 89.43 124.41 89.82 123.38 90.01 122.87 Z" />
</g>
<g id="#feeab2ff">
<path fill="#feeab2" stroke="#feeab2" stroke-width="0.09375" opacity="1.00" d=" M 128.40 137.23 C 131.67 137.79 134.94 138.32 138.24 138.71 C 141.21 139.00 144.12 141.81 147.03 140.02 C 146.88 140.45 146.57 141.29 146.41 141.71 C 148.22 144.72 150.73 147.49 151.25 151.09 C 151.40 153.82 150.66 156.50 150.05 159.13 C 149.79 159.61 149.26 160.57 149.00 161.04 C 145.63 163.19 142.04 165.43 137.93 165.61 C 131.51 165.89 125.08 165.67 118.66 165.89 C 121.39 164.22 124.98 164.82 128.04 163.94 C 132.03 164.14 135.79 162.73 139.72 162.50 C 142.79 161.66 145.31 159.50 146.56 156.57 C 148.36 153.12 145.95 149.35 143.75 146.71 C 143.64 146.61 143.41 146.42 143.30 146.32 C 142.34 145.71 141.36 145.15 140.35 144.65 C 137.20 143.15 133.81 142.28 130.54 141.11 C 129.80 139.83 129.07 138.54 128.40 137.23 Z" />
</g>
<g id="#5f593dc9">
<path fill="#5f593d" stroke="#5f593d" stroke-width="0.09375" opacity="0.79" d=" M 69.19 139.02 C 70.09 140.10 70.78 141.32 71.22 142.65 C 69.44 143.48 67.74 140.21 69.19 139.02 Z" />
</g>
<g id="#614729b0">
<path fill="#614729" stroke="#614729" stroke-width="0.09375" opacity="0.69" d=" M 127.32 140.07 C 128.40 140.38 129.47 140.74 130.54 141.11 C 133.81 142.28 137.20 143.15 140.35 144.65 C 135.59 144.34 131.05 142.81 126.53 141.41 C 126.73 141.07 127.12 140.40 127.32 140.07 Z" />
</g>
<g id="#6b5d39bf">
<path fill="#6b5d39" stroke="#6b5d39" stroke-width="0.09375" opacity="0.75" d=" M 151.25 151.09 C 150.73 147.49 148.22 144.72 146.41 141.71 C 150.01 143.41 151.72 147.40 152.01 151.17 C 152.01 151.84 152.01 153.17 152.01 153.84 C 152.13 155.81 151.12 157.56 150.05 159.13 C 150.66 156.50 151.40 153.82 151.25 151.09 Z" />
</g>
<g id="#454225c7">
<path fill="#454225" stroke="#454225" stroke-width="0.09375" opacity="0.78" d=" M 72.01 143.96 C 73.11 144.25 73.80 144.92 74.08 145.97 C 72.41 146.30 71.72 145.63 72.01 143.96 Z" />
</g>
<g id="#83714eda">
<path fill="#83714e" stroke="#83714e" stroke-width="0.09375" opacity="0.85" d=" M 117.84 148.04 C 119.50 147.33 121.12 146.52 122.72 145.67 C 120.68 147.31 120.13 149.64 120.57 152.16 C 119.67 150.78 118.75 149.41 117.84 148.04 Z" />
</g>
<g id="#69582dff">
<path fill="#69582d" stroke="#69582d" stroke-width="0.09375" opacity="1.00" d=" M 143.30 146.32 C 143.41 146.42 143.64 146.61 143.75 146.71 C 143.64 146.61 143.41 146.42 143.30 146.32 Z" />
</g>
<g id="#6c5c3bff">
<path fill="#6c5c3b" stroke="#6c5c3b" stroke-width="0.09375" opacity="1.00" d=" M 76.32 147.13 C 77.28 147.27 78.22 147.47 79.16 147.73 C 78.94 148.07 78.49 148.74 78.27 149.08 C 76.76 149.18 76.11 148.53 76.32 147.13 Z" />
</g>
<g id="#fddeb1ff">
<path fill="#fddeb1" stroke="#fddeb1" stroke-width="0.09375" opacity="1.00" d=" M 79.16 147.73 C 82.05 148.34 84.90 149.12 87.68 150.12 L 86.84 150.17 C 84.88 149.99 83.50 151.53 82.31 152.85 C 81.96 153.21 81.25 153.93 80.89 154.29 L 80.28 153.47 C 79.42 152.28 78.49 151.14 77.50 150.06 L 78.27 149.08 C 78.49 148.74 78.94 148.07 79.16 147.73 Z" />
</g>
<g id="#fee7b9ff">
<path fill="#fee7b9" stroke="#fee7b9" stroke-width="0.09375" opacity="1.00" d=" M 109.90 150.60 C 112.59 149.91 115.25 149.05 117.84 148.04 C 118.75 149.41 119.67 150.78 120.57 152.16 L 121.04 152.87 C 117.92 154.06 114.60 154.17 112.01 151.79 C 111.48 151.49 110.43 150.90 109.90 150.60 Z" />
</g>
<g id="#5e5037bd">
<path fill="#5e5037" stroke="#5e5037" stroke-width="0.09375" opacity="0.74" d=" M 80.28 153.47 C 78.50 154.60 75.36 151.12 77.50 150.06 C 78.49 151.14 79.42 152.28 80.28 153.47 Z" />
</g>
<g id="#a78961ff">
<path fill="#a78961" stroke="#a78961" stroke-width="0.09375" opacity="1.00" d=" M 82.31 152.85 C 83.50 151.53 84.88 149.99 86.84 150.17 C 86.96 151.94 83.96 153.93 82.31 152.85 Z" />
</g>
<g id="#776d50d8">
<path fill="#776d50" stroke="#776d50" stroke-width="0.09375" opacity="0.85" d=" M 87.68 150.12 C 94.98 151.57 102.55 151.66 109.90 150.60 C 110.43 150.90 111.48 151.49 112.01 151.79 C 103.97 151.65 95.22 153.62 87.68 150.12 Z" />
</g>
<g id="#f8ebb7ff">
<path fill="#f8ebb7" stroke="#f8ebb7" stroke-width="0.09375" opacity="1.00" d=" M 152.01 151.17 C 153.71 150.55 153.71 154.44 152.01 153.84 C 152.01 153.17 152.01 151.84 152.01 151.17 Z" />
</g>
</svg>
