<?xml version="1.0" encoding="UTF-8" ?>
<!DOCTYPE svg PUBLIC "-//W3C//DTD SVG 1.1//EN" "http://www.w3.org/Graphics/SVG/1.1/DTD/svg11.dtd">
<svg width="360pt" height="368pt" viewBox="0 0 360 368" version="1.1" xmlns="http://www.w3.org/2000/svg">
<g id="#0a0c5fff">
<path fill="#0a0c5f" stroke="#0a0c5f" stroke-width="0.09375" opacity="1.00" d=" M 171.51 14.65 C 173.62 14.59 175.74 14.57 177.85 14.63 C 182.88 21.27 188.09 27.77 193.57 34.04 C 193.79 28.28 193.71 22.52 193.55 16.76 C 192.40 16.08 191.26 15.39 190.13 14.70 C 192.95 14.59 195.77 14.57 198.59 14.64 C 197.51 15.31 196.44 15.96 195.37 16.61 C 195.20 24.01 195.32 31.42 195.36 38.82 C 187.12 34.57 183.33 25.08 176.72 18.82 C 176.51 24.54 176.58 30.28 176.75 36.00 C 177.95 36.62 179.15 37.24 180.35 37.87 C 177.39 37.90 174.43 37.92 171.47 37.92 C 172.54 37.37 173.62 36.82 174.71 36.29 C 175.17 29.79 175.23 23.26 174.79 16.76 C 173.84 15.83 172.74 15.12 171.51 14.65 Z" />
<path fill="#0a0c5f" stroke="#0a0c5f" stroke-width="0.09375" opacity="1.00" d=" M 185.53 41.90 C 187.66 61.21 188.44 80.66 190.38 99.98 C 191.06 100.19 192.40 100.60 193.08 100.81 C 193.31 96.77 193.17 92.66 194.24 88.72 C 194.42 92.76 193.87 96.78 193.56 100.80 C 195.82 101.06 198.07 101.33 200.33 101.59 C 200.89 97.61 201.47 93.60 202.75 89.78 C 202.40 93.86 201.54 97.87 201.00 101.92 C 203.22 102.31 205.44 102.72 207.66 103.14 C 208.62 99.29 209.50 95.41 210.92 91.70 C 210.47 95.71 209.29 99.59 208.11 103.43 C 210.30 103.94 212.59 105.81 214.81 105.12 C 216.30 101.65 217.21 97.95 219.02 94.61 C 218.11 98.50 216.65 102.22 215.30 105.96 C 219.71 107.65 223.96 109.73 228.02 112.15 C 229.35 109.94 230.67 107.71 232.19 105.63 C 231.20 108.04 230.01 110.37 228.84 112.71 C 234.75 116.06 239.84 120.56 244.97 124.96 C 250.51 120.22 255.59 114.93 261.45 110.58 C 257.12 116.64 251.81 121.92 247.19 127.76 C 252.73 132.21 254.89 139.73 260.56 143.78 C 260.29 144.04 259.76 144.57 259.50 144.83 C 261.75 148.72 263.52 152.86 265.04 157.09 C 269.14 155.66 273.16 153.98 277.40 152.99 C 273.53 154.99 269.35 156.25 265.29 157.79 C 265.92 159.89 266.57 161.99 267.24 164.09 C 271.59 163.08 275.84 161.66 280.28 161.07 C 276.12 162.73 271.72 163.66 267.39 164.77 C 267.87 166.98 268.35 169.18 268.82 171.40 C 273.29 170.63 277.73 169.67 282.26 169.27 C 277.97 170.71 273.47 171.27 269.02 171.92 C 269.22 174.18 269.43 176.44 269.66 178.70 C 273.98 178.39 278.30 177.94 282.61 177.47 C 282.63 177.68 282.67 178.12 282.69 178.34 C 278.36 179.32 271.45 177.02 269.28 181.90 C 247.83 180.65 226.43 178.33 204.98 177.20 C 198.56 179.29 192.62 182.90 186.73 186.23 C 227.83 186.65 268.94 186.29 310.04 186.41 C 316.41 185.70 322.86 185.12 329.22 186.41 C 309.61 188.55 289.84 189.19 270.26 191.39 C 270.00 191.88 269.46 192.86 269.20 193.35 C 273.86 193.78 278.57 193.88 283.20 194.66 C 278.61 194.82 274.02 194.43 269.44 194.23 C 269.29 196.41 269.14 198.59 269.00 200.78 C 273.44 201.55 277.94 202.08 282.23 203.51 C 277.61 203.13 273.07 202.10 268.52 201.29 C 268.14 203.56 267.71 205.81 267.25 208.07 C 271.67 209.10 276.15 210.00 280.33 211.81 C 275.78 211.10 271.38 209.68 266.93 208.53 C 266.28 210.66 265.63 212.79 265.00 214.93 C 269.19 216.47 273.52 217.71 277.43 219.90 C 273.10 218.82 268.98 217.06 264.82 215.48 C 263.88 217.47 262.97 219.48 262.06 221.48 C 266.10 223.71 270.54 225.21 274.32 227.91 C 270.04 226.33 266.02 224.18 261.88 222.30 C 257.98 230.62 252.64 238.17 246.45 244.93 C 245.29 243.06 241.32 241.20 243.97 239.03 C 255.64 226.02 262.89 209.13 264.06 191.68 C 255.48 192.35 246.89 192.88 238.33 193.75 C 237.07 204.05 231.90 213.15 226.21 221.61 C 224.89 219.88 223.52 218.19 222.14 216.50 C 227.66 210.27 230.78 202.38 232.66 194.36 C 223.48 194.56 214.32 195.47 205.20 196.46 C 199.31 193.22 193.37 190.05 187.16 187.46 C 206.66 208.06 227.23 227.65 247.10 247.90 C 251.50 252.72 257.51 256.01 260.97 261.69 C 254.83 257.48 249.55 252.18 243.84 247.44 C 240.92 250.29 237.75 252.86 234.43 255.23 C 236.46 258.26 238.52 261.27 240.33 264.44 C 237.82 261.83 235.85 258.78 233.88 255.77 C 229.95 258.43 225.85 260.84 221.60 262.96 C 223.35 266.33 225.07 269.74 226.17 273.40 C 224.19 270.14 222.67 266.63 221.06 263.19 C 219.02 264.10 216.97 265.00 214.92 265.87 C 216.38 270.09 218.13 274.21 219.32 278.51 C 217.08 274.62 215.81 270.29 214.30 266.09 C 212.19 266.76 210.09 267.44 207.98 268.11 C 209.02 272.44 210.39 276.70 210.88 281.14 C 209.34 276.97 208.44 272.62 207.29 268.34 C 205.08 268.86 202.86 269.38 200.65 269.90 C 201.47 274.30 202.44 278.69 202.72 283.17 C 201.40 278.91 200.83 274.47 200.10 270.08 C 197.87 270.34 195.64 270.62 193.42 270.89 C 193.75 275.31 194.40 279.71 194.27 284.15 C 193.29 279.94 193.24 275.60 192.86 271.32 C 192.14 271.29 190.71 271.24 189.99 271.21 C 191.39 249.46 193.56 227.76 194.86 206.01 C 192.90 199.51 189.19 193.52 185.85 187.59 C 185.34 228.07 185.81 268.56 185.61 309.04 C 186.20 316.10 187.03 323.23 185.58 330.26 C 183.71 310.70 182.60 291.07 180.87 271.50 C 176.04 271.57 179.11 280.35 177.40 284.18 C 177.20 279.78 177.50 275.39 177.71 271.00 C 175.45 270.84 173.19 270.68 170.93 270.54 C 170.45 274.80 169.86 279.08 168.47 283.14 C 168.92 278.80 169.78 274.51 170.42 270.19 C 168.21 269.80 166.01 269.40 163.81 269.01 C 162.75 273.13 161.83 277.31 160.17 281.24 C 160.83 277.00 162.11 272.89 163.23 268.76 C 161.00 268.19 158.78 267.59 156.56 266.99 C 155.31 270.86 154.12 274.79 152.11 278.36 C 153.09 274.36 154.63 270.54 156.04 266.68 C 151.54 265.07 147.19 263.12 142.99 260.85 C 141.41 263.79 139.78 266.72 137.77 269.39 C 139.12 266.29 140.72 263.31 142.34 260.35 C 140.49 259.24 138.65 258.11 136.80 256.99 C 135.17 259.19 133.55 261.41 131.66 263.40 C 132.96 261.03 134.74 258.91 135.76 256.39 C 132.38 253.73 128.84 251.26 125.80 248.18 C 127.28 246.92 128.76 245.64 130.22 244.37 C 143.57 257.32 161.88 264.60 180.35 265.70 C 179.93 257.19 179.01 248.72 178.51 240.22 C 167.97 238.71 157.93 234.55 149.52 228.01 C 151.03 226.69 152.54 225.36 154.05 224.03 C 160.95 229.44 169.20 233.05 177.90 234.23 C 177.26 224.82 176.71 215.40 175.58 206.04 C 178.69 200.10 181.97 194.22 184.47 187.99 C 161.65 209.21 140.85 232.71 117.64 253.44 C 119.24 250.71 121.28 248.27 123.41 245.94 C 120.59 243.05 117.94 240.00 115.64 236.68 C 115.03 236.68 113.83 236.68 113.22 236.69 C 113.54 236.30 114.17 235.53 114.48 235.15 C 111.69 231.42 109.40 227.35 107.27 223.21 C 103.83 224.94 100.39 226.71 96.73 227.91 C 100.02 225.81 103.61 224.22 107.10 222.48 C 106.16 220.43 105.22 218.37 104.27 216.33 C 100.80 217.66 97.34 219.06 93.70 219.88 C 96.97 218.14 100.50 216.95 104.01 215.80 C 103.37 213.59 102.72 211.38 102.09 209.17 C 98.34 210.15 94.60 211.23 90.77 211.82 C 94.36 210.36 98.14 209.45 101.87 208.42 C 101.28 206.24 100.71 204.06 100.18 201.87 C 96.41 202.47 92.66 203.23 88.86 203.51 C 92.50 202.38 96.27 201.73 100.05 201.25 C 99.78 198.96 99.51 196.68 99.24 194.40 C 95.73 194.57 92.22 194.83 88.70 194.68 C 92.34 194.15 95.99 193.81 99.64 193.39 C 99.21 191.52 97.91 190.55 96.02 190.70 C 85.61 190.21 75.26 188.78 64.82 188.79 C 63.32 188.91 61.87 188.47 60.65 187.60 C 54.18 187.29 47.69 187.19 41.24 186.53 C 60.38 184.35 79.73 183.53 98.94 181.75 C 98.91 181.05 98.86 179.65 98.83 178.94 C 95.15 178.77 91.44 178.58 87.85 177.72 C 91.61 177.64 95.36 178.09 99.11 178.42 C 99.37 176.17 99.64 173.92 99.93 171.67 C 96.24 171.04 92.54 170.40 88.96 169.32 C 92.72 169.59 96.43 170.32 100.16 170.87 C 100.56 168.57 101.00 166.28 101.45 163.99 C 97.84 163.29 94.25 162.42 90.81 161.10 C 94.53 161.58 98.17 162.53 101.80 163.45 C 102.43 161.26 103.07 159.07 103.70 156.87 C 100.30 155.73 96.89 154.60 93.67 153.00 C 97.21 153.75 100.61 155.01 103.99 156.28 C 104.86 154.15 105.74 152.03 106.62 149.90 C 103.88 148.68 101.13 147.47 98.59 145.88 C 101.49 146.75 104.26 148.00 107.02 149.25 C 108.85 144.82 111.27 140.68 114.20 136.90 C 111.92 135.25 109.62 133.63 107.56 131.70 C 110.04 133.02 112.37 134.59 114.72 136.13 C 117.25 132.46 120.08 129.02 123.18 125.83 C 124.42 127.38 125.69 128.91 126.98 130.42 C 113.50 143.82 105.67 162.44 104.55 181.35 C 113.08 180.65 121.62 180.04 130.15 179.31 C 131.57 168.34 136.38 158.07 143.39 149.58 C 144.74 151.09 146.09 152.60 147.45 154.10 C 141.20 160.93 137.51 169.75 135.97 178.81 C 145.95 178.29 155.90 177.15 165.86 176.60 C 172.17 179.10 177.89 182.96 184.26 185.39 C 162.45 162.39 138.92 140.95 117.54 117.58 C 121.66 119.73 125.81 126.31 129.64 120.09 C 127.82 118.05 126.02 115.99 124.57 113.66 C 126.58 115.45 128.35 117.47 130.11 119.50 C 131.90 118.21 133.69 116.93 135.49 115.67 C 133.53 112.69 131.52 109.75 129.76 106.64 C 132.20 109.19 134.14 112.14 136.05 115.08 C 140.09 112.42 144.31 110.03 148.69 107.96 C 147.12 104.55 145.40 101.19 144.09 97.67 C 146.27 100.71 147.76 104.16 149.15 107.62 C 151.32 106.78 153.51 105.95 155.71 105.16 C 154.41 101.66 153.03 98.18 152.13 94.56 C 153.92 97.59 154.84 101.01 156.15 104.24 C 158.36 104.89 160.66 103.38 162.87 103.04 C 161.95 99.25 160.85 95.50 160.15 91.66 C 161.72 95.24 162.63 99.06 163.63 102.83 C 165.84 102.29 168.06 101.76 170.28 101.25 C 169.61 97.44 168.83 93.64 168.50 89.78 C 169.75 93.49 170.38 97.37 170.82 101.25 C 173.11 100.98 175.40 100.72 177.70 100.48 C 177.42 96.61 177.20 92.73 177.40 88.85 C 177.98 92.81 178.16 96.80 178.54 100.77 C 181.87 100.76 181.16 97.29 181.47 95.00 C 182.34 77.23 184.76 59.67 185.53 41.90 M 183.45 74.03 C 181.23 105.03 178.46 136.00 176.40 167.00 C 178.59 173.16 181.73 179.17 185.38 184.63 C 185.83 144.25 185.63 103.84 185.49 63.45 C 182.77 66.17 183.97 70.54 183.45 74.03 M 129.90 127.25 C 136.19 132.99 142.83 138.32 149.20 143.97 C 157.63 137.15 167.88 132.86 178.62 131.45 C 179.05 122.95 179.91 114.48 180.44 105.98 C 161.75 106.82 143.64 114.61 129.90 127.25 M 190.83 106.12 C 191.36 114.71 192.09 123.29 192.79 131.88 C 203.30 133.59 213.09 138.45 221.16 145.35 C 219.59 146.59 218.06 147.87 216.55 149.19 C 210.04 143.31 201.88 139.41 193.27 137.81 C 193.81 147.49 194.96 157.14 195.40 166.80 C 192.92 172.85 189.22 178.34 186.92 184.48 C 202.67 170.09 217.22 154.39 232.50 139.50 C 237.17 134.50 242.61 130.17 246.63 124.59 C 244.32 125.74 242.20 127.21 240.22 128.86 C 227.23 115.61 209.25 107.67 190.83 106.12 M 243.42 132.07 C 237.88 138.46 232.50 145.00 226.86 151.30 C 233.00 159.48 237.18 169.02 238.66 179.17 C 247.12 179.67 255.55 180.62 264.02 180.98 C 263.25 162.93 255.67 145.31 243.42 132.07 M 153.78 147.81 C 161.21 153.94 168.20 160.62 175.91 166.40 C 176.48 156.72 177.41 147.08 177.99 137.40 C 169.14 138.54 160.73 142.24 153.78 147.81 M 205.66 176.50 C 214.69 177.35 223.74 177.88 232.77 178.71 C 231.43 170.45 228.05 162.62 223.06 155.91 C 217.25 162.76 211.19 169.42 205.66 176.50 M 65.59 188.26 C 89.18 189.37 112.69 191.73 136.24 193.52 C 137.56 202.46 141.53 210.99 147.55 217.73 C 153.61 210.70 159.47 203.46 165.69 196.59 C 171.66 192.85 178.47 190.62 184.32 186.66 C 143.95 186.34 103.54 186.21 63.17 186.71 C 63.90 187.34 64.71 187.86 65.59 188.26 M 104.61 191.55 C 105.97 210.17 114.02 228.16 127.08 241.51 C 132.70 235.13 138.21 228.66 143.68 222.16 C 136.54 214.10 132.00 204.00 130.25 193.40 C 121.70 192.91 113.17 192.09 104.61 191.55 M 195.50 206.26 C 194.77 215.47 194.07 224.68 193.28 233.88 C 201.43 232.32 208.98 228.58 215.55 223.57 C 209.13 217.50 202.25 211.94 195.50 206.26 M 192.87 239.78 C 192.26 248.34 191.41 256.88 190.97 265.45 C 208.92 263.97 226.56 256.36 239.35 243.57 C 232.85 238.18 226.50 232.61 220.05 227.15 C 212.28 233.68 202.85 238.01 192.87 239.78 Z" />
<path fill="#0a0c5f" stroke="#0a0c5f" stroke-width="0.09375" opacity="1.00" d=" M 77.59 92.70 C 82.04 94.92 84.09 99.74 87.69 102.94 C 87.84 99.71 87.75 96.42 86.65 93.33 C 87.54 93.34 88.43 93.35 89.32 93.36 C 88.28 97.51 88.57 101.81 88.30 106.05 C 84.92 102.99 82.32 99.22 79.30 95.83 C 79.25 98.98 79.12 102.15 79.60 105.29 C 79.12 105.33 78.16 105.40 77.69 105.44 C 78.72 101.24 78.60 96.89 77.59 92.70 Z" />
<path fill="#0a0c5f" stroke="#0a0c5f" stroke-width="0.09375" opacity="1.00" d=" M 91.33 93.51 C 92.30 93.44 93.28 93.36 94.25 93.29 C 93.68 96.28 94.32 99.22 95.44 102.00 C 96.67 99.04 97.85 96.05 99.14 93.11 C 100.19 96.21 101.61 99.16 102.83 102.20 C 103.73 99.34 104.47 96.43 104.76 93.45 C 105.24 93.39 106.20 93.28 106.68 93.22 C 105.11 97.38 103.88 101.65 102.36 105.83 C 101.10 102.76 99.87 99.67 98.51 96.65 C 97.43 99.79 96.06 102.82 94.46 105.72 C 93.36 101.67 92.54 97.53 91.33 93.51 Z" />
<path fill="#0a0c5f" stroke="#0a0c5f" stroke-width="0.09375" opacity="1.00" d=" M 266.54 92.75 C 271.41 94.49 273.42 99.68 277.02 103.00 C 277.23 99.78 277.12 96.54 276.54 93.36 C 277.02 93.32 277.98 93.26 278.46 93.22 C 277.74 97.46 277.71 101.77 277.72 106.06 C 274.47 102.98 271.79 99.37 268.85 96.00 C 268.53 99.16 268.61 102.35 269.35 105.45 C 268.84 105.40 267.83 105.31 267.33 105.27 C 267.79 101.08 269.07 96.54 266.54 92.75 Z" />
<path fill="#0a0c5f" stroke="#0a0c5f" stroke-width="0.09375" opacity="1.00" d=" M 280.34 93.40 C 283.13 93.46 285.92 93.47 288.72 93.46 C 288.89 93.95 289.22 94.94 289.39 95.44 C 287.51 94.94 285.63 94.50 283.73 94.11 C 283.66 95.26 283.52 97.55 283.46 98.69 C 284.99 98.62 286.52 98.56 288.06 98.51 C 288.09 99.01 288.14 100.01 288.16 100.51 C 286.66 100.11 285.16 99.73 283.67 99.36 C 283.63 101.11 283.61 102.87 283.60 104.62 C 286.00 104.68 288.25 103.95 290.16 102.48 C 289.76 103.42 289.37 104.36 288.99 105.31 C 286.52 105.30 284.05 105.30 281.58 105.31 C 281.84 101.91 281.88 98.50 281.92 95.09 C 281.39 94.52 280.86 93.96 280.34 93.40 Z" />
<path fill="#0a0c5f" stroke="#0a0c5f" stroke-width="0.09375" opacity="1.00" d=" M 243.55 117.37 C 244.77 115.19 246.42 113.29 248.37 111.74 C 247.08 113.87 245.44 115.76 243.55 117.37 Z" />
<path fill="#0a0c5f" stroke="#0a0c5f" stroke-width="0.09375" opacity="1.00" d=" M 253.63 129.41 C 255.53 127.16 257.75 125.20 260.25 123.66 C 258.40 125.95 256.17 127.92 253.63 129.41 Z" />
<path fill="#0a0c5f" stroke="#0a0c5f" stroke-width="0.09375" opacity="1.00" d=" M 267.55 148.16 C 269.63 146.74 271.92 145.66 274.33 144.97 C 272.30 146.45 269.99 147.52 267.55 148.16 Z" />
<path fill="#0a0c5f" stroke="#0a0c5f" stroke-width="0.09375" opacity="1.00" d=" M 7.10 174.94 C 10.17 175.09 13.25 175.08 16.33 175.11 C 15.21 175.61 14.09 176.11 12.97 176.61 C 13.98 181.98 15.13 187.33 16.43 192.65 C 19.70 186.75 21.12 180.03 24.57 174.23 C 26.96 180.41 28.88 186.76 31.34 192.91 C 33.32 187.64 34.71 182.18 36.03 176.72 C 34.87 176.20 33.72 175.67 32.56 175.14 C 35.06 175.06 37.55 174.99 40.04 174.88 C 34.48 181.54 35.03 192.04 30.90 198.70 C 27.26 193.89 26.27 186.47 23.52 180.71 C 20.44 186.74 18.38 193.21 15.76 199.45 C 10.92 192.09 13.53 181.29 7.10 174.94 Z" />
<path fill="#0a0c5f" stroke="#0a0c5f" stroke-width="0.09375" opacity="1.00" d=" M 332.48 174.98 C 338.66 174.91 344.84 174.85 351.02 174.89 C 350.87 176.87 350.39 178.79 349.83 180.69 C 349.54 179.73 348.95 177.79 348.65 176.83 C 345.67 176.58 342.68 176.48 339.69 176.53 C 339.61 179.51 339.55 182.48 339.49 185.45 C 341.68 185.49 343.88 185.56 346.07 185.68 C 346.87 184.58 347.68 183.49 348.50 182.40 C 348.52 185.14 348.49 187.88 348.42 190.62 C 347.72 189.51 347.03 188.39 346.35 187.27 C 344.10 187.21 341.84 187.15 339.60 187.09 C 339.54 190.33 339.60 193.58 339.71 196.82 C 342.79 196.80 345.87 196.73 348.95 196.53 C 349.76 195.12 350.55 193.70 351.37 192.29 C 351.36 194.32 351.25 196.34 351.13 198.37 C 345.29 198.53 339.46 198.19 333.63 198.44 C 339.06 193.03 335.24 184.00 336.18 177.05 C 334.94 176.36 333.70 175.68 332.48 174.98 Z" />
<path fill="#0a0c5f" stroke="#0a0c5f" stroke-width="0.09375" opacity="1.00" d=" M 252.61 242.56 C 254.80 243.83 256.74 245.49 258.36 247.44 C 256.16 246.18 254.23 244.51 252.61 242.56 Z" />
<path fill="#0a0c5f" stroke="#0a0c5f" stroke-width="0.09375" opacity="1.00" d=" M 110.81 249.31 C 112.64 247.04 114.85 245.08 117.36 243.60 C 115.49 245.83 113.30 247.78 110.81 249.31 Z" />
<path fill="#0a0c5f" stroke="#0a0c5f" stroke-width="0.09375" opacity="1.00" d=" M 122.72 261.21 C 124.25 258.73 126.19 256.53 128.41 254.65 C 126.93 257.16 124.98 259.37 122.72 261.21 Z" />
<path fill="#0a0c5f" stroke="#0a0c5f" stroke-width="0.09375" opacity="1.00" d=" M 78.65 271.05 C 78.99 267.44 83.24 268.23 85.79 268.05 C 85.88 268.90 85.97 269.76 86.07 270.61 C 84.23 267.61 79.65 268.57 80.07 272.31 C 82.60 273.22 88.04 272.75 87.01 276.85 C 86.07 280.23 82.04 279.77 79.31 279.88 C 79.14 279.21 78.80 277.89 78.63 277.22 C 80.63 279.51 85.72 280.17 85.66 276.02 C 83.82 273.75 77.97 275.31 78.65 271.05 Z" />
<path fill="#0a0c5f" stroke="#0a0c5f" stroke-width="0.09375" opacity="1.00" d=" M 88.27 267.94 C 88.79 267.98 89.84 268.06 90.36 268.10 C 90.69 270.97 91.40 273.78 92.36 276.50 C 93.91 273.99 93.96 269.89 96.35 268.27 C 97.43 271.10 98.45 273.95 99.75 276.68 C 100.60 273.87 101.33 271.02 101.73 268.11 C 102.19 268.07 103.11 268.00 103.56 267.97 C 101.88 272.01 100.72 276.23 99.40 280.40 C 98.10 277.33 96.60 274.35 95.44 271.23 C 94.25 274.35 92.92 277.42 91.41 280.41 C 90.25 276.28 89.38 272.08 88.27 267.94 Z" />
<path fill="#0a0c5f" stroke="#0a0c5f" stroke-width="0.09375" opacity="1.00" d=" M 262.53 271.23 C 262.86 267.53 267.10 268.17 269.75 268.07 C 269.89 268.74 270.18 270.08 270.32 270.75 C 268.29 267.85 263.57 268.19 263.99 272.36 C 266.52 273.20 271.86 272.70 270.96 276.83 C 269.95 280.19 266.04 279.82 263.27 279.88 C 263.09 279.23 262.74 277.95 262.57 277.31 C 264.62 279.51 269.64 280.17 269.57 276.03 C 267.75 273.73 262.20 275.29 262.53 271.23 Z" />
<path fill="#0a0c5f" stroke="#0a0c5f" stroke-width="0.09375" opacity="1.00" d=" M 272.58 268.02 C 275.55 268.39 279.07 267.39 281.54 269.51 C 279.38 269.37 277.25 269.05 275.12 268.73 C 275.06 270.34 275.00 271.96 274.93 273.58 C 276.54 273.22 278.16 272.85 279.78 272.50 C 279.71 273.04 279.56 274.10 279.49 274.64 C 278.02 274.46 276.55 274.28 275.08 274.12 C 275.10 275.87 275.12 277.62 275.16 279.37 C 277.25 279.00 279.33 278.46 281.19 277.41 C 281.04 277.98 280.73 279.13 280.58 279.70 C 277.92 279.74 275.25 279.79 272.60 279.87 C 273.57 275.97 273.53 271.91 272.58 268.02 Z" />
<path fill="#0a0c5f" stroke="#0a0c5f" stroke-width="0.09375" opacity="1.00" d=" M 177.12 345.88 C 174.97 337.16 186.14 334.78 192.25 337.83 C 192.06 339.60 191.87 341.39 191.68 343.18 C 190.93 337.19 181.32 336.09 179.84 342.05 C 179.35 350.59 193.32 343.83 193.75 352.15 C 193.83 360.55 183.38 362.20 177.11 359.75 C 177.33 357.69 177.58 355.64 177.68 353.58 C 177.82 361.33 191.57 361.12 190.74 353.32 C 188.88 347.19 178.86 352.39 177.12 345.88 Z" />
</g>
</svg>
