<svg width="500px" height="105px" viewBox="0 0 500 105" version="1.1" xmlns="http://www.w3.org/2000/svg">
			<g id="#601a1d6d">
			<path id="Path" fill="#601a1d" stroke="#601a1d" stroke-width="1px" opacity="0.43" d=" M 388.28 1.20 C 389.25 0.46 392.06 1.11 390.93 2.67 C 389.79 4.32 385.50 2.62 388.28 1.20 Z" />
			<path id="Path" fill="#601a1d" stroke="#601a1d" stroke-width="1px" opacity="0.43" d=" M 370.43 2.15 C 375.40 1.87 381.06 0.89 384.97 4.77 C 387.74 4.17 390.62 3.77 393.43 4.40 C 395.12 6.37 396.85 8.31 398.63 10.21 C 398.01 11.12 397.38 12.03 396.77 12.93 C 398.67 12.56 400.59 12.21 402.52 11.97 C 401.35 13.17 400.10 14.27 398.73 15.24 L 398.40 15.23 C 396.57 14.73 394.75 14.18 392.94 13.65 C 393.79 13.32 394.64 12.99 395.50 12.66 C 394.85 10.84 394.20 9.02 393.57 7.20 C 391.41 7.62 389.26 8.06 387.11 8.52 C 387.59 11.52 387.54 14.70 385.22 16.98 C 384.62 16.85 383.43 16.59 382.83 16.46 C 383.25 15.86 384.09 14.65 384.51 14.04 C 382.66 14.25 380.82 14.45 378.98 14.68 C 378.69 14.24 378.13 13.37 377.84 12.94 C 382.77 13.73 385.86 9.86 387.33 5.64 C 385.13 6.97 382.66 7.65 380.10 7.65 C 380.14 6.94 380.18 6.22 380.23 5.50 C 378.55 5.35 376.87 5.21 375.22 4.86 C 373.58 4.02 372.00 3.09 370.43 2.15 Z" />
			<path id="Path" fill="#601a1d" stroke="#601a1d" stroke-width="1px" opacity="0.43" d=" M 361.24 26.14 C 361.69 25.47 362.58 24.12 363.02 23.45 C 363.99 24.72 364.79 26.10 365.45 27.56 C 365.92 27.15 366.39 26.75 366.87 26.35 C 367.61 26.73 368.36 27.12 369.11 27.50 C 367.41 28.51 365.81 29.65 364.22 30.82 C 363.24 29.25 362.23 27.70 361.24 26.14 Z" />
			<path id="Path" fill="#601a1d" stroke="#601a1d" stroke-width="1px" opacity="0.43" d=" M 380.12 26.22 C 380.68 26.29 381.81 26.42 382.37 26.49 C 382.64 27.65 382.91 28.80 383.18 29.96 C 382.71 30.37 382.25 30.79 381.80 31.21 C 383.20 32.32 384.38 33.68 385.18 35.29 C 386.22 34.70 387.26 34.11 388.33 33.58 C 390.62 34.63 390.67 37.45 391.43 39.51 C 389.72 38.62 388.03 37.66 386.37 36.69 C 387.19 38.95 387.59 41.35 387.07 43.74 C 385.23 44.36 381.04 43.56 381.48 46.55 C 380.13 46.88 378.80 47.25 377.46 47.61 C 376.82 46.48 376.19 45.35 375.55 44.23 C 375.60 44.89 375.69 46.22 375.74 46.89 C 371.96 47.62 368.21 48.52 364.42 49.19 C 363.78 47.71 363.12 46.24 362.58 44.73 C 362.48 44.39 362.26 43.72 362.16 43.38 C 361.20 43.18 360.24 42.98 359.29 42.78 C 358.49 41.72 357.70 40.67 356.91 39.62 C 358.27 39.93 359.64 40.25 361.01 40.57 C 360.20 39.15 359.41 37.71 358.65 36.27 C 362.21 36.46 364.11 39.61 366.14 42.09 C 366.19 41.04 366.25 39.98 366.32 38.93 C 367.46 39.54 368.61 40.17 369.76 40.80 C 370.20 39.69 370.65 38.58 371.10 37.47 C 372.77 38.42 374.41 39.42 375.99 40.51 C 376.91 38.44 377.81 36.34 379.12 34.48 C 381.51 34.62 381.80 37.49 383.04 39.05 C 382.66 35.44 380.38 31.87 376.41 31.74 C 376.65 33.49 376.90 35.25 377.16 37.01 C 376.27 36.58 375.38 36.14 374.51 35.69 C 372.93 36.43 371.33 37.14 369.74 37.83 C 370.99 35.51 372.83 33.64 374.90 32.07 C 373.42 31.66 371.95 31.25 370.48 30.84 C 370.89 29.61 371.31 28.38 371.75 27.15 C 373.40 28.18 374.86 29.48 376.19 30.89 C 376.95 30.77 377.72 30.65 378.50 30.52 C 379.03 29.08 379.57 27.65 380.12 26.22 M 367.89 45.20 C 370.47 44.31 372.23 42.15 374.12 40.30 C 371.56 41.24 369.05 42.58 367.89 45.20 Z" />
			<path id="Path" fill="#601a1d" stroke="#601a1d" stroke-width="1px" opacity="0.43" d=" M 400.36 26.57 C 403.43 23.61 403.92 29.96 406.89 29.31 C 409.86 29.00 412.83 28.76 415.82 28.87 C 415.54 32.38 417.35 35.32 419.38 38.00 C 420.58 36.81 421.79 35.65 423.03 34.50 C 423.42 35.87 423.83 37.24 424.23 38.61 C 427.40 38.62 430.58 38.71 433.74 38.91 C 433.43 38.00 433.12 37.09 432.82 36.17 C 434.18 35.75 435.55 35.32 436.92 34.90 C 437.12 36.63 437.35 38.37 437.59 40.11 C 429.56 42.05 421.08 39.85 413.09 42.31 C 412.38 42.23 410.95 42.07 410.24 41.99 C 410.08 41.27 409.76 39.85 409.60 39.13 C 409.72 36.08 411.14 33.36 412.62 30.77 C 411.59 31.24 410.57 31.70 409.56 32.16 C 407.62 31.61 405.64 31.20 403.66 30.90 C 403.05 33.07 402.22 35.17 401.15 37.14 C 401.89 37.02 403.38 36.77 404.13 36.65 C 402.91 39.21 401.50 41.66 400.04 44.08 C 398.91 45.20 397.31 45.55 395.86 46.05 C 395.57 43.66 398.16 42.96 399.69 41.78 C 397.73 40.83 397.41 38.63 396.81 36.78 C 397.73 37.01 398.65 37.25 399.57 37.49 C 399.89 34.24 401.51 31.37 402.81 28.45 C 402.20 27.98 400.98 27.04 400.36 26.57 Z" />
			<path id="Path" fill="#601a1d" stroke="#601a1d" stroke-width="1px" opacity="0.43" d=" M 343.35 37.35 C 345.48 38.34 341.78 41.30 340.58 39.42 C 339.63 37.88 342.30 37.37 343.35 37.35 Z" />
			<path  id="Path" fill="#601a1d" stroke="#601a1d" stroke-width="1px" opacity="0.43" d=" M 0.00 42.52 C 1.31 43.66 2.66 44.73 4.00 45.83 C 4.23 43.47 6.08 43.03 8.13 43.40 C 7.48 44.52 6.86 45.65 6.23 46.78 C 7.42 46.67 8.62 46.56 9.81 46.45 C 9.24 49.17 8.70 51.89 8.27 54.64 C 7.69 54.81 6.54 55.16 5.97 55.34 C 3.91 51.95 3.07 47.79 0.00 45.09 L 0.00 42.52 Z" />
			<path  id="Path" fill="#601a1d" stroke="#601a1d" stroke-width="1px" opacity="0.43" d=" M 341.88 52.02 C 343.21 50.33 344.57 48.67 345.94 47.00 C 346.25 48.49 346.57 49.98 346.90 51.46 C 345.24 51.78 343.56 51.96 341.88 52.02 Z" />
			<path  id="Path" fill="#601a1d" stroke="#601a1d" stroke-width="0.09375" opacity="0.43" d=" M 243.51 73.14 C 246.98 72.67 250.72 72.76 253.65 70.52 C 253.98 71.05 254.66 72.10 254.99 72.62 C 255.06 72.71 255.18 72.90 255.24 72.99 C 257.14 73.23 259.03 73.66 260.70 74.65 C 255.37 75.98 250.09 77.14 244.66 77.70 C 244.23 77.70 243.38 77.70 242.95 77.70 C 243.11 76.17 243.31 74.66 243.51 73.14 Z" />
			<path  id="Path" fill="#601a1d" stroke="#601a1d" stroke-width="0.09375" opacity="0.43" d=" M 177.89 89.20 C 179.80 89.38 181.72 89.55 183.63 89.78 C 184.00 89.91 184.74 90.16 185.11 90.28 C 184.28 91.28 183.45 92.28 182.64 93.29 C 180.53 92.91 178.48 92.26 176.56 91.30 L 177.01 90.62 C 177.23 90.26 177.67 89.55 177.89 89.20 Z" />
			</g>
			<g id="#e23134ff">
			<path  id="Path" fill="#e23134" stroke="#e23134" stroke-width="0.09375" opacity="1.00" d=" M 391.81 2.54 C 392.72 0.38 395.75 0.97 397.31 2.08 C 395.48 2.28 393.64 2.43 391.81 2.54 Z" />
			<path  id="Path" fill="#e23134" stroke="#e23134" stroke-width="0.09375" opacity="1.00" d=" M 434.85 8.52 C 436.71 7.86 439.39 5.84 440.88 8.20 C 438.88 8.50 436.86 8.56 434.85 8.52 Z" />
			<path  id="Path" fill="#e23134" stroke="#e23134" stroke-width="0.09375" opacity="1.00" d=" M 407.04 23.38 C 407.82 24.14 408.61 24.90 409.41 25.66 C 410.43 25.62 411.45 25.60 412.48 25.59 C 411.66 26.96 410.03 26.56 408.70 26.67 C 408.25 25.96 407.36 24.54 406.91 23.82 C 406.49 24.56 405.66 26.02 405.25 26.75 C 404.81 26.25 404.37 25.76 403.93 25.27 C 404.97 24.64 406.01 24.01 407.04 23.38 Z" />
			<path  id="Path" fill="#e23134" stroke="#e23134" stroke-width="0.09375" opacity="1.00" d=" M 390.91 30.65 C 393.83 30.45 396.75 30.30 399.67 30.16 C 399.59 32.37 398.54 34.29 397.34 36.08 C 397.47 34.08 397.31 31.97 395.06 31.28 C 394.10 32.23 393.17 33.17 392.22 34.12 C 391.77 32.96 391.35 31.80 390.91 30.65 Z" />
			<path  id="Path" fill="#e23134" stroke="#e23134" stroke-width="0.09375" opacity="1.00" d=" M 480.43 32.15 C 485.35 30.76 480.19 37.36 480.43 32.15 Z" />
			<path  id="Path" fill="#e23134" stroke="#e23134" stroke-width="0.09375" opacity="1.00" d=" M 415.69 43.73 C 417.28 42.99 420.47 41.13 421.18 43.77 C 419.34 43.82 417.51 43.82 415.69 43.73 Z" />
			<path fill="#e23134" stroke="#e23134" stroke-width="0.09375" opacity="1.00" d=" M 68.61 47.70 C 78.89 45.42 90.11 45.00 100.02 49.01 C 102.64 49.82 102.83 52.57 102.63 54.87 C 114.33 52.10 126.95 51.21 138.34 55.72 C 140.85 56.46 141.49 59.24 143.14 60.95 C 150.94 61.25 158.99 61.73 166.28 64.77 C 168.97 68.84 163.33 70.47 160.37 71.28 C 153.52 72.60 147.13 76.28 140.00 75.86 C 134.63 75.58 130.39 79.84 125.03 79.84 C 111.46 81.26 95.91 82.58 84.02 74.71 C 85.32 73.03 87.04 71.72 89.15 71.27 C 99.20 68.48 109.84 67.08 120.21 68.74 C 122.28 69.36 124.02 68.05 125.58 66.91 C 117.48 64.79 108.23 66.00 100.79 61.24 C 100.17 59.60 99.98 57.84 99.65 56.13 C 87.75 58.78 74.58 59.47 63.13 54.67 C 62.33 51.12 65.32 48.26 68.61 47.70 Z" />
			</g>
			<g id="#cc141ceb">
			<path  id="Path" fill="#cc141c" stroke="#cc141c" stroke-width="0.09375" opacity="0.92" d=" M 357.32 3.32 C 361.48 3.07 365.63 2.62 369.77 2.09 C 368.63 3.38 367.49 4.68 366.36 5.98 C 366.94 6.23 368.12 6.74 368.71 6.99 C 369.54 5.72 370.45 4.48 371.56 3.44 C 371.51 4.22 371.41 5.78 371.35 6.56 C 370.84 7.63 370.28 8.67 369.76 9.72 C 367.48 9.78 365.20 9.85 362.93 9.90 C 363.16 8.82 363.41 7.74 363.65 6.66 C 362.09 6.72 360.53 6.76 358.97 6.82 C 359.12 5.85 359.28 4.88 359.45 3.91 C 358.40 4.72 357.34 5.52 356.29 6.32 L 356.30 5.50 C 356.56 4.95 357.06 3.87 357.32 3.32 Z" />
			<path  id="Path" fill="#cc141c" stroke="#cc141c" stroke-width="0.09375" opacity="0.92" d=" M 427.61 10.69 C 431.17 11.46 434.66 10.41 438.20 10.07 C 435.86 12.89 430.55 12.12 427.61 10.69 Z" />
			<path  id="Path" fill="#cc141c" stroke="#cc141c" stroke-width="0.09375" opacity="0.92" d=" M 438.45 28.90 C 449.21 29.66 460.15 29.32 471.00 28.37 C 470.64 29.04 470.30 29.71 469.95 30.38 C 466.23 28.56 461.97 29.99 458.30 31.15 C 454.96 30.35 449.16 30.24 449.41 35.09 C 448.91 33.70 448.39 32.32 447.89 30.94 C 445.46 30.53 443.02 30.26 440.56 30.23 C 440.41 30.86 440.10 32.12 439.95 32.75 C 440.92 32.60 441.88 32.46 442.86 32.32 C 441.84 34.41 440.03 35.85 438.14 37.10 C 439.28 34.97 438.86 32.48 435.94 33.28 C 437.03 31.97 437.87 30.49 438.45 28.90 Z" />
			<path  id="Path" fill="#cc141c" stroke="#cc141c" stroke-width="0.09375" opacity="0.92" d=" M 480.37 28.20 C 484.16 26.00 481.43 31.75 480.37 28.20 Z" />
			<path  id="Path" fill="#cc141c" stroke="#cc141c" stroke-width="0.09375" opacity="0.92" d=" M 381.80 31.21 C 382.25 30.79 382.71 30.37 383.18 29.96 C 384.85 31.22 386.57 32.44 388.33 33.58 C 387.26 34.11 386.22 34.70 385.18 35.29 C 384.38 33.68 383.20 32.32 381.80 31.21 Z" />
			<path  id="Path" fill="#cc141c" stroke="#cc141c" stroke-width="0.09375" opacity="0.92" d=" M 484.49 33.34 C 485.75 32.90 487.42 33.22 488.61 33.79 C 489.36 36.32 484.13 35.37 484.49 33.34 Z" />
			<path  id="Path" fill="#cc141c" stroke="#cc141c" stroke-width="0.09375" opacity="0.92" d=" M 447.07 36.95 C 449.01 37.40 451.48 37.30 452.39 39.45 C 450.51 38.83 448.56 38.23 446.60 38.89 C 446.72 38.40 446.95 37.43 447.07 36.95 Z" />
			<path  id="Path" fill="#cc141c" stroke="#cc141c" stroke-width="0.09375" opacity="0.92" d=" M 395.12 39.12 C 396.89 38.77 397.48 41.84 395.90 42.43 C 393.99 42.90 393.42 39.69 395.12 39.12 Z" />
			<path  id="Path" fill="#cc141c" stroke="#cc141c" stroke-width="0.09375" opacity="0.92" d=" M 404.22 39.13 C 405.27 38.44 407.71 39.27 406.68 40.77 C 405.59 42.80 401.72 40.44 404.22 39.13 Z" />
			<path  id="Path" fill="#cc141c" stroke="#cc141c" stroke-width="0.09375" opacity="0.92" d=" M 367.89 45.20 C 369.05 42.58 371.56 41.24 374.12 40.30 C 372.23 42.15 370.47 44.31 367.89 45.20 Z" />
			<path  id="Path" fill="#cc141c" stroke="#cc141c" stroke-width="0.09375" opacity="0.92" d=" M 343.16 53.40 C 345.60 55.01 348.49 54.81 351.26 54.48 C 348.16 56.87 343.98 56.80 340.29 56.22 C 339.89 56.62 339.11 57.43 338.71 57.83 C 338.96 55.35 341.12 54.26 343.16 53.40 Z" />
			<path  id="Path" fill="#cc141c" stroke="#cc141c" stroke-width="0.09375" opacity="0.92" d=" M 331.73 56.62 C 333.45 55.66 335.21 54.75 337.05 54.02 C 335.49 55.81 333.64 57.30 331.83 58.80 C 330.96 58.61 330.11 58.42 329.25 58.23 C 328.91 58.66 328.23 59.51 327.89 59.94 C 327.15 58.56 326.43 57.17 325.74 55.77 C 326.34 56.28 327.52 57.30 328.11 57.81 C 328.73 57.07 329.35 56.33 329.98 55.60 C 330.42 55.85 331.29 56.36 331.73 56.62 Z" />
			<path  id="Path" fill="#cc141c" stroke="#cc141c" stroke-width="0.09375" opacity="0.92" d=" M 335.13 57.03 C 335.93 56.26 338.79 56.82 337.54 58.22 C 336.35 59.64 332.26 58.61 335.13 57.03 Z" />
			</g>
			<g id="#88161c9c">
			<path  id="Path" fill="#88161c" stroke="#88161c" stroke-width="0.09375" opacity="0.61" d=" M 452.63 2.55 C 458.24 3.46 464.33 1.17 469.56 3.72 C 457.07 5.67 444.41 4.67 431.81 5.55 C 432.52 6.44 433.24 7.33 433.97 8.23 C 433.73 8.75 433.25 9.79 433.02 10.31 C 432.27 9.28 431.54 8.24 430.81 7.19 C 429.32 8.11 427.78 9.46 425.98 8.46 C 426.69 7.49 427.43 6.54 428.16 5.58 C 422.94 5.91 417.68 6.43 412.48 5.68 C 411.19 6.97 409.87 8.24 408.56 9.51 C 412.08 8.17 415.43 9.50 418.25 11.71 C 419.13 11.24 420.02 10.78 420.91 10.32 C 422.10 10.63 423.29 10.95 424.48 11.28 C 416.95 15.53 407.26 14.60 398.73 15.24 C 400.10 14.27 401.35 13.17 402.52 11.97 C 400.59 12.21 398.67 12.56 396.77 12.93 C 397.38 12.03 398.01 11.12 398.63 10.21 C 396.85 8.31 395.12 6.37 393.43 4.40 C 398.74 6.28 404.13 4.19 409.54 4.29 C 423.92 4.02 438.31 3.80 452.63 2.55 Z" />
			<path  id="Path" fill="#88161c" stroke="#88161c" stroke-width="0.09375" opacity="0.61" d=" M 449.38 6.01 C 450.60 6.81 451.52 7.92 452.29 9.16 C 453.91 9.32 455.55 9.46 457.18 9.64 C 454.85 11.05 452.08 10.79 449.48 10.75 C 449.43 9.17 449.39 7.59 449.38 6.01 Z" />
			<path  id="Path" fill="#88161c" stroke="#88161c" stroke-width="0.09375" opacity="0.61" d=" M 260.66 7.59 C 263.49 6.89 266.42 6.78 269.32 6.76 C 269.23 7.54 269.04 9.09 268.95 9.86 C 266.15 10.26 263.35 10.64 260.55 10.96 C 260.58 9.84 260.62 8.71 260.66 7.59 Z" />
			<path fill="#88161c" stroke="#88161c" stroke-width="0.09375" opacity="0.61" d=" M 443.43 9.50 C 445.27 10.52 441.70 11.44 440.88 11.12 C 437.23 10.66 442.02 8.67 443.43 9.50 Z" />
			<path fill="#88161c" stroke="#88161c" stroke-width="0.09375" opacity="0.61" d=" M 214.84 10.75 C 215.66 10.70 217.29 10.59 218.11 10.54 C 218.37 11.21 218.90 12.55 219.17 13.22 C 217.43 13.35 215.69 13.42 213.94 13.40 C 214.17 12.74 214.62 11.41 214.84 10.75 Z" />
			<path fill="#88161c" stroke="#88161c" stroke-width="0.09375" opacity="0.61" d=" M 413.35 26.84 C 413.91 22.54 417.48 21.94 417.05 26.93 C 415.81 26.90 414.58 26.87 413.35 26.84 Z" />
			<path fill="#88161c" stroke="#88161c" stroke-width="0.09375" opacity="0.61" d=" M 500.00 33.81 C 497.63 35.11 497.57 31.56 500.00 32.20 L 500.00 33.81 Z" />
			<path fill="#88161c" stroke="#88161c" stroke-width="0.09375" opacity="0.61" d=" M 461.40 34.16 C 466.79 32.50 461.59 38.86 461.40 34.16 Z" />
			<path fill="#88161c" stroke="#88161c" stroke-width="0.09375" opacity="0.61" d=" M 6.41 35.07 C 7.09 34.93 8.45 34.66 9.13 34.52 C 8.77 36.59 8.36 38.65 7.92 40.70 C 9.02 40.66 10.12 40.63 11.22 40.60 C 10.23 41.51 9.23 42.42 8.22 43.31 C 6.58 40.87 4.98 38.01 6.41 35.07 Z" />
			<path fill="#88161c" stroke="#88161c" stroke-width="0.09375" opacity="0.61" d=" M 351.75 45.69 C 354.39 45.42 357.04 45.15 359.71 45.11 C 359.95 45.38 360.45 45.91 360.70 46.17 C 361.32 45.69 361.95 45.21 362.58 44.73 C 363.12 46.24 363.78 47.71 364.42 49.19 C 359.43 49.98 354.36 50.04 349.39 50.98 C 350.03 49.16 350.75 47.35 351.75 45.69 Z" />
			<path fill="#88161c" stroke="#88161c" stroke-width="0.09375" opacity="0.61" d=" M 317.88 55.25 C 318.84 53.95 319.72 52.60 320.62 51.25 C 322.89 53.62 325.91 54.96 329.25 54.34 C 326.83 54.67 324.40 54.89 321.98 55.04 C 323.40 56.25 324.74 57.56 325.94 59.00 C 323.17 57.94 320.50 56.64 317.88 55.25 Z" />
			<path fill="#88161c" stroke="#88161c" stroke-width="0.09375" opacity="0.61" d=" M 357.56 53.21 C 362.15 50.80 359.86 56.70 357.56 53.21 Z" />
			<path fill="#88161c" stroke="#88161c" stroke-width="0.09375" opacity="0.61" d=" M 307.87 57.06 C 309.10 55.99 310.32 54.90 311.56 53.84 C 311.90 54.35 312.57 55.36 312.91 55.86 C 312.61 56.92 312.32 57.97 312.03 59.03 C 310.38 58.85 308.74 58.70 307.10 58.52 C 306.60 59.17 306.10 59.81 305.60 60.46 C 308.11 60.20 310.65 60.22 313.10 60.89 C 309.11 63.30 304.02 63.08 300.46 60.01 C 301.70 59.80 302.95 59.61 304.20 59.42 C 304.10 58.61 304.00 57.79 303.91 56.98 C 305.23 57.01 306.55 57.04 307.87 57.06 Z" />
			<path fill="#88161c" stroke="#88161c" stroke-width="0.09375" opacity="0.61" d=" M 257.06 69.91 C 260.72 70.47 263.51 68.08 265.87 65.62 C 265.71 66.90 265.56 68.18 265.41 69.45 C 267.22 68.39 269.05 67.34 271.06 66.69 C 271.41 67.56 271.76 68.44 272.12 69.32 C 268.12 68.48 264.40 70.77 260.64 71.74 C 262.22 71.91 263.80 72.05 265.39 72.21 C 265.33 72.75 265.21 73.84 265.15 74.38 C 261.94 73.85 259.13 72.20 256.11 71.13 C 256.35 70.83 256.82 70.22 257.06 69.91 Z" />
			<path fill="#88161c" stroke="#88161c" stroke-width="0.09375" opacity="0.61" d=" M 14.87 69.83 C 17.90 69.86 20.37 71.59 22.54 73.52 C 23.52 72.45 24.50 71.38 25.49 70.31 C 25.41 71.69 25.32 73.07 25.23 74.44 C 26.08 75.36 26.92 76.27 27.76 77.19 C 26.72 77.28 25.67 77.38 24.63 77.50 C 23.95 76.84 23.27 76.18 22.60 75.51 C 21.94 75.83 21.28 76.15 20.62 76.47 C 19.37 74.75 17.99 73.14 16.55 71.59 C 15.61 71.84 14.67 72.10 13.73 72.35 C 14.02 71.72 14.59 70.46 14.87 69.83 Z" />
			<path fill="#88161c" stroke="#88161c" stroke-width="0.09375" opacity="0.61" d=" M 44.70 81.95 C 45.80 81.75 46.89 81.50 47.98 81.23 C 47.24 82.82 46.58 84.45 46.09 86.14 C 45.87 86.56 45.43 87.40 45.21 87.82 C 46.67 87.80 48.14 87.78 49.61 87.76 C 49.64 88.53 49.71 90.09 49.74 90.86 C 49.05 90.53 47.66 89.86 46.96 89.52 C 48.34 91.17 49.69 92.84 51.02 94.54 C 51.18 94.36 51.49 94.01 51.65 93.84 C 52.67 94.62 53.69 95.42 54.74 96.16 C 50.07 96.97 46.18 99.96 41.61 101.12 C 42.39 99.77 43.19 98.44 44.00 97.11 C 41.30 96.49 38.61 95.84 35.94 95.10 C 35.22 95.59 34.49 96.09 33.76 96.59 C 33.01 96.21 32.27 95.82 31.52 95.44 C 31.33 92.34 31.26 89.23 31.21 86.13 C 32.45 85.45 33.68 84.77 34.91 84.08 C 34.38 85.80 33.83 87.51 33.30 89.23 C 36.10 89.32 38.40 87.91 40.13 85.81 C 39.97 87.36 39.82 88.92 39.67 90.47 C 42.11 88.19 45.42 85.78 44.70 81.95 M 41.02 90.74 C 42.45 92.15 44.34 92.78 46.26 93.18 C 46.15 90.70 42.99 89.73 41.02 90.74 Z" />
			<path fill="#88161c" stroke="#88161c" stroke-width="0.09375" opacity="0.61" d=" M 208.94 86.83 C 210.72 86.57 212.52 86.35 214.31 86.14 C 214.20 89.62 210.66 87.97 208.94 86.83 Z" />
			</g>
			<g id="#b1141ccc">
			<path fill="#b1141c" stroke="#b1141c" stroke-width="0.09375" opacity="0.80" d=" M 324.44 3.15 C 325.63 2.36 327.46 2.34 328.67 3.13 C 328.40 4.54 324.72 4.54 324.44 3.15 Z" />
			<path fill="#b1141c" stroke="#b1141c" stroke-width="0.09375" opacity="0.80" d=" M 335.93 5.39 C 339.58 4.92 343.24 4.42 346.92 4.25 C 349.44 5.83 352.08 7.43 353.59 10.10 C 350.47 9.84 347.55 8.68 344.75 7.33 C 343.59 10.92 340.31 12.26 339.48 7.74 C 338.97 8.13 338.46 8.53 337.96 8.93 C 337.27 7.75 336.60 6.57 335.93 5.39 Z" />
			<path fill="#b1141c" stroke="#b1141c" stroke-width="0.09375" opacity="0.80" d=" M 387.11 8.52 C 389.26 8.06 391.41 7.62 393.57 7.20 C 394.20 9.02 394.85 10.84 395.50 12.66 C 394.64 12.99 393.79 13.32 392.94 13.65 C 394.75 14.18 396.57 14.73 398.40 15.23 C 393.97 15.56 389.57 16.12 385.22 16.98 C 387.54 14.70 387.59 11.52 387.11 8.52 Z" />
			<path fill="#b1141c" stroke="#b1141c" stroke-width="0.09375" opacity="0.80" d=" M 442.18 7.27 C 442.71 7.81 442.71 7.81 442.18 7.27 Z" />
			<path fill="#b1141c" stroke="#b1141c" stroke-width="0.09375" opacity="0.80" d=" M 425.25 11.15 C 429.96 10.07 424.08 15.71 425.25 11.15 Z" />
			<path fill="#b1141c" stroke="#b1141c" stroke-width="0.09375" opacity="0.80" d=" M 383.02 20.39 C 384.24 20.50 385.47 20.63 386.70 20.75 C 387.08 21.64 387.45 22.54 387.83 23.43 C 386.16 22.53 384.55 21.51 383.02 20.39 Z" />
			<path fill="#b1141c" stroke="#b1141c" stroke-width="0.09375" opacity="0.80" d=" M 398.52 22.65 C 400.22 20.78 405.13 20.27 406.28 22.75 C 403.69 22.77 401.10 22.75 398.52 22.65 Z" />
			<path fill="#b1141c" stroke="#b1141c" stroke-width="0.09375" opacity="0.80" d=" M 427.87 25.50 C 429.55 25.04 431.25 24.60 432.95 24.16 C 432.41 24.98 431.87 25.80 431.35 26.62 C 430.18 26.25 429.02 25.88 427.87 25.50 Z" />
			<path fill="#b1141c" stroke="#b1141c" stroke-width="0.09375" opacity="0.80" d=" M 436.41 24.22 C 439.65 23.78 436.61 27.33 434.85 26.30 C 432.88 25.62 435.39 24.06 436.41 24.22 Z" />
			<path fill="#b1141c" stroke="#b1141c" stroke-width="0.09375" opacity="0.80" d=" M 496.19 29.20 C 501.27 27.30 495.50 33.34 496.19 29.20 Z" />
			<path fill="#b1141c" stroke="#b1141c" stroke-width="0.09375" opacity="0.80" d=" M 391.41 35.23 C 392.75 34.70 394.47 35.56 395.50 36.46 C 394.97 38.13 391.06 36.99 391.41 35.23 Z" />
			<path fill="#b1141c" stroke="#b1141c" stroke-width="0.09375" opacity="0.80" d=" M 443.61 35.00 C 443.87 35.00 444.39 35.01 444.65 35.01 C 444.67 36.63 444.71 38.24 444.75 39.85 C 444.38 39.61 443.63 39.13 443.26 38.88 C 443.39 37.59 443.51 36.29 443.61 35.00 Z" />
			<path fill="#b1141c" stroke="#b1141c" stroke-width="0.09375" opacity="0.80" d=" M 455.91 37.23 C 458.41 37.35 460.91 37.56 463.40 37.90 C 461.30 38.99 457.26 39.56 455.91 37.23 Z" />
			<path fill="#b1141c" stroke="#b1141c" stroke-width="0.09375" opacity="0.80" d=" M 318.09 58.59 C 319.56 58.28 321.31 58.76 322.69 59.33 C 322.12 60.97 318.00 60.60 318.09 58.59 Z" />
			<path fill="#b1141c" stroke="#b1141c" stroke-width="0.09375" opacity="0.80" d=" M 275.49 70.22 C 279.27 67.99 276.52 73.77 275.49 70.22 Z" />
			<path fill="#b1141c" stroke="#b1141c" stroke-width="0.09375" opacity="0.80" d=" M 42.92 103.20 C 49.04 103.50 53.58 97.75 59.81 99.48 C 57.94 101.29 55.43 101.73 52.93 101.46 C 52.84 101.99 52.64 103.04 52.55 103.57 C 52.03 103.07 51.52 102.57 51.01 102.08 C 50.19 103.05 49.37 104.02 48.55 105.00 L 45.43 105.00 C 44.80 104.55 43.55 103.65 42.92 103.20 Z" />
			</g>
			<g id="#e01f27ff">
			<path  id="Path" fill="#e01f27" stroke="#e01f27" stroke-width="1px" opacity="1.00" d=" M 346.92 4.25 C 349.87 4.08 352.83 3.86 355.79 3.72 C 355.92 4.17 356.17 5.05 356.30 5.50 L 356.29 6.32 C 357.34 5.52 358.40 4.72 359.45 3.91 C 359.28 4.88 359.12 5.85 358.97 6.82 C 360.53 6.76 362.09 6.72 363.65 6.66 C 363.41 7.74 363.16 8.82 362.93 9.90 C 365.20 9.85 367.48 9.78 369.76 9.72 C 370.28 8.67 370.84 7.63 371.35 6.56 C 372.83 6.51 374.02 5.62 375.22 4.86 C 376.87 5.21 378.55 5.35 380.23 5.50 C 380.18 6.22 380.14 6.94 380.10 7.65 C 382.66 7.65 385.13 6.97 387.33 5.64 C 385.86 9.86 382.77 13.73 377.84 12.94 C 378.13 13.37 378.69 14.24 378.98 14.68 C 380.82 14.45 382.66 14.25 384.51 14.04 C 384.09 14.65 383.25 15.86 382.83 16.46 C 380.37 16.29 378.15 17.51 375.87 18.21 C 375.72 16.61 375.56 15.00 375.39 13.40 C 374.87 14.93 374.41 16.48 373.98 18.03 C 370.42 18.54 366.81 18.50 363.28 19.22 C 364.52 17.53 365.41 15.62 365.32 13.47 C 363.90 15.27 362.95 17.36 362.12 19.48 C 358.39 19.54 354.66 19.94 351.09 21.05 C 350.04 20.38 349.01 19.71 347.97 19.04 C 346.01 22.12 342.50 23.41 339.10 21.94 C 338.39 22.59 337.68 23.25 336.98 23.92 C 332.91 23.52 328.80 23.43 324.72 23.76 C 326.76 28.49 332.27 25.79 335.97 25.30 C 337.30 26.94 338.67 28.56 340.08 30.15 C 339.46 28.36 338.80 26.58 338.13 24.81 C 339.89 25.18 341.65 25.55 343.42 25.89 C 344.08 27.51 344.73 29.13 345.39 30.76 C 347.85 30.49 350.68 30.74 352.47 28.65 C 350.15 29.06 347.85 29.60 345.53 29.99 C 347.34 27.94 349.96 27.00 352.28 25.69 C 351.47 25.20 349.85 24.22 349.04 23.74 C 353.24 23.15 357.38 20.60 361.67 21.79 C 360.32 22.41 358.97 22.99 357.61 23.56 C 357.15 24.75 356.69 25.95 356.24 27.15 C 355.25 25.76 354.80 23.41 352.60 23.82 C 352.81 25.59 353.19 27.33 353.56 29.07 C 356.07 27.97 358.65 27.03 361.24 26.14 C 362.23 27.70 363.24 29.25 364.22 30.82 C 365.81 29.65 367.41 28.51 369.11 27.50 C 369.98 27.35 370.86 27.22 371.75 27.15 C 371.31 28.38 370.89 29.61 370.48 30.84 C 371.95 31.25 373.42 31.66 374.90 32.07 C 372.83 33.64 370.99 35.51 369.74 37.83 C 371.33 37.14 372.93 36.43 374.51 35.69 C 375.38 36.14 376.27 36.58 377.16 37.01 C 376.90 35.25 376.65 33.49 376.41 31.74 C 380.38 31.87 382.66 35.44 383.04 39.05 C 381.80 37.49 381.51 34.62 379.12 34.48 C 377.81 36.34 376.91 38.44 375.99 40.51 C 374.41 39.42 372.77 38.42 371.10 37.47 C 370.65 38.58 370.20 39.69 369.76 40.80 C 368.61 40.17 367.46 39.54 366.32 38.93 C 366.25 39.98 366.19 41.04 366.14 42.09 C 364.11 39.61 362.21 36.46 358.65 36.27 C 359.41 37.71 360.20 39.15 361.01 40.57 C 359.64 40.25 358.27 39.93 356.91 39.62 C 357.70 40.67 358.49 41.72 359.29 42.78 C 360.24 42.98 361.20 43.18 362.16 43.38 C 362.26 43.72 362.48 44.39 362.58 44.73 C 361.95 45.21 361.32 45.69 360.70 46.17 C 360.45 45.91 359.95 45.38 359.71 45.11 C 358.28 43.14 355.60 43.56 353.49 43.15 C 352.90 43.99 352.32 44.84 351.75 45.69 C 350.75 47.35 350.03 49.16 349.39 50.98 C 348.77 51.10 347.52 51.34 346.90 51.46 C 346.57 49.98 346.25 48.49 345.94 47.00 C 344.57 48.67 343.21 50.33 341.88 52.02 C 340.54 51.50 339.23 50.91 337.93 50.32 C 335.43 52.39 332.60 54.24 329.25 54.34 C 325.91 54.96 322.89 53.62 320.62 51.25 C 319.72 52.60 318.84 53.95 317.88 55.25 C 317.06 56.25 316.19 57.20 315.33 58.15 C 314.50 57.41 313.70 56.65 312.91 55.86 C 312.57 55.36 311.90 54.35 311.56 53.84 C 310.32 54.90 309.10 55.99 307.87 57.06 C 306.55 57.04 305.23 57.01 303.91 56.98 C 304.00 57.79 304.10 58.61 304.20 59.42 C 302.95 59.61 301.70 59.80 300.46 60.01 C 299.04 60.25 297.63 60.50 296.22 60.77 C 297.97 61.47 299.75 62.11 301.51 62.80 C 298.99 63.55 296.42 64.05 293.84 64.51 C 293.14 63.78 292.43 63.05 291.72 62.33 C 289.77 62.47 287.82 62.55 285.88 62.58 C 285.24 61.58 284.60 60.58 283.96 59.58 C 284.07 61.00 284.19 62.42 284.32 63.84 C 286.75 63.69 289.19 63.53 291.63 63.53 C 289.37 65.94 284.83 66.84 282.54 63.99 C 282.55 64.56 282.57 65.71 282.58 66.29 C 281.48 66.05 280.40 65.81 279.31 65.57 C 278.75 66.15 278.20 66.74 277.65 67.33 C 277.22 67.00 276.35 66.35 275.92 66.03 C 274.30 66.25 272.68 66.44 271.06 66.69 C 269.05 67.34 267.22 68.39 265.41 69.45 C 265.56 68.18 265.71 66.90 265.87 65.62 C 263.51 68.08 260.72 70.47 257.06 69.91 C 256.82 70.22 256.35 70.83 256.11 71.13 C 255.83 71.50 255.27 72.25 254.99 72.62 C 254.66 72.10 253.98 71.05 253.65 70.52 C 250.72 72.76 246.98 72.67 243.51 73.14 C 243.31 74.66 243.11 76.17 242.95 77.70 C 239.74 80.10 235.50 79.47 231.76 79.60 C 233.00 77.59 235.33 77.32 237.40 76.83 C 235.28 76.53 233.24 77.23 231.28 77.94 C 231.49 78.93 231.69 79.93 231.91 80.93 C 224.29 81.48 216.67 82.72 209.38 85.06 C 209.56 83.62 209.74 82.18 209.91 80.74 C 209.24 81.63 208.58 82.52 207.93 83.42 C 206.87 83.06 205.81 82.69 204.76 82.34 C 205.63 83.36 206.52 84.37 207.41 85.39 C 204.49 85.95 201.48 86.42 198.63 85.29 C 198.95 86.20 199.27 87.11 199.60 88.03 C 197.83 87.69 196.06 87.34 194.28 87.04 C 192.42 88.28 190.29 88.95 188.05 89.01 C 189.67 86.90 192.03 85.67 194.30 84.42 C 192.06 85.17 189.83 85.93 187.60 86.72 C 187.74 88.57 187.96 90.41 188.25 92.25 C 186.16 90.17 184.07 87.94 183.78 84.87 C 183.64 85.65 183.36 87.22 183.23 88.01 C 182.61 87.34 181.39 86.00 180.77 85.33 C 180.80 85.75 180.83 86.18 180.86 86.61 C 181.78 87.67 182.69 88.74 183.63 89.78 C 181.72 89.55 179.80 89.38 177.89 89.20 C 177.67 89.55 177.23 90.26 177.01 90.62 L 176.56 91.30 C 173.15 93.43 169.01 91.96 165.25 92.32 C 164.79 93.56 164.32 94.79 163.84 96.02 C 163.54 94.41 163.25 92.79 162.98 91.18 C 162.30 91.86 161.62 92.54 160.95 93.22 C 158.15 93.48 155.29 93.48 152.70 92.25 C 153.07 93.24 153.44 94.24 153.82 95.23 C 147.25 94.37 140.60 95.95 134.02 96.44 C 134.24 95.13 134.43 93.83 134.59 92.51 C 133.75 93.64 133.43 95.01 133.14 96.35 C 130.03 96.39 126.92 96.39 123.81 96.42 C 123.36 95.75 122.90 95.08 122.45 94.41 C 122.22 94.90 121.76 95.89 121.53 96.39 C 112.41 97.42 103.23 96.70 94.10 97.72 C 94.09 97.12 94.06 95.90 94.05 95.29 C 94.71 95.31 96.04 95.34 96.70 95.36 C 96.75 94.94 96.85 94.09 96.91 93.67 C 95.10 94.21 93.27 94.69 91.45 95.16 L 93.56 96.22 C 90.61 97.91 87.11 98.09 83.94 99.19 C 85.22 98.00 86.46 96.77 87.64 95.47 C 81.05 96.96 73.54 96.24 67.95 100.60 C 67.34 99.40 66.77 98.18 66.20 96.97 C 65.25 96.73 64.30 96.49 63.35 96.23 C 64.61 97.59 65.73 99.08 66.57 100.75 C 64.64 100.12 62.74 99.44 60.85 98.73 C 59.89 97.12 58.72 95.66 57.53 94.22 C 57.53 94.98 57.53 96.49 57.53 97.25 C 56.83 96.97 55.44 96.43 54.74 96.16 C 53.69 95.42 52.67 94.62 51.65 93.84 C 52.50 92.90 53.37 91.96 54.23 91.03 C 55.07 91.78 55.92 92.53 56.77 93.26 C 56.57 92.11 56.38 90.96 56.20 89.80 C 55.72 89.74 54.78 89.61 54.30 89.54 C 53.05 90.28 51.81 91.04 50.56 91.77 C 50.67 90.40 50.80 89.03 50.94 87.67 C 49.42 86.87 47.84 86.16 46.09 86.14 C 46.58 84.45 47.24 82.82 47.98 81.23 C 46.89 81.50 45.80 81.75 44.70 81.95 C 44.63 81.52 44.50 80.66 44.43 80.23 C 44.77 79.82 45.44 78.99 45.78 78.57 C 44.29 76.52 42.75 74.50 41.14 72.55 C 40.53 73.97 39.92 75.41 39.33 76.84 C 40.32 76.27 41.31 75.69 42.30 75.12 C 42.85 76.60 43.39 78.08 43.88 79.59 C 43.11 79.23 41.56 78.52 40.79 78.17 C 39.74 79.44 38.68 80.70 37.63 81.98 C 35.72 80.70 33.90 79.28 32.04 77.93 C 30.63 77.57 29.20 77.32 27.76 77.19 C 26.92 76.27 26.08 75.36 25.23 74.44 C 25.32 73.07 25.41 71.69 25.49 70.31 C 24.50 71.38 23.52 72.45 22.54 73.52 C 20.37 71.59 17.90 69.86 14.87 69.83 C 12.67 69.50 10.51 69.00 8.34 68.51 C 6.34 65.31 3.72 61.27 6.94 57.89 C 6.63 57.03 6.31 56.18 5.97 55.34 C 6.54 55.16 7.69 54.81 8.27 54.64 C 8.70 51.89 9.24 49.17 9.81 46.45 C 8.62 46.56 7.42 46.67 6.23 46.78 C 6.86 45.65 7.48 44.52 8.13 43.40 L 8.22 43.31 C 9.23 42.42 10.23 41.51 11.22 40.60 C 10.12 40.63 9.02 40.66 7.92 40.70 C 8.36 38.65 8.77 36.59 9.13 34.52 C 9.48 34.45 10.18 34.31 10.53 34.24 C 10.58 35.15 10.62 36.06 10.67 36.97 C 11.74 37.11 12.82 37.24 13.89 37.37 C 14.55 36.64 15.22 35.90 15.87 35.15 C 14.81 33.97 13.76 32.78 12.74 31.56 C 14.63 32.54 16.48 33.60 18.32 34.68 C 19.21 32.73 19.53 30.62 19.66 28.50 C 20.67 29.46 21.44 30.62 22.06 31.87 C 22.35 31.46 22.92 30.64 23.21 30.22 C 23.95 30.38 24.70 30.54 25.44 30.70 C 25.30 29.78 25.16 28.85 25.02 27.93 C 26.34 28.56 27.66 29.19 28.99 29.83 C 28.78 28.94 28.58 28.05 28.37 27.16 C 30.26 27.13 32.14 27.09 34.03 27.05 C 33.86 28.99 33.49 30.92 32.67 32.70 C 33.75 31.95 34.84 31.21 35.96 30.51 C 35.80 29.69 35.65 28.88 35.49 28.06 C 41.39 30.00 47.60 29.94 53.66 28.92 C 52.01 30.61 49.78 33.49 53.53 34.28 C 53.18 33.71 52.50 32.58 52.16 32.02 C 53.08 30.81 53.99 29.61 54.90 28.40 C 56.10 29.92 57.31 31.43 58.54 32.93 C 58.44 31.27 58.34 29.61 58.22 27.96 C 61.87 24.96 66.62 27.31 70.80 26.61 C 75.77 24.26 81.55 23.35 86.96 24.50 C 89.72 22.94 92.82 23.86 95.80 23.74 C 99.56 23.03 103.42 20.78 107.17 22.87 C 107.88 22.31 108.60 21.76 109.31 21.21 C 117.27 22.18 125.73 16.59 132.80 22.37 C 132.11 21.40 131.45 20.41 130.79 19.42 C 158.88 16.97 186.70 12.53 214.84 10.75 C 214.62 11.41 214.17 12.74 213.94 13.40 C 215.69 13.42 217.43 13.35 219.17 13.22 C 218.90 12.55 218.37 11.21 218.11 10.54 C 223.38 10.49 228.53 9.29 233.73 8.60 C 233.85 9.32 234.10 10.76 234.22 11.48 C 238.04 10.79 241.94 10.96 245.73 11.74 C 245.90 11.03 246.26 9.60 246.44 8.88 C 250.02 8.66 253.62 8.64 257.19 8.23 C 258.36 8.06 259.51 7.85 260.66 7.59 C 260.62 8.71 260.58 9.84 260.55 10.96 C 263.35 10.64 266.15 10.26 268.95 9.86 C 269.04 9.09 269.23 7.54 269.32 6.76 C 272.03 6.73 274.74 6.72 277.46 6.73 C 277.40 7.61 277.28 9.38 277.22 10.27 C 277.48 9.61 278.00 8.29 278.26 7.63 C 281.59 7.79 284.93 7.49 288.17 6.69 C 292.53 8.66 297.71 6.61 301.87 4.86 C 301.75 5.42 301.51 6.54 301.40 7.11 C 303.26 6.58 305.11 6.03 306.98 5.49 C 307.38 5.99 308.17 6.99 308.57 7.49 C 309.45 6.77 310.33 6.04 311.22 5.32 C 315.86 5.57 320.50 5.40 325.14 5.64 C 325.65 6.44 326.16 7.25 326.68 8.05 C 328.82 4.79 332.52 5.08 335.93 5.39 C 336.60 6.57 337.27 7.75 337.96 8.93 C 338.46 8.53 338.97 8.13 339.48 7.74 C 340.31 12.26 343.59 10.92 344.75 7.33 C 347.55 8.68 350.47 9.84 353.59 10.10 C 352.08 7.43 349.44 5.83 346.92 4.25 M 271.44 8.19 C 271.11 10.17 276.09 10.56 275.49 8.29 C 274.37 7.47 272.59 7.41 271.44 8.19 M 350.72 16.17 C 350.07 17.18 349.81 19.47 351.33 19.84 C 353.17 19.48 352.39 16.06 350.72 16.17 M 305.35 29.25 C 300.12 30.46 307.84 32.47 305.35 29.25 M 341.40 29.20 C 341.14 34.42 346.27 27.61 341.40 29.20 M 44.10 31.12 C 44.15 31.74 44.24 32.98 44.29 33.60 C 45.39 33.59 46.50 33.57 47.60 33.56 C 48.38 32.73 49.17 31.90 49.95 31.08 C 48.00 31.08 46.05 31.10 44.10 31.12 M 343.35 37.35 C 342.30 37.37 339.63 37.88 340.58 39.42 C 341.78 41.30 345.48 38.34 343.35 37.35 M 68.61 47.70 C 65.32 48.26 62.33 51.12 63.13 54.67 C 74.58 59.47 87.75 58.78 99.65 56.13 C 99.98 57.84 100.17 59.60 100.79 61.24 C 108.23 66.00 117.48 64.79 125.58 66.91 C 124.02 68.05 122.28 69.36 120.21 68.74 C 109.84 67.08 99.20 68.48 89.15 71.27 C 87.04 71.72 85.32 73.03 84.02 74.71 C 95.91 82.58 111.46 81.26 125.03 79.84 C 130.39 79.84 134.63 75.58 140.00 75.86 C 147.13 76.28 153.52 72.60 160.37 71.28 C 163.33 70.47 168.97 68.84 166.28 64.77 C 158.99 61.73 150.94 61.25 143.14 60.95 C 141.49 59.24 140.85 56.46 138.34 55.72 C 126.95 51.21 114.33 52.10 102.63 54.87 C 102.83 52.57 102.64 49.82 100.02 49.01 C 90.11 45.00 78.89 45.42 68.61 47.70 M 331.79 46.82 C 332.55 47.75 333.33 48.68 334.10 49.61 C 335.16 49.30 336.22 48.99 337.28 48.67 C 335.95 46.96 333.90 46.13 331.79 46.82 M 325.53 46.70 C 326.71 47.77 328.02 48.69 329.36 49.57 C 329.88 50.95 330.50 52.33 331.65 53.32 C 331.06 50.03 330.04 45.19 325.53 46.70 M 295.54 50.04 C 295.63 55.32 300.38 48.87 295.54 50.04 M 10.59 53.06 C 10.43 57.37 15.28 51.22 10.59 53.06 M 6.43 62.22 C 6.82 66.61 11.11 61.29 6.43 62.22 M 33.00 71.86 C 31.98 71.64 30.97 71.41 29.96 71.19 C 29.89 71.71 29.76 72.75 29.69 73.27 C 30.70 74.62 31.76 75.95 32.96 77.15 C 32.33 75.97 31.68 74.81 31.00 73.66 C 31.83 73.57 33.49 73.40 34.32 73.31 C 34.20 72.21 34.08 71.12 33.96 70.03 C 33.72 70.49 33.24 71.40 33.00 71.86 M 38.34 70.23 C 37.37 75.37 43.37 70.55 38.34 70.23 M 55.26 80.18 C 55.41 83.50 58.27 78.63 55.26 80.18 M 73.09 95.00 C 74.73 94.24 75.43 92.59 75.88 90.95 C 74.57 92.00 73.60 93.38 73.09 95.00 M 98.11 93.51 C 96.57 98.36 103.40 93.14 98.11 93.51 M 104.17 94.29 C 103.71 95.88 107.35 96.73 107.76 95.21 C 106.99 94.21 105.32 93.71 104.17 94.29 Z" />
			<path fill="#e01f27" stroke="#e01f27" stroke-width="0.09375" opacity="1.00" d=" M 472.62 28.80 C 474.06 28.60 475.50 28.40 476.96 28.21 C 475.62 29.01 474.27 29.80 472.94 30.61 C 472.82 30.01 472.72 29.40 472.62 28.80 Z" />
			<path fill="#e01f27" stroke="#e01f27" stroke-width="0.09375" opacity="1.00" d=" M 486.43 28.19 C 487.44 27.44 488.46 27.40 489.50 28.08 C 490.07 29.88 485.25 30.24 486.43 28.19 Z" />
			<path fill="#e01f27" stroke="#e01f27" stroke-width="0.09375" opacity="1.00" d=" M 420.63 28.90 C 424.64 28.31 420.02 32.85 420.63 28.90 Z" />
			<path fill="#e01f27" stroke="#e01f27" stroke-width="0.09375" opacity="1.00" d=" M 423.40 29.08 C 428.29 27.55 423.17 34.31 423.40 29.08 Z" />
			<path fill="#e01f27" stroke="#e01f27" stroke-width="0.09375" opacity="1.00" d=" M 464.72 35.72 C 467.99 31.64 474.41 34.57 478.97 33.67 C 479.25 33.84 479.82 34.17 480.10 34.34 C 475.00 35.75 469.77 33.94 464.72 35.72 Z" />
			</g>
			<g id="#9e262cb3">
			<path fill="#9e262c" stroke="#9e262c" stroke-width="0.09375" opacity="0.70" d=" M 233.73 8.60 C 241.56 8.54 249.36 7.69 257.19 8.23 C 253.62 8.64 250.02 8.66 246.44 8.88 C 246.26 9.60 245.90 11.03 245.73 11.74 C 241.94 10.96 238.04 10.79 234.22 11.48 C 234.10 10.76 233.85 9.32 233.73 8.60 Z" />
			<path fill="#9e262c" stroke="#9e262c" stroke-width="0.09375" opacity="0.70" d=" M 381.48 46.55 C 381.04 43.56 385.23 44.36 387.07 43.74 C 388.29 44.01 389.57 44.36 390.28 45.49 C 387.34 45.74 384.37 45.91 381.48 46.55 Z" />
			</g>
			<g id="#30161735">
			<path fill="#301617" stroke="#301617" stroke-width="0.09375" opacity="0.21" d=" M 350.72 16.17 C 352.39 16.06 353.17 19.48 351.33 19.84 C 349.81 19.47 350.07 17.18 350.72 16.17 Z" />
			<path fill="#301617" stroke="#301617" stroke-width="0.09375" opacity="0.21" d=" M 305.35 29.25 C 307.84 32.47 300.12 30.46 305.35 29.25 Z" />
			<path fill="#301617" stroke="#301617" stroke-width="0.09375" opacity="0.21" d=" M 44.10 31.12 C 46.05 31.10 48.00 31.08 49.95 31.08 C 49.17 31.90 48.38 32.73 47.60 33.56 C 46.50 33.57 45.39 33.59 44.29 33.60 C 44.24 32.98 44.15 31.74 44.10 31.12 Z" />
			<path fill="#301617" stroke="#301617" stroke-width="0.09375" opacity="0.21" d=" M 404.13 36.65 C 406.76 35.53 409.08 36.01 409.60 39.13 C 409.76 39.85 410.08 41.27 410.24 41.99 C 410.95 42.07 412.38 42.23 413.09 42.31 C 411.46 46.02 406.87 45.29 403.54 45.69 C 404.09 44.79 404.73 43.96 405.47 43.19 C 405.10 42.84 404.74 42.50 404.38 42.16 C 403.74 44.18 400.47 48.25 400.04 44.08 C 401.50 41.66 402.91 39.21 404.13 36.65 M 404.22 39.13 C 401.72 40.44 405.59 42.80 406.68 40.77 C 407.71 39.27 405.27 38.44 404.22 39.13 Z" />
			<path fill="#301617" stroke="#301617" stroke-width="0.09375" opacity="0.21" d=" M 331.79 46.82 C 333.90 46.13 335.95 46.96 337.28 48.67 C 336.22 48.99 335.16 49.30 334.10 49.61 C 333.33 48.68 332.55 47.75 331.79 46.82 Z" />
			<path fill="#301617" stroke="#301617" stroke-width="0.09375" opacity="0.21" d=" M 10.59 53.06 C 15.28 51.22 10.43 57.37 10.59 53.06 Z" />
			<path fill="#301617" stroke="#301617" stroke-width="0.09375" opacity="0.21" d=" M 6.43 62.22 C 11.11 61.29 6.82 66.61 6.43 62.22 Z" />
			<path fill="#301617" stroke="#301617" stroke-width="0.09375" opacity="0.21" d=" M 41.14 72.55 C 42.75 74.50 44.29 76.52 45.78 78.57 C 45.44 78.99 44.77 79.82 44.43 80.23 C 44.50 80.66 44.63 81.52 44.70 81.95 C 45.42 85.78 42.11 88.19 39.67 90.47 C 39.82 88.92 39.97 87.36 40.13 85.81 C 38.40 87.91 36.10 89.32 33.30 89.23 C 33.83 87.51 34.38 85.80 34.91 84.08 C 32.86 83.84 30.79 83.73 28.72 83.70 C 27.68 80.84 29.33 78.80 32.04 77.93 C 33.90 79.28 35.72 80.70 37.63 81.98 C 38.68 80.70 39.74 79.44 40.79 78.17 C 41.56 78.52 43.11 79.23 43.88 79.59 C 43.39 78.08 42.85 76.60 42.30 75.12 C 41.31 75.69 40.32 76.27 39.33 76.84 C 39.92 75.41 40.53 73.97 41.14 72.55 Z" />
			<path fill="#301617" stroke="#301617" stroke-width="0.09375" opacity="0.21" d=" M 55.26 80.18 C 58.27 78.63 55.41 83.50 55.26 80.18 Z" />
			<path fill="#301617" stroke="#301617" stroke-width="0.09375" opacity="0.21" d=" M 41.02 90.74 C 42.99 89.73 46.15 90.70 46.26 93.18 C 44.34 92.78 42.45 92.15 41.02 90.74 Z" />
			<path fill="#301617" stroke="#301617" stroke-width="0.09375" opacity="0.21" d=" M 104.17 94.29 C 105.32 93.71 106.99 94.21 107.76 95.21 C 107.35 96.73 103.71 95.88 104.17 94.29 Z" />
			</g>
			</svg>
