	<svg width="300px" height="680px" viewBox="0 0 300 680" version="1.1" xmlns="http://www.w3.org/2000/svg" style="position:absolute;left:10%;top:0px;">
		<g>
		<path class="wenziPath" stroke="#fff" stroke-width="1px" opacity="1.00" d=" M 157.74 41.83 C 163.99 43.45 171.13 45.45 175.26 50.68 C 176.60 57.39 174.61 64.27 173.99 71.00 C 172.00 83.64 171.93 96.45 171.95 109.21 C 177.83 108.39 183.70 107.48 189.48 106.13 C 188.64 99.49 187.36 92.92 185.82 86.41 C 190.06 85.93 194.50 85.06 198.66 86.36 C 202.24 87.57 204.70 91.01 205.36 94.63 C 206.96 106.15 206.35 118.15 202.02 129.04 C 200.72 132.62 197.41 134.55 194.24 136.20 C 191.14 130.37 188.33 124.40 185.66 118.36 C 180.52 119.12 175.36 120.00 170.42 121.63 C 165.46 123.55 159.80 122.36 155.09 125.15 C 149.95 127.03 145.87 131.01 140.63 132.60 C 137.91 133.45 135.13 131.38 134.04 128.98 C 128.32 119.00 130.04 106.70 132.02 95.96 C 132.39 92.39 134.75 86.21 139.95 89.13 C 147.09 91.83 152.13 98.43 158.58 102.44 C 158.46 88.91 160.79 75.51 160.67 62.00 C 160.65 55.14 157.79 48.66 157.74 41.83 M 142.33 95.39 C 143.73 101.72 143.77 108.20 143.40 114.66 C 147.98 113.30 152.63 112.18 157.28 111.07 C 154.94 103.85 148.56 99.16 142.33 95.39 Z"/>
		<path class="wenziPath" stroke="#fff" stroke-width="1px" opacity="1.00" d=" M 113.53 47.59 C 120.44 53.29 131.64 59.88 128.61 70.64 C 123.80 78.83 116.69 85.40 110.89 92.89 C 112.77 95.55 114.68 98.21 116.55 100.88 C 118.23 97.39 120.02 93.94 121.86 90.53 C 122.14 99.46 119.94 108.16 119.15 117.00 C 117.97 126.68 118.04 136.49 116.48 146.12 C 115.64 146.05 113.96 145.90 113.13 145.82 C 110.29 139.96 105.39 134.20 106.89 127.19 C 107.72 117.94 109.40 108.46 107.31 99.24 C 103.47 101.66 99.84 104.39 96.00 106.80 C 94.34 100.12 86.98 90.36 95.05 85.07 C 103.23 75.60 114.67 65.81 113.67 52.16 C 113.66 50.64 113.58 49.11 113.53 47.59 Z" />
		<path class="wenziPath2" stroke="#fff" stroke-width="1px" opacity="1.00" d=" M 145.05 156.51 C 148.38 156.75 152.21 155.64 154.95 158.00 C 157.88 160.57 160.07 164.22 160.91 168.00 C 158.97 179.68 153.95 190.55 150.68 201.88 C 156.13 201.18 161.59 200.48 167.05 199.83 C 167.78 192.40 167.62 184.95 167.72 177.50 C 172.14 178.83 179.30 178.34 181.32 183.64 C 181.87 188.46 180.72 193.37 180.40 198.20 C 185.81 197.37 191.23 196.58 196.57 195.33 C 207.54 192.35 217.96 203.25 219.70 213.43 C 218.63 214.30 217.58 215.18 216.53 216.06 C 202.85 213.32 188.98 211.58 175.00 211.91 C 173.63 216.47 171.49 221.22 172.80 226.06 C 173.98 230.26 175.20 234.66 177.58 238.37 C 182.20 241.89 187.52 244.39 192.16 247.90 C 197.26 252.76 197.64 260.46 195.44 266.77 C 183.10 259.71 172.21 250.35 159.71 243.50 C 150.50 254.05 137.11 260.93 122.96 260.75 C 111.82 261.77 102.87 253.70 95.59 246.32 C 101.18 248.69 106.61 252.30 112.98 251.69 C 125.44 251.66 136.53 244.78 146.54 238.15 C 138.53 237.17 130.36 238.08 122.42 236.45 C 123.23 230.83 124.02 225.20 125.79 219.80 C 113.01 222.97 100.66 227.55 88.05 231.27 C 86.52 226.92 85.39 222.43 84.58 217.89 C 101.46 212.81 118.87 209.79 135.77 204.79 C 140.20 189.23 150.36 173.07 145.05 156.51 M 146.11 215.13 C 144.64 218.75 143.16 222.38 141.74 226.02 C 146.46 227.20 151.19 228.35 155.98 229.27 C 158.69 224.00 161.31 218.66 163.35 213.09 C 157.59 213.68 151.85 214.43 146.11 215.13 M 170.47 225.64 C 169.00 228.33 167.55 231.03 166.10 233.73 C 168.47 234.79 170.83 235.88 173.19 236.97 C 172.30 233.19 171.39 229.41 170.47 225.64 Z" />
		<path class="wenziPath" stroke="#fff" stroke-width="1px" opacity="1.00" d=" M 127.32 302.18 C 134.88 301.31 141.25 296.10 148.98 296.00 C 154.51 296.76 158.68 301.31 160.04 306.58 C 153.46 309.97 147.01 313.60 141.18 318.19 C 132.00 324.72 119.90 322.38 109.92 326.75 C 111.29 330.08 112.49 337.79 117.84 336.79 C 126.25 334.53 133.48 329.31 140.90 324.94 C 145.73 321.82 151.77 324.16 156.27 326.74 C 159.46 328.61 162.13 333.25 159.60 336.63 C 155.31 343.45 149.14 349.40 147.03 357.37 C 147.05 361.59 148.71 365.64 148.62 369.89 C 147.85 373.29 145.20 375.80 143.06 378.40 C 145.91 378.38 148.82 377.95 151.64 378.56 C 154.67 379.69 156.22 382.74 157.77 385.36 C 156.72 386.14 155.67 386.94 154.62 387.73 C 146.80 387.81 138.62 386.28 131.09 389.06 C 120.09 392.97 110.07 399.24 98.91 402.71 C 96.65 397.91 94.51 393.02 93.37 387.82 C 101.65 387.73 109.87 386.78 117.92 384.80 C 116.62 381.53 115.26 378.28 114.26 374.92 C 112.64 367.86 114.02 360.35 111.41 353.47 C 109.32 346.75 103.94 340.85 105.30 333.32 C 107.00 326.08 114.24 322.09 120.05 318.44 C 117.13 313.26 114.30 308.00 112.54 302.30 C 117.47 302.41 122.40 302.53 127.32 302.18 M 120.85 344.66 C 121.93 346.58 123.03 348.50 124.13 350.41 C 129.36 349.04 135.12 348.05 139.17 344.15 C 142.21 341.51 143.31 337.53 144.48 333.85 C 137.27 338.80 129.43 342.69 120.85 344.66 M 124.92 365.82 C 125.01 371.31 125.11 376.82 125.21 382.33 C 131.48 377.30 137.27 370.37 137.02 361.85 C 132.85 362.71 128.85 364.19 124.92 365.82 Z" fill="#fff"/>
		<path class="wenziPath" stroke="#fff" stroke-width="1px" opacity="1.00" d=" M 184.77 326.58 C 189.49 323.87 195.07 320.83 200.70 322.31 C 204.76 323.69 205.97 328.32 208.03 331.58 C 203.21 334.15 198.24 336.43 193.36 338.90 C 192.82 344.64 193.88 350.89 191.20 356.25 C 189.36 359.88 186.92 363.17 184.77 366.62 C 193.39 365.63 202.51 362.68 211.14 364.81 C 218.70 367.50 219.41 375.68 217.90 382.36 C 208.63 381.02 199.41 378.96 189.99 379.12 C 179.55 378.52 169.90 383.26 159.68 384.45 C 157.92 380.19 156.01 375.89 155.89 371.21 C 162.69 368.25 170.96 367.09 175.65 360.68 C 178.02 356.82 179.31 352.41 180.30 348.02 C 173.16 345.74 167.94 339.95 164.26 333.63 C 171.28 331.90 178.47 330.29 184.77 326.58 Z" fill="#fff"/>
		<path class="wenziPath" stroke="#fff" stroke-width="1px" opacity="1.00" d=" M 146.97 418.68 C 154.40 417.60 161.38 414.06 168.99 414.02 C 174.06 414.22 176.00 419.98 178.05 423.67 C 170.30 426.48 162.75 429.77 155.23 433.15 C 146.03 436.53 135.55 436.50 127.27 442.31 C 124.13 444.42 123.32 448.47 122.08 451.74 C 124.68 452.82 127.19 454.23 129.99 454.73 C 135.87 451.41 140.91 446.29 147.60 444.50 C 154.08 442.82 160.24 439.78 166.96 439.17 C 174.11 439.76 181.14 444.91 183.03 451.94 C 180.39 457.39 173.63 459.37 171.12 464.97 C 170.61 468.02 171.43 471.05 171.84 474.07 C 162.20 476.35 152.40 478.15 143.25 482.10 C 139.07 483.01 135.45 485.90 131.13 486.25 C 128.45 481.36 127.67 475.81 126.00 470.58 C 123.10 464.81 117.18 460.08 118.03 452.96 C 117.93 448.11 120.99 443.62 125.00 441.11 C 130.14 438.07 135.80 436.17 141.30 433.92 C 137.42 428.70 133.12 423.82 129.45 418.45 C 135.29 418.54 141.13 418.91 146.97 418.68 M 152.96 456.65 C 146.68 457.10 140.30 456.00 134.07 457.28 C 136.08 461.53 137.76 465.90 139.49 470.29 C 145.61 468.19 152.87 467.48 157.25 462.24 C 160.06 459.45 161.52 455.73 162.68 452.04 C 159.48 453.62 156.55 456.00 152.96 456.65 Z" fill="#fff"/>
		<path class="wenziPath2" stroke="#fff" stroke-width="1px" opacity="1.00" d=" M 156.69 478.73 C 162.25 479.29 170.97 477.77 173.63 484.45 C 173.66 485.77 173.71 488.41 173.74 489.74 C 169.33 496.00 163.33 500.86 157.69 505.97 C 171.27 505.91 184.80 503.37 198.38 504.60 C 202.53 505.16 204.21 509.69 206.56 512.56 C 208.85 515.33 206.41 518.62 205.45 521.41 C 186.59 516.47 167.01 514.32 147.52 515.40 C 131.37 516.75 115.68 521.55 101.06 528.43 C 98.24 523.80 95.45 519.12 93.41 514.08 C 105.76 512.93 117.79 509.62 130.18 508.73 C 127.77 500.94 126.59 492.66 127.90 484.56 C 129.31 486.45 132.12 490.23 133.53 492.13 C 138.61 488.92 143.47 485.34 148.74 482.44 C 143.37 489.25 141.59 497.82 140.61 506.27 C 148.48 501.47 158.74 496.98 161.49 487.37 C 163.04 483.50 158.72 481.27 156.69 478.73 Z" fill="#fff"/>
		<path class="wenziPath2" stroke="#fff" stroke-width="1px" opacity="1.00" d=" M 132.09 541.38 C 139.91 544.67 149.29 547.60 152.83 556.18 C 153.84 558.74 155.26 562.59 152.40 564.35 C 144.50 570.09 136.44 575.63 129.06 582.05 C 132.75 585.90 138.50 589.77 137.74 595.82 C 135.30 602.22 129.76 607.16 127.66 613.70 C 128.93 616.63 130.75 619.30 132.27 622.13 C 137.48 612.09 143.41 601.60 153.17 595.35 C 164.48 590.24 176.60 586.88 187.20 580.21 C 191.64 577.76 196.40 581.78 199.99 584.02 C 204.11 586.18 204.88 591.84 202.56 595.59 C 196.90 604.57 189.00 612.09 184.34 621.72 C 191.81 621.73 200.79 617.93 206.98 624.02 C 212.61 627.18 213.90 633.80 214.62 639.64 C 201.77 641.37 189.20 636.03 176.34 637.41 C 167.70 639.02 159.15 641.10 150.48 642.55 C 149.18 637.94 146.40 632.54 148.98 628.02 C 152.30 624.87 157.46 624.71 161.08 621.95 C 166.97 617.44 171.62 611.57 176.30 605.86 C 173.41 606.03 170.51 606.04 167.64 605.77 C 163.39 604.31 159.71 601.34 155.08 601.04 C 144.91 605.36 140.10 616.30 135.76 625.72 C 133.69 632.28 132.23 639.06 129.49 645.40 C 126.45 652.37 125.80 660.67 120.11 666.19 C 116.34 662.62 113.48 657.99 113.42 652.61 C 111.89 645.73 118.16 641.47 121.05 636.10 C 123.74 631.60 123.68 626.19 124.34 621.14 C 117.61 622.24 111.55 625.45 105.88 629.07 C 104.94 628.32 104.00 627.58 103.06 626.85 C 103.07 623.19 103.08 615.88 103.08 612.22 C 112.56 609.12 118.04 600.29 121.32 591.37 C 112.72 592.81 105.09 597.29 96.74 599.58 C 95.58 594.52 94.05 589.47 94.12 584.25 C 98.27 579.65 104.87 578.45 109.60 574.55 C 117.54 568.29 125.73 561.93 131.82 553.77 C 134.70 550.18 132.58 545.45 132.09 541.38 Z" fill="#fff"/>
		</g>
</svg>